%TF.GenerationSoftware,KiCad,Pcbnew,5.1.10-88a1d61d58~88~ubuntu18.04.1*%
%TF.CreationDate,2021-09-18T16:02:56+02:00*%
%TF.ProjectId,RGBtoHDMI Amiga Denise DIP CPLD Rev 1.1,52474274-6f48-4444-9d49-20416d696761,rev?*%
%TF.SameCoordinates,Original*%
%TF.FileFunction,Soldermask,Top*%
%TF.FilePolarity,Negative*%
%FSLAX46Y46*%
G04 Gerber Fmt 4.6, Leading zero omitted, Abs format (unit mm)*
G04 Created by KiCad (PCBNEW 5.1.10-88a1d61d58~88~ubuntu18.04.1) date 2021-09-18 16:02:56*
%MOMM*%
%LPD*%
G01*
G04 APERTURE LIST*
%ADD10C,3.500000*%
%ADD11O,2.000000X2.000000*%
%ADD12O,1.900000X1.900000*%
%ADD13C,0.100000*%
G04 APERTURE END LIST*
D10*
%TO.C,REF\u002A\u002A*%
X202840000Y-95300000D03*
%TD*%
D11*
%TO.C,Button*%
X203050000Y-87815000D03*
G36*
G01*
X202050000Y-86125000D02*
X202050000Y-84425000D01*
G75*
G02*
X202200000Y-84275000I150000J0D01*
G01*
X203900000Y-84275000D01*
G75*
G02*
X204050000Y-84425000I0J-150000D01*
G01*
X204050000Y-86125000D01*
G75*
G02*
X203900000Y-86275000I-150000J0D01*
G01*
X202200000Y-86275000D01*
G75*
G02*
X202050000Y-86125000I0J150000D01*
G01*
G37*
%TD*%
D10*
%TO.C,REF\u002A\u002A*%
X145330000Y-86620000D03*
%TD*%
D12*
%TO.C,U2*%
X139315000Y-99695000D03*
X80895000Y-84455000D03*
X136775000Y-99695000D03*
X83435000Y-84455000D03*
X134235000Y-99695000D03*
X85975000Y-84455000D03*
X131695000Y-99695000D03*
X88515000Y-84455000D03*
X129155000Y-99695000D03*
X91055000Y-84455000D03*
X126615000Y-99695000D03*
X93595000Y-84455000D03*
X124075000Y-99695000D03*
X96135000Y-84455000D03*
X121535000Y-99695000D03*
X98675000Y-84455000D03*
X118995000Y-99695000D03*
X101215000Y-84455000D03*
X116455000Y-99695000D03*
X103755000Y-84455000D03*
X113915000Y-99695000D03*
X106295000Y-84455000D03*
X111375000Y-99695000D03*
X108835000Y-84455000D03*
X108835000Y-99695000D03*
X111375000Y-84455000D03*
X106295000Y-99695000D03*
X113915000Y-84455000D03*
X103755000Y-99695000D03*
X116455000Y-84455000D03*
X101215000Y-99695000D03*
X118995000Y-84455000D03*
X98675000Y-99695000D03*
X121535000Y-84455000D03*
X96135000Y-99695000D03*
X124075000Y-84455000D03*
X93595000Y-99695000D03*
X126615000Y-84455000D03*
X91055000Y-99695000D03*
X129155000Y-84455000D03*
X88515000Y-99695000D03*
X131695000Y-84455000D03*
X85975000Y-99695000D03*
X134235000Y-84455000D03*
X83435000Y-99695000D03*
X136775000Y-84455000D03*
X80895000Y-99695000D03*
G36*
G01*
X138840000Y-83505000D02*
X139790000Y-83505000D01*
G75*
G02*
X140265000Y-83980000I0J-475000D01*
G01*
X140265000Y-84930000D01*
G75*
G02*
X139790000Y-85405000I-475000J0D01*
G01*
X138840000Y-85405000D01*
G75*
G02*
X138365000Y-84930000I0J475000D01*
G01*
X138365000Y-83980000D01*
G75*
G02*
X138840000Y-83505000I475000J0D01*
G01*
G37*
%TD*%
D11*
%TO.C,J1*%
X150190000Y-87900000D03*
X150190000Y-85360000D03*
X152730000Y-87900000D03*
X152730000Y-85360000D03*
X155270000Y-87900000D03*
X155270000Y-85360000D03*
X157810000Y-87900000D03*
X157810000Y-85360000D03*
X160350000Y-87900000D03*
X160350000Y-85360000D03*
X162890000Y-87900000D03*
X162890000Y-85360000D03*
X165430000Y-87900000D03*
X165430000Y-85360000D03*
X167970000Y-87900000D03*
X167970000Y-85360000D03*
X170510000Y-87900000D03*
X170510000Y-85360000D03*
X173050000Y-87900000D03*
X173050000Y-85360000D03*
X175590000Y-87900000D03*
X175590000Y-85360000D03*
X178130000Y-87900000D03*
X178130000Y-85360000D03*
X180670000Y-87900000D03*
X180670000Y-85360000D03*
X183210000Y-87900000D03*
X183210000Y-85360000D03*
X185750000Y-87900000D03*
X185750000Y-85360000D03*
X188290000Y-87900000D03*
X188290000Y-85360000D03*
X190830000Y-87900000D03*
X190830000Y-85360000D03*
X193370000Y-87900000D03*
X193370000Y-85360000D03*
X195910000Y-87900000D03*
X195910000Y-85360000D03*
X198450000Y-87900000D03*
G36*
G01*
X197600000Y-84360000D02*
X199300000Y-84360000D01*
G75*
G02*
X199450000Y-84510000I0J-150000D01*
G01*
X199450000Y-86210000D01*
G75*
G02*
X199300000Y-86360000I-150000J0D01*
G01*
X197600000Y-86360000D01*
G75*
G02*
X197450000Y-86210000I0J150000D01*
G01*
X197450000Y-84510000D01*
G75*
G02*
X197600000Y-84360000I150000J0D01*
G01*
G37*
%TD*%
%TO.C,U1*%
G36*
G01*
X144850000Y-101425000D02*
X144850000Y-101975000D01*
G75*
G02*
X144700000Y-102125000I-150000J0D01*
G01*
X143200000Y-102125000D01*
G75*
G02*
X143050000Y-101975000I0J150000D01*
G01*
X143050000Y-101425000D01*
G75*
G02*
X143200000Y-101275000I150000J0D01*
G01*
X144700000Y-101275000D01*
G75*
G02*
X144850000Y-101425000I0J-150000D01*
G01*
G37*
G36*
G01*
X144850000Y-100625000D02*
X144850000Y-101175000D01*
G75*
G02*
X144700000Y-101325000I-150000J0D01*
G01*
X143200000Y-101325000D01*
G75*
G02*
X143050000Y-101175000I0J150000D01*
G01*
X143050000Y-100625000D01*
G75*
G02*
X143200000Y-100475000I150000J0D01*
G01*
X144700000Y-100475000D01*
G75*
G02*
X144850000Y-100625000I0J-150000D01*
G01*
G37*
G36*
G01*
X144850000Y-99825000D02*
X144850000Y-100375000D01*
G75*
G02*
X144700000Y-100525000I-150000J0D01*
G01*
X143200000Y-100525000D01*
G75*
G02*
X143050000Y-100375000I0J150000D01*
G01*
X143050000Y-99825000D01*
G75*
G02*
X143200000Y-99675000I150000J0D01*
G01*
X144700000Y-99675000D01*
G75*
G02*
X144850000Y-99825000I0J-150000D01*
G01*
G37*
G36*
G01*
X144850000Y-99025000D02*
X144850000Y-99575000D01*
G75*
G02*
X144700000Y-99725000I-150000J0D01*
G01*
X143200000Y-99725000D01*
G75*
G02*
X143050000Y-99575000I0J150000D01*
G01*
X143050000Y-99025000D01*
G75*
G02*
X143200000Y-98875000I150000J0D01*
G01*
X144700000Y-98875000D01*
G75*
G02*
X144850000Y-99025000I0J-150000D01*
G01*
G37*
G36*
G01*
X144850000Y-98225000D02*
X144850000Y-98775000D01*
G75*
G02*
X144700000Y-98925000I-150000J0D01*
G01*
X143200000Y-98925000D01*
G75*
G02*
X143050000Y-98775000I0J150000D01*
G01*
X143050000Y-98225000D01*
G75*
G02*
X143200000Y-98075000I150000J0D01*
G01*
X144700000Y-98075000D01*
G75*
G02*
X144850000Y-98225000I0J-150000D01*
G01*
G37*
G36*
G01*
X144850000Y-97425000D02*
X144850000Y-97975000D01*
G75*
G02*
X144700000Y-98125000I-150000J0D01*
G01*
X143200000Y-98125000D01*
G75*
G02*
X143050000Y-97975000I0J150000D01*
G01*
X143050000Y-97425000D01*
G75*
G02*
X143200000Y-97275000I150000J0D01*
G01*
X144700000Y-97275000D01*
G75*
G02*
X144850000Y-97425000I0J-150000D01*
G01*
G37*
G36*
G01*
X144850000Y-96625000D02*
X144850000Y-97175000D01*
G75*
G02*
X144700000Y-97325000I-150000J0D01*
G01*
X143200000Y-97325000D01*
G75*
G02*
X143050000Y-97175000I0J150000D01*
G01*
X143050000Y-96625000D01*
G75*
G02*
X143200000Y-96475000I150000J0D01*
G01*
X144700000Y-96475000D01*
G75*
G02*
X144850000Y-96625000I0J-150000D01*
G01*
G37*
G36*
G01*
X144850000Y-95825000D02*
X144850000Y-96375000D01*
G75*
G02*
X144700000Y-96525000I-150000J0D01*
G01*
X143200000Y-96525000D01*
G75*
G02*
X143050000Y-96375000I0J150000D01*
G01*
X143050000Y-95825000D01*
G75*
G02*
X143200000Y-95675000I150000J0D01*
G01*
X144700000Y-95675000D01*
G75*
G02*
X144850000Y-95825000I0J-150000D01*
G01*
G37*
G36*
G01*
X144850000Y-95025000D02*
X144850000Y-95575000D01*
G75*
G02*
X144700000Y-95725000I-150000J0D01*
G01*
X143200000Y-95725000D01*
G75*
G02*
X143050000Y-95575000I0J150000D01*
G01*
X143050000Y-95025000D01*
G75*
G02*
X143200000Y-94875000I150000J0D01*
G01*
X144700000Y-94875000D01*
G75*
G02*
X144850000Y-95025000I0J-150000D01*
G01*
G37*
G36*
G01*
X144850000Y-94225000D02*
X144850000Y-94775000D01*
G75*
G02*
X144700000Y-94925000I-150000J0D01*
G01*
X143200000Y-94925000D01*
G75*
G02*
X143050000Y-94775000I0J150000D01*
G01*
X143050000Y-94225000D01*
G75*
G02*
X143200000Y-94075000I150000J0D01*
G01*
X144700000Y-94075000D01*
G75*
G02*
X144850000Y-94225000I0J-150000D01*
G01*
G37*
G36*
G01*
X144850000Y-93425000D02*
X144850000Y-93975000D01*
G75*
G02*
X144700000Y-94125000I-150000J0D01*
G01*
X143200000Y-94125000D01*
G75*
G02*
X143050000Y-93975000I0J150000D01*
G01*
X143050000Y-93425000D01*
G75*
G02*
X143200000Y-93275000I150000J0D01*
G01*
X144700000Y-93275000D01*
G75*
G02*
X144850000Y-93425000I0J-150000D01*
G01*
G37*
G36*
G01*
X145925000Y-92900000D02*
X145375000Y-92900000D01*
G75*
G02*
X145225000Y-92750000I0J150000D01*
G01*
X145225000Y-91250000D01*
G75*
G02*
X145375000Y-91100000I150000J0D01*
G01*
X145925000Y-91100000D01*
G75*
G02*
X146075000Y-91250000I0J-150000D01*
G01*
X146075000Y-92750000D01*
G75*
G02*
X145925000Y-92900000I-150000J0D01*
G01*
G37*
G36*
G01*
X146725000Y-92900000D02*
X146175000Y-92900000D01*
G75*
G02*
X146025000Y-92750000I0J150000D01*
G01*
X146025000Y-91250000D01*
G75*
G02*
X146175000Y-91100000I150000J0D01*
G01*
X146725000Y-91100000D01*
G75*
G02*
X146875000Y-91250000I0J-150000D01*
G01*
X146875000Y-92750000D01*
G75*
G02*
X146725000Y-92900000I-150000J0D01*
G01*
G37*
G36*
G01*
X147525000Y-92900000D02*
X146975000Y-92900000D01*
G75*
G02*
X146825000Y-92750000I0J150000D01*
G01*
X146825000Y-91250000D01*
G75*
G02*
X146975000Y-91100000I150000J0D01*
G01*
X147525000Y-91100000D01*
G75*
G02*
X147675000Y-91250000I0J-150000D01*
G01*
X147675000Y-92750000D01*
G75*
G02*
X147525000Y-92900000I-150000J0D01*
G01*
G37*
G36*
G01*
X148325000Y-92900000D02*
X147775000Y-92900000D01*
G75*
G02*
X147625000Y-92750000I0J150000D01*
G01*
X147625000Y-91250000D01*
G75*
G02*
X147775000Y-91100000I150000J0D01*
G01*
X148325000Y-91100000D01*
G75*
G02*
X148475000Y-91250000I0J-150000D01*
G01*
X148475000Y-92750000D01*
G75*
G02*
X148325000Y-92900000I-150000J0D01*
G01*
G37*
G36*
G01*
X149125000Y-92900000D02*
X148575000Y-92900000D01*
G75*
G02*
X148425000Y-92750000I0J150000D01*
G01*
X148425000Y-91250000D01*
G75*
G02*
X148575000Y-91100000I150000J0D01*
G01*
X149125000Y-91100000D01*
G75*
G02*
X149275000Y-91250000I0J-150000D01*
G01*
X149275000Y-92750000D01*
G75*
G02*
X149125000Y-92900000I-150000J0D01*
G01*
G37*
G36*
G01*
X149925000Y-92900000D02*
X149375000Y-92900000D01*
G75*
G02*
X149225000Y-92750000I0J150000D01*
G01*
X149225000Y-91250000D01*
G75*
G02*
X149375000Y-91100000I150000J0D01*
G01*
X149925000Y-91100000D01*
G75*
G02*
X150075000Y-91250000I0J-150000D01*
G01*
X150075000Y-92750000D01*
G75*
G02*
X149925000Y-92900000I-150000J0D01*
G01*
G37*
G36*
G01*
X150725000Y-92900000D02*
X150175000Y-92900000D01*
G75*
G02*
X150025000Y-92750000I0J150000D01*
G01*
X150025000Y-91250000D01*
G75*
G02*
X150175000Y-91100000I150000J0D01*
G01*
X150725000Y-91100000D01*
G75*
G02*
X150875000Y-91250000I0J-150000D01*
G01*
X150875000Y-92750000D01*
G75*
G02*
X150725000Y-92900000I-150000J0D01*
G01*
G37*
G36*
G01*
X151525000Y-92900000D02*
X150975000Y-92900000D01*
G75*
G02*
X150825000Y-92750000I0J150000D01*
G01*
X150825000Y-91250000D01*
G75*
G02*
X150975000Y-91100000I150000J0D01*
G01*
X151525000Y-91100000D01*
G75*
G02*
X151675000Y-91250000I0J-150000D01*
G01*
X151675000Y-92750000D01*
G75*
G02*
X151525000Y-92900000I-150000J0D01*
G01*
G37*
G36*
G01*
X152325000Y-92900000D02*
X151775000Y-92900000D01*
G75*
G02*
X151625000Y-92750000I0J150000D01*
G01*
X151625000Y-91250000D01*
G75*
G02*
X151775000Y-91100000I150000J0D01*
G01*
X152325000Y-91100000D01*
G75*
G02*
X152475000Y-91250000I0J-150000D01*
G01*
X152475000Y-92750000D01*
G75*
G02*
X152325000Y-92900000I-150000J0D01*
G01*
G37*
G36*
G01*
X153125000Y-92900000D02*
X152575000Y-92900000D01*
G75*
G02*
X152425000Y-92750000I0J150000D01*
G01*
X152425000Y-91250000D01*
G75*
G02*
X152575000Y-91100000I150000J0D01*
G01*
X153125000Y-91100000D01*
G75*
G02*
X153275000Y-91250000I0J-150000D01*
G01*
X153275000Y-92750000D01*
G75*
G02*
X153125000Y-92900000I-150000J0D01*
G01*
G37*
G36*
G01*
X153925000Y-92900000D02*
X153375000Y-92900000D01*
G75*
G02*
X153225000Y-92750000I0J150000D01*
G01*
X153225000Y-91250000D01*
G75*
G02*
X153375000Y-91100000I150000J0D01*
G01*
X153925000Y-91100000D01*
G75*
G02*
X154075000Y-91250000I0J-150000D01*
G01*
X154075000Y-92750000D01*
G75*
G02*
X153925000Y-92900000I-150000J0D01*
G01*
G37*
G36*
G01*
X156250000Y-93425000D02*
X156250000Y-93975000D01*
G75*
G02*
X156100000Y-94125000I-150000J0D01*
G01*
X154600000Y-94125000D01*
G75*
G02*
X154450000Y-93975000I0J150000D01*
G01*
X154450000Y-93425000D01*
G75*
G02*
X154600000Y-93275000I150000J0D01*
G01*
X156100000Y-93275000D01*
G75*
G02*
X156250000Y-93425000I0J-150000D01*
G01*
G37*
G36*
G01*
X156250000Y-94225000D02*
X156250000Y-94775000D01*
G75*
G02*
X156100000Y-94925000I-150000J0D01*
G01*
X154600000Y-94925000D01*
G75*
G02*
X154450000Y-94775000I0J150000D01*
G01*
X154450000Y-94225000D01*
G75*
G02*
X154600000Y-94075000I150000J0D01*
G01*
X156100000Y-94075000D01*
G75*
G02*
X156250000Y-94225000I0J-150000D01*
G01*
G37*
G36*
G01*
X156250000Y-95025000D02*
X156250000Y-95575000D01*
G75*
G02*
X156100000Y-95725000I-150000J0D01*
G01*
X154600000Y-95725000D01*
G75*
G02*
X154450000Y-95575000I0J150000D01*
G01*
X154450000Y-95025000D01*
G75*
G02*
X154600000Y-94875000I150000J0D01*
G01*
X156100000Y-94875000D01*
G75*
G02*
X156250000Y-95025000I0J-150000D01*
G01*
G37*
G36*
G01*
X156250000Y-95825000D02*
X156250000Y-96375000D01*
G75*
G02*
X156100000Y-96525000I-150000J0D01*
G01*
X154600000Y-96525000D01*
G75*
G02*
X154450000Y-96375000I0J150000D01*
G01*
X154450000Y-95825000D01*
G75*
G02*
X154600000Y-95675000I150000J0D01*
G01*
X156100000Y-95675000D01*
G75*
G02*
X156250000Y-95825000I0J-150000D01*
G01*
G37*
G36*
G01*
X156250000Y-96625000D02*
X156250000Y-97175000D01*
G75*
G02*
X156100000Y-97325000I-150000J0D01*
G01*
X154600000Y-97325000D01*
G75*
G02*
X154450000Y-97175000I0J150000D01*
G01*
X154450000Y-96625000D01*
G75*
G02*
X154600000Y-96475000I150000J0D01*
G01*
X156100000Y-96475000D01*
G75*
G02*
X156250000Y-96625000I0J-150000D01*
G01*
G37*
G36*
G01*
X156250000Y-97425000D02*
X156250000Y-97975000D01*
G75*
G02*
X156100000Y-98125000I-150000J0D01*
G01*
X154600000Y-98125000D01*
G75*
G02*
X154450000Y-97975000I0J150000D01*
G01*
X154450000Y-97425000D01*
G75*
G02*
X154600000Y-97275000I150000J0D01*
G01*
X156100000Y-97275000D01*
G75*
G02*
X156250000Y-97425000I0J-150000D01*
G01*
G37*
G36*
G01*
X156250000Y-98225000D02*
X156250000Y-98775000D01*
G75*
G02*
X156100000Y-98925000I-150000J0D01*
G01*
X154600000Y-98925000D01*
G75*
G02*
X154450000Y-98775000I0J150000D01*
G01*
X154450000Y-98225000D01*
G75*
G02*
X154600000Y-98075000I150000J0D01*
G01*
X156100000Y-98075000D01*
G75*
G02*
X156250000Y-98225000I0J-150000D01*
G01*
G37*
G36*
G01*
X156250000Y-99025000D02*
X156250000Y-99575000D01*
G75*
G02*
X156100000Y-99725000I-150000J0D01*
G01*
X154600000Y-99725000D01*
G75*
G02*
X154450000Y-99575000I0J150000D01*
G01*
X154450000Y-99025000D01*
G75*
G02*
X154600000Y-98875000I150000J0D01*
G01*
X156100000Y-98875000D01*
G75*
G02*
X156250000Y-99025000I0J-150000D01*
G01*
G37*
G36*
G01*
X156250000Y-99825000D02*
X156250000Y-100375000D01*
G75*
G02*
X156100000Y-100525000I-150000J0D01*
G01*
X154600000Y-100525000D01*
G75*
G02*
X154450000Y-100375000I0J150000D01*
G01*
X154450000Y-99825000D01*
G75*
G02*
X154600000Y-99675000I150000J0D01*
G01*
X156100000Y-99675000D01*
G75*
G02*
X156250000Y-99825000I0J-150000D01*
G01*
G37*
G36*
G01*
X156250000Y-100625000D02*
X156250000Y-101175000D01*
G75*
G02*
X156100000Y-101325000I-150000J0D01*
G01*
X154600000Y-101325000D01*
G75*
G02*
X154450000Y-101175000I0J150000D01*
G01*
X154450000Y-100625000D01*
G75*
G02*
X154600000Y-100475000I150000J0D01*
G01*
X156100000Y-100475000D01*
G75*
G02*
X156250000Y-100625000I0J-150000D01*
G01*
G37*
G36*
G01*
X156250000Y-101425000D02*
X156250000Y-101975000D01*
G75*
G02*
X156100000Y-102125000I-150000J0D01*
G01*
X154600000Y-102125000D01*
G75*
G02*
X154450000Y-101975000I0J150000D01*
G01*
X154450000Y-101425000D01*
G75*
G02*
X154600000Y-101275000I150000J0D01*
G01*
X156100000Y-101275000D01*
G75*
G02*
X156250000Y-101425000I0J-150000D01*
G01*
G37*
G36*
G01*
X153925000Y-104300000D02*
X153375000Y-104300000D01*
G75*
G02*
X153225000Y-104150000I0J150000D01*
G01*
X153225000Y-102650000D01*
G75*
G02*
X153375000Y-102500000I150000J0D01*
G01*
X153925000Y-102500000D01*
G75*
G02*
X154075000Y-102650000I0J-150000D01*
G01*
X154075000Y-104150000D01*
G75*
G02*
X153925000Y-104300000I-150000J0D01*
G01*
G37*
G36*
G01*
X153125000Y-104300000D02*
X152575000Y-104300000D01*
G75*
G02*
X152425000Y-104150000I0J150000D01*
G01*
X152425000Y-102650000D01*
G75*
G02*
X152575000Y-102500000I150000J0D01*
G01*
X153125000Y-102500000D01*
G75*
G02*
X153275000Y-102650000I0J-150000D01*
G01*
X153275000Y-104150000D01*
G75*
G02*
X153125000Y-104300000I-150000J0D01*
G01*
G37*
G36*
G01*
X152325000Y-104300000D02*
X151775000Y-104300000D01*
G75*
G02*
X151625000Y-104150000I0J150000D01*
G01*
X151625000Y-102650000D01*
G75*
G02*
X151775000Y-102500000I150000J0D01*
G01*
X152325000Y-102500000D01*
G75*
G02*
X152475000Y-102650000I0J-150000D01*
G01*
X152475000Y-104150000D01*
G75*
G02*
X152325000Y-104300000I-150000J0D01*
G01*
G37*
G36*
G01*
X151525000Y-104300000D02*
X150975000Y-104300000D01*
G75*
G02*
X150825000Y-104150000I0J150000D01*
G01*
X150825000Y-102650000D01*
G75*
G02*
X150975000Y-102500000I150000J0D01*
G01*
X151525000Y-102500000D01*
G75*
G02*
X151675000Y-102650000I0J-150000D01*
G01*
X151675000Y-104150000D01*
G75*
G02*
X151525000Y-104300000I-150000J0D01*
G01*
G37*
G36*
G01*
X150725000Y-104300000D02*
X150175000Y-104300000D01*
G75*
G02*
X150025000Y-104150000I0J150000D01*
G01*
X150025000Y-102650000D01*
G75*
G02*
X150175000Y-102500000I150000J0D01*
G01*
X150725000Y-102500000D01*
G75*
G02*
X150875000Y-102650000I0J-150000D01*
G01*
X150875000Y-104150000D01*
G75*
G02*
X150725000Y-104300000I-150000J0D01*
G01*
G37*
G36*
G01*
X149925000Y-104300000D02*
X149375000Y-104300000D01*
G75*
G02*
X149225000Y-104150000I0J150000D01*
G01*
X149225000Y-102650000D01*
G75*
G02*
X149375000Y-102500000I150000J0D01*
G01*
X149925000Y-102500000D01*
G75*
G02*
X150075000Y-102650000I0J-150000D01*
G01*
X150075000Y-104150000D01*
G75*
G02*
X149925000Y-104300000I-150000J0D01*
G01*
G37*
G36*
G01*
X149125000Y-104300000D02*
X148575000Y-104300000D01*
G75*
G02*
X148425000Y-104150000I0J150000D01*
G01*
X148425000Y-102650000D01*
G75*
G02*
X148575000Y-102500000I150000J0D01*
G01*
X149125000Y-102500000D01*
G75*
G02*
X149275000Y-102650000I0J-150000D01*
G01*
X149275000Y-104150000D01*
G75*
G02*
X149125000Y-104300000I-150000J0D01*
G01*
G37*
G36*
G01*
X148325000Y-104300000D02*
X147775000Y-104300000D01*
G75*
G02*
X147625000Y-104150000I0J150000D01*
G01*
X147625000Y-102650000D01*
G75*
G02*
X147775000Y-102500000I150000J0D01*
G01*
X148325000Y-102500000D01*
G75*
G02*
X148475000Y-102650000I0J-150000D01*
G01*
X148475000Y-104150000D01*
G75*
G02*
X148325000Y-104300000I-150000J0D01*
G01*
G37*
G36*
G01*
X147525000Y-104300000D02*
X146975000Y-104300000D01*
G75*
G02*
X146825000Y-104150000I0J150000D01*
G01*
X146825000Y-102650000D01*
G75*
G02*
X146975000Y-102500000I150000J0D01*
G01*
X147525000Y-102500000D01*
G75*
G02*
X147675000Y-102650000I0J-150000D01*
G01*
X147675000Y-104150000D01*
G75*
G02*
X147525000Y-104300000I-150000J0D01*
G01*
G37*
G36*
G01*
X146725000Y-104300000D02*
X146175000Y-104300000D01*
G75*
G02*
X146025000Y-104150000I0J150000D01*
G01*
X146025000Y-102650000D01*
G75*
G02*
X146175000Y-102500000I150000J0D01*
G01*
X146725000Y-102500000D01*
G75*
G02*
X146875000Y-102650000I0J-150000D01*
G01*
X146875000Y-104150000D01*
G75*
G02*
X146725000Y-104300000I-150000J0D01*
G01*
G37*
G36*
G01*
X145925000Y-104300000D02*
X145375000Y-104300000D01*
G75*
G02*
X145225000Y-104150000I0J150000D01*
G01*
X145225000Y-102650000D01*
G75*
G02*
X145375000Y-102500000I150000J0D01*
G01*
X145925000Y-102500000D01*
G75*
G02*
X146075000Y-102650000I0J-150000D01*
G01*
X146075000Y-104150000D01*
G75*
G02*
X145925000Y-104300000I-150000J0D01*
G01*
G37*
%TD*%
%TO.C,JTAG Port*%
G36*
G01*
X195160000Y-90460000D02*
X196860000Y-90460000D01*
G75*
G02*
X197010000Y-90610000I0J-150000D01*
G01*
X197010000Y-92310000D01*
G75*
G02*
X196860000Y-92460000I-150000J0D01*
G01*
X195160000Y-92460000D01*
G75*
G02*
X195010000Y-92310000I0J150000D01*
G01*
X195010000Y-90610000D01*
G75*
G02*
X195160000Y-90460000I150000J0D01*
G01*
G37*
X193470000Y-91460000D03*
X190930000Y-91460000D03*
X188390000Y-91460000D03*
X185850000Y-91460000D03*
X183310000Y-91460000D03*
%TD*%
D13*
G36*
X138366990Y-84929804D02*
G01*
X138376097Y-85022273D01*
X138403014Y-85111006D01*
X138446723Y-85192780D01*
X138505545Y-85264455D01*
X138577220Y-85323277D01*
X138658994Y-85366986D01*
X138747727Y-85393903D01*
X138840196Y-85403010D01*
X138841822Y-85404175D01*
X138841626Y-85406165D01*
X138840000Y-85407000D01*
X138783640Y-85407000D01*
X138783444Y-85406990D01*
X138696951Y-85398471D01*
X138696566Y-85398395D01*
X138619289Y-85374953D01*
X138618927Y-85374803D01*
X138547722Y-85336743D01*
X138547396Y-85336525D01*
X138484977Y-85285300D01*
X138484700Y-85285023D01*
X138433475Y-85222604D01*
X138433257Y-85222278D01*
X138395197Y-85151073D01*
X138395047Y-85150711D01*
X138371605Y-85073434D01*
X138371529Y-85073049D01*
X138363010Y-84986556D01*
X138363000Y-84986360D01*
X138363000Y-84930000D01*
X138364000Y-84928268D01*
X138366000Y-84928268D01*
X138366990Y-84929804D01*
G37*
G36*
X140266165Y-84928374D02*
G01*
X140267000Y-84930000D01*
X140267000Y-84986360D01*
X140266990Y-84986556D01*
X140258471Y-85073049D01*
X140258395Y-85073434D01*
X140234953Y-85150711D01*
X140234803Y-85151073D01*
X140196743Y-85222278D01*
X140196525Y-85222604D01*
X140145300Y-85285023D01*
X140145023Y-85285300D01*
X140082604Y-85336525D01*
X140082278Y-85336743D01*
X140011073Y-85374803D01*
X140010711Y-85374953D01*
X139933434Y-85398395D01*
X139933049Y-85398471D01*
X139846556Y-85406990D01*
X139846360Y-85407000D01*
X139790000Y-85407000D01*
X139788268Y-85406000D01*
X139788268Y-85404000D01*
X139789804Y-85403010D01*
X139882273Y-85393903D01*
X139971006Y-85366986D01*
X140052780Y-85323277D01*
X140124455Y-85264455D01*
X140183277Y-85192780D01*
X140226986Y-85111006D01*
X140253903Y-85022273D01*
X140263010Y-84929804D01*
X140264175Y-84928178D01*
X140266165Y-84928374D01*
G37*
G36*
X138841732Y-83504000D02*
G01*
X138841732Y-83506000D01*
X138840196Y-83506990D01*
X138747727Y-83516097D01*
X138658994Y-83543014D01*
X138577220Y-83586723D01*
X138505545Y-83645545D01*
X138446723Y-83717220D01*
X138403014Y-83798994D01*
X138376097Y-83887727D01*
X138366990Y-83980196D01*
X138365825Y-83981822D01*
X138363835Y-83981626D01*
X138363000Y-83980000D01*
X138363000Y-83923640D01*
X138363010Y-83923444D01*
X138371529Y-83836951D01*
X138371605Y-83836566D01*
X138395047Y-83759289D01*
X138395197Y-83758927D01*
X138433257Y-83687722D01*
X138433475Y-83687396D01*
X138484700Y-83624977D01*
X138484977Y-83624700D01*
X138547396Y-83573475D01*
X138547722Y-83573257D01*
X138618927Y-83535197D01*
X138619289Y-83535047D01*
X138696566Y-83511605D01*
X138696951Y-83511529D01*
X138783444Y-83503010D01*
X138783640Y-83503000D01*
X138840000Y-83503000D01*
X138841732Y-83504000D01*
G37*
G36*
X139846556Y-83503010D02*
G01*
X139933049Y-83511529D01*
X139933434Y-83511605D01*
X140010711Y-83535047D01*
X140011073Y-83535197D01*
X140082278Y-83573257D01*
X140082604Y-83573475D01*
X140145023Y-83624700D01*
X140145300Y-83624977D01*
X140196525Y-83687396D01*
X140196743Y-83687722D01*
X140234803Y-83758927D01*
X140234953Y-83759289D01*
X140258395Y-83836566D01*
X140258471Y-83836951D01*
X140266990Y-83923444D01*
X140267000Y-83923640D01*
X140267000Y-83980000D01*
X140266000Y-83981732D01*
X140264000Y-83981732D01*
X140263010Y-83980196D01*
X140253903Y-83887727D01*
X140226986Y-83798994D01*
X140183277Y-83717220D01*
X140124455Y-83645545D01*
X140052780Y-83586723D01*
X139971006Y-83543014D01*
X139882273Y-83516097D01*
X139789804Y-83506990D01*
X139788178Y-83505825D01*
X139788374Y-83503835D01*
X139790000Y-83503000D01*
X139846360Y-83503000D01*
X139846556Y-83503010D01*
G37*
M02*
