%TF.GenerationSoftware,KiCad,Pcbnew,5.1.10-88a1d61d58~88~ubuntu18.04.1*%
%TF.CreationDate,2021-09-18T16:02:56+02:00*%
%TF.ProjectId,RGBtoHDMI Amiga Denise DIP CPLD Rev 1.1,52474274-6f48-4444-9d49-20416d696761,rev?*%
%TF.SameCoordinates,Original*%
%TF.FileFunction,Paste,Top*%
%TF.FilePolarity,Positive*%
%FSLAX46Y46*%
G04 Gerber Fmt 4.6, Leading zero omitted, Abs format (unit mm)*
G04 Created by KiCad (PCBNEW 5.1.10-88a1d61d58~88~ubuntu18.04.1) date 2021-09-18 16:02:56*
%MOMM*%
%LPD*%
G01*
G04 APERTURE LIST*
%ADD10R,1.500000X0.550000*%
%ADD11R,0.550000X1.500000*%
G04 APERTURE END LIST*
D10*
%TO.C,U1*%
X143950000Y-101700000D03*
X143950000Y-100900000D03*
X143950000Y-100100000D03*
X143950000Y-99300000D03*
X143950000Y-98500000D03*
X143950000Y-97700000D03*
X143950000Y-96900000D03*
X143950000Y-96100000D03*
X143950000Y-95300000D03*
X143950000Y-94500000D03*
X143950000Y-93700000D03*
D11*
X145650000Y-92000000D03*
X146450000Y-92000000D03*
X147250000Y-92000000D03*
X148050000Y-92000000D03*
X148850000Y-92000000D03*
X149650000Y-92000000D03*
X150450000Y-92000000D03*
X151250000Y-92000000D03*
X152050000Y-92000000D03*
X152850000Y-92000000D03*
X153650000Y-92000000D03*
D10*
X155350000Y-93700000D03*
X155350000Y-94500000D03*
X155350000Y-95300000D03*
X155350000Y-96100000D03*
X155350000Y-96900000D03*
X155350000Y-97700000D03*
X155350000Y-98500000D03*
X155350000Y-99300000D03*
X155350000Y-100100000D03*
X155350000Y-100900000D03*
X155350000Y-101700000D03*
D11*
X153650000Y-103400000D03*
X152850000Y-103400000D03*
X152050000Y-103400000D03*
X151250000Y-103400000D03*
X150450000Y-103400000D03*
X149650000Y-103400000D03*
X148850000Y-103400000D03*
X148050000Y-103400000D03*
X147250000Y-103400000D03*
X146450000Y-103400000D03*
X145650000Y-103400000D03*
%TD*%
M02*
