M48
; DRILL file {KiCad 5.1.10-88a1d61d58~88~ubuntu18.04.1} date Sat Sep 18 16:03:00 2021
; FORMAT={-:-/ absolute / inch / decimal}
; #@! TF.CreationDate,2021-09-18T16:03:00+02:00
; #@! TF.GenerationSoftware,Kicad,Pcbnew,5.1.10-88a1d61d58~88~ubuntu18.04.1
; #@! TF.FileFunction,Plated,1,2,PTH
FMAT,2
INCH
T1C0.0157
T2C0.0394
T3C0.0535
%
G90
G05
T1
X3.4161Y-3.8374
X3.576Y-3.8382
X3.6441Y-3.4331
X3.7555Y-3.4299
X3.8007Y-3.6634
X3.8907Y-3.7413
X4.152Y-3.6358
X5.573Y-3.8413
X5.6575Y-3.6031
X5.6994Y-4.0422
X5.7453Y-3.926
X5.7629Y-3.5688
X5.7657Y-4.0173
X5.7723Y-3.7791
X5.7819Y-3.8697
X5.8016Y-3.4862
X5.8029Y-3.5688
X5.8098Y-3.8419
X5.8118Y-3.7358
X5.8504Y-3.6882
X5.8843Y-3.5205
X5.8902Y-3.9031
X5.9226Y-4.0171
X5.9274Y-3.8829
X5.95Y-3.7606
X5.972Y-3.3183
X5.9743Y-3.7011
X6.0244Y-3.7402
X6.0295Y-4.0083
X6.059Y-3.8997
X6.0598Y-3.8394
X6.0858Y-4.0563
X6.1059Y-3.5803
X6.135Y-4.0547
X6.1442Y-3.2552
X6.1677Y-3.7833
X6.2134Y-3.6409
X6.235Y-3.5921
X6.3486Y-3.5533
X6.3975Y-3.5538
X6.461Y-3.5528
X6.5091Y-3.561
X6.6327Y-3.6169
X6.6602Y-3.5831
X6.6836Y-3.6177
X6.713Y-3.5555
X6.9012Y-3.5854
X7.0622Y-3.4114
X7.4976Y-3.2929
X7.5913Y-3.2846
X7.665Y-3.2713
X7.7449Y-3.2622
T2
X5.913Y-3.3606
X5.913Y-3.4606
X6.013Y-3.3606
X6.013Y-3.4606
X6.113Y-3.3606
X6.113Y-3.4606
X6.213Y-3.3606
X6.213Y-3.4606
X6.313Y-3.3606
X6.313Y-3.4606
X6.413Y-3.3606
X6.413Y-3.4606
X6.513Y-3.3606
X6.513Y-3.4606
X6.613Y-3.3606
X6.613Y-3.4606
X6.713Y-3.3606
X6.713Y-3.4606
X6.813Y-3.3606
X6.813Y-3.4606
X6.913Y-3.3606
X6.913Y-3.4606
X7.013Y-3.3606
X7.013Y-3.4606
X7.113Y-3.3606
X7.113Y-3.4606
X7.213Y-3.3606
X7.213Y-3.4606
X7.2169Y-3.6008
X7.313Y-3.3606
X7.313Y-3.4606
X7.3169Y-3.6008
X7.413Y-3.3606
X7.413Y-3.4606
X7.4169Y-3.6008
X7.513Y-3.3606
X7.513Y-3.4606
X7.5169Y-3.6008
X7.613Y-3.3606
X7.613Y-3.4606
X7.6169Y-3.6008
X7.713Y-3.3606
X7.713Y-3.4606
X7.7169Y-3.6008
X7.813Y-3.3606
X7.813Y-3.4606
X7.9941Y-3.3573
X7.9941Y-3.4573
T3
X3.1848Y-3.325
X3.1848Y-3.925
X3.2848Y-3.325
X3.2848Y-3.925
X3.3848Y-3.325
X3.3848Y-3.925
X3.4848Y-3.325
X3.4848Y-3.925
X3.5848Y-3.325
X3.5848Y-3.925
X3.6848Y-3.325
X3.6848Y-3.925
X3.7848Y-3.325
X3.7848Y-3.925
X3.8848Y-3.325
X3.8848Y-3.925
X3.9848Y-3.325
X3.9848Y-3.925
X4.0848Y-3.325
X4.0848Y-3.925
X4.1848Y-3.325
X4.1848Y-3.925
X4.2848Y-3.325
X4.2848Y-3.925
X4.3848Y-3.325
X4.3848Y-3.925
X4.4848Y-3.325
X4.4848Y-3.925
X4.5848Y-3.325
X4.5848Y-3.925
X4.6848Y-3.325
X4.6848Y-3.925
X4.7848Y-3.325
X4.7848Y-3.925
X4.8848Y-3.325
X4.8848Y-3.925
X4.9848Y-3.325
X4.9848Y-3.925
X5.0848Y-3.325
X5.0848Y-3.925
X5.1848Y-3.325
X5.1848Y-3.925
X5.2848Y-3.325
X5.2848Y-3.925
X5.3848Y-3.325
X5.3848Y-3.925
X5.4848Y-3.325
X5.4848Y-3.925
T0
M30
