%FSLAX45Y45*%
G04 Gerber Fmt 4.5, Leading zero omitted, Abs format (unit mm)*
G04 Created by KiCad (PCBNEW 5.1.10-88a1d61d58~88~ubuntu18.04.1) date 2021-09-18 16:03:00*
%MOMM*%
%LPD*%
G01*
G04 APERTURE LIST*
%TA.AperFunction,Profile*%
%ADD10C,0.050000*%
%TD*%
%ADD11C,0.200000*%
%ADD12C,0.300000*%
G04 APERTURE END LIST*
D10*
X15540000Y-10537000D02*
X15949000Y-10128000D01*
X15949000Y-9839000D02*
X16196000Y-9592000D01*
X15949000Y-10128000D02*
X15949000Y-9839000D01*
X19352000Y-9592000D02*
X16196000Y-9592000D01*
X19701000Y-9941000D02*
X19352000Y-9592000D01*
X20742000Y-8591000D02*
X20742000Y-8214000D01*
X20669000Y-9311000D02*
X20669000Y-8664000D01*
X20742000Y-9384000D02*
X20669000Y-9311000D01*
X20742000Y-8591000D02*
X20669000Y-8664000D01*
X7780000Y-8781000D02*
X7780000Y-9428000D01*
X7707000Y-8215000D02*
X7707000Y-8708000D01*
X7707000Y-8708000D02*
X7780000Y-8781000D01*
X7707000Y-9501000D02*
X7780000Y-9428000D01*
X20559000Y-8031000D02*
X20742000Y-8214000D01*
X20558000Y-9941000D02*
X20742000Y-9757000D01*
X7889000Y-10176000D02*
X7707000Y-9994000D01*
X14453000Y-10537000D02*
X15540000Y-10537000D01*
X14092000Y-10176000D02*
X14453000Y-10537000D01*
X7891000Y-8031000D02*
X7707000Y-8215000D01*
X7889000Y-10176000D02*
X14092000Y-10176000D01*
X7707000Y-9501000D02*
X7707000Y-9994000D01*
X20558000Y-9941000D02*
X19701000Y-9941000D01*
X20742000Y-9384000D02*
X20742000Y-9757000D01*
X7891000Y-8031000D02*
X20559000Y-8031000D01*
D11*
X8657000Y-9727000D02*
X8697000Y-9767000D01*
X8697000Y-9727000D02*
X8657000Y-9767000D01*
X9063000Y-9729000D02*
X9103000Y-9769000D01*
X9103000Y-9729000D02*
X9063000Y-9769000D01*
X9236000Y-8700000D02*
X9276000Y-8740000D01*
X9276000Y-8700000D02*
X9236000Y-8740000D01*
X9519000Y-8692000D02*
X9559000Y-8732000D01*
X9559000Y-8692000D02*
X9519000Y-8732000D01*
X9633660Y-9285030D02*
X9673660Y-9325030D01*
X9673660Y-9285030D02*
X9633660Y-9325030D01*
X9862450Y-9482998D02*
X9902450Y-9522998D01*
X9902450Y-9482998D02*
X9862450Y-9522998D01*
X10526000Y-9214998D02*
X10566000Y-9254998D01*
X10566000Y-9214998D02*
X10526000Y-9254998D01*
X14135538Y-9736972D02*
X14175538Y-9776972D01*
X14175538Y-9736972D02*
X14135538Y-9776972D01*
X14350000Y-9132000D02*
X14390000Y-9172000D01*
X14390000Y-9132000D02*
X14350000Y-9172000D01*
X14456520Y-10247280D02*
X14496520Y-10287280D01*
X14496520Y-10247280D02*
X14456520Y-10287280D01*
X14573000Y-9952000D02*
X14613000Y-9992000D01*
X14613000Y-9952000D02*
X14573000Y-9992000D01*
X14617820Y-9044760D02*
X14657820Y-9084760D01*
X14657820Y-9044760D02*
X14617820Y-9084760D01*
X14625000Y-10183999D02*
X14665000Y-10223999D01*
X14665000Y-10183999D02*
X14625000Y-10223999D01*
X14641590Y-9578900D02*
X14681590Y-9618900D01*
X14681590Y-9578900D02*
X14641590Y-9618900D01*
X14666070Y-9809120D02*
X14706070Y-9849120D01*
X14706070Y-9809120D02*
X14666070Y-9849120D01*
X14716000Y-8835000D02*
X14756000Y-8875000D01*
X14756000Y-8835000D02*
X14716000Y-8875000D01*
X14719310Y-9044670D02*
X14759310Y-9084670D01*
X14759310Y-9044670D02*
X14719310Y-9084670D01*
X14736800Y-9738380D02*
X14776800Y-9778380D01*
X14776800Y-9738380D02*
X14736800Y-9778380D01*
X14742000Y-9469000D02*
X14782000Y-9509000D01*
X14782000Y-9469000D02*
X14742000Y-9509000D01*
X14840000Y-9348000D02*
X14880000Y-9388000D01*
X14880000Y-9348000D02*
X14840000Y-9388000D01*
X14926000Y-8922000D02*
X14966000Y-8962000D01*
X14966000Y-8922000D02*
X14926000Y-8962000D01*
X14941000Y-9894000D02*
X14981000Y-9934000D01*
X14981000Y-9894000D02*
X14941000Y-9934000D01*
X15023500Y-10183500D02*
X15063500Y-10223500D01*
X15063500Y-10183500D02*
X15023500Y-10223500D01*
X15035502Y-9842499D02*
X15075502Y-9882499D01*
X15075502Y-9842499D02*
X15035502Y-9882499D01*
X15092967Y-9531994D02*
X15132967Y-9571994D01*
X15132967Y-9531994D02*
X15092967Y-9571994D01*
X15148810Y-8408520D02*
X15188810Y-8448520D01*
X15188810Y-8408520D02*
X15148810Y-8448520D01*
X15154640Y-9380850D02*
X15194640Y-9420850D01*
X15194640Y-9380850D02*
X15154640Y-9420850D01*
X15282000Y-9480000D02*
X15322000Y-9520000D01*
X15322000Y-9480000D02*
X15282000Y-9520000D01*
X15295000Y-10161004D02*
X15335000Y-10201004D01*
X15335000Y-10161004D02*
X15295000Y-10201004D01*
X15369780Y-9885210D02*
X15409780Y-9925210D01*
X15409780Y-9885210D02*
X15369780Y-9925210D01*
X15371790Y-9732180D02*
X15411790Y-9772180D01*
X15411790Y-9732180D02*
X15371790Y-9772180D01*
X15438002Y-10282999D02*
X15478002Y-10322999D01*
X15478002Y-10282999D02*
X15438002Y-10322999D01*
X15489000Y-9074000D02*
X15529000Y-9114000D01*
X15529000Y-9074000D02*
X15489000Y-9114000D01*
X15563000Y-10279000D02*
X15603000Y-10319000D01*
X15603000Y-10279000D02*
X15563000Y-10319000D01*
X15586390Y-8248130D02*
X15626390Y-8288130D01*
X15626390Y-8248130D02*
X15586390Y-8288130D01*
X15645928Y-9589684D02*
X15685928Y-9629684D01*
X15685928Y-9589684D02*
X15645928Y-9629684D01*
X15762000Y-9228000D02*
X15802000Y-9268000D01*
X15802000Y-9228000D02*
X15762000Y-9268000D01*
X15816999Y-9104000D02*
X15856999Y-9144000D01*
X15856999Y-9104000D02*
X15816999Y-9144000D01*
X16105500Y-9005500D02*
X16145500Y-9045500D01*
X16145500Y-9005500D02*
X16105500Y-9045500D01*
X16229715Y-9006715D02*
X16269715Y-9046715D01*
X16269715Y-9006715D02*
X16229715Y-9046715D01*
X16391000Y-9004000D02*
X16431000Y-9044000D01*
X16431000Y-9004000D02*
X16391000Y-9044000D01*
X16513001Y-9024992D02*
X16553001Y-9064992D01*
X16553001Y-9024992D02*
X16513001Y-9064992D01*
X16827001Y-9167000D02*
X16867001Y-9207000D01*
X16867001Y-9167000D02*
X16827001Y-9207000D01*
X16897001Y-9081000D02*
X16937001Y-9121000D01*
X16937001Y-9081000D02*
X16897001Y-9121000D01*
X16956410Y-9168924D02*
X16996410Y-9208924D01*
X16996410Y-9168924D02*
X16956410Y-9208924D01*
X17031000Y-9010999D02*
X17071000Y-9050999D01*
X17071000Y-9010999D02*
X17031000Y-9050999D01*
X17509000Y-9087000D02*
X17549000Y-9127000D01*
X17549000Y-9087000D02*
X17509000Y-9127000D01*
X17918000Y-8645000D02*
X17958000Y-8685000D01*
X17958000Y-8645000D02*
X17918000Y-8685000D01*
X19024000Y-8344000D02*
X19064000Y-8384000D01*
X19064000Y-8344000D02*
X19024000Y-8384000D01*
X19262000Y-8323000D02*
X19302000Y-8363000D01*
X19302000Y-8323000D02*
X19262000Y-8363000D01*
X19449000Y-8289000D02*
X19489000Y-8329000D01*
X19489000Y-8289000D02*
X19449000Y-8329000D01*
X19652000Y-8266000D02*
X19692000Y-8306000D01*
X19692000Y-8266000D02*
X19652000Y-8306000D01*
X15069000Y-8536000D02*
G75*
G03*
X15069000Y-8536000I-50000J0D01*
G01*
X15069000Y-8790000D02*
G75*
G03*
X15069000Y-8790000I-50000J0D01*
G01*
X15323000Y-8536000D02*
G75*
G03*
X15323000Y-8536000I-50000J0D01*
G01*
X15323000Y-8790000D02*
G75*
G03*
X15323000Y-8790000I-50000J0D01*
G01*
X15577000Y-8536000D02*
G75*
G03*
X15577000Y-8536000I-50000J0D01*
G01*
X15577000Y-8790000D02*
G75*
G03*
X15577000Y-8790000I-50000J0D01*
G01*
X15831000Y-8536000D02*
G75*
G03*
X15831000Y-8536000I-50000J0D01*
G01*
X15831000Y-8790000D02*
G75*
G03*
X15831000Y-8790000I-50000J0D01*
G01*
X16085000Y-8536000D02*
G75*
G03*
X16085000Y-8536000I-50000J0D01*
G01*
X16085000Y-8790000D02*
G75*
G03*
X16085000Y-8790000I-50000J0D01*
G01*
X16339000Y-8536000D02*
G75*
G03*
X16339000Y-8536000I-50000J0D01*
G01*
X16339000Y-8790000D02*
G75*
G03*
X16339000Y-8790000I-50000J0D01*
G01*
X16593000Y-8536000D02*
G75*
G03*
X16593000Y-8536000I-50000J0D01*
G01*
X16593000Y-8790000D02*
G75*
G03*
X16593000Y-8790000I-50000J0D01*
G01*
X16847000Y-8536000D02*
G75*
G03*
X16847000Y-8536000I-50000J0D01*
G01*
X16847000Y-8790000D02*
G75*
G03*
X16847000Y-8790000I-50000J0D01*
G01*
X17101000Y-8536000D02*
G75*
G03*
X17101000Y-8536000I-50000J0D01*
G01*
X17101000Y-8790000D02*
G75*
G03*
X17101000Y-8790000I-50000J0D01*
G01*
X17355000Y-8536000D02*
G75*
G03*
X17355000Y-8536000I-50000J0D01*
G01*
X17355000Y-8790000D02*
G75*
G03*
X17355000Y-8790000I-50000J0D01*
G01*
X17609000Y-8536000D02*
G75*
G03*
X17609000Y-8536000I-50000J0D01*
G01*
X17609000Y-8790000D02*
G75*
G03*
X17609000Y-8790000I-50000J0D01*
G01*
X17863000Y-8536000D02*
G75*
G03*
X17863000Y-8536000I-50000J0D01*
G01*
X17863000Y-8790000D02*
G75*
G03*
X17863000Y-8790000I-50000J0D01*
G01*
X18117000Y-8536000D02*
G75*
G03*
X18117000Y-8536000I-50000J0D01*
G01*
X18117000Y-8790000D02*
G75*
G03*
X18117000Y-8790000I-50000J0D01*
G01*
X18371000Y-8536000D02*
G75*
G03*
X18371000Y-8536000I-50000J0D01*
G01*
X18371000Y-8790000D02*
G75*
G03*
X18371000Y-8790000I-50000J0D01*
G01*
X18381000Y-9146000D02*
G75*
G03*
X18381000Y-9146000I-50000J0D01*
G01*
X18625000Y-8536000D02*
G75*
G03*
X18625000Y-8536000I-50000J0D01*
G01*
X18625000Y-8790000D02*
G75*
G03*
X18625000Y-8790000I-50000J0D01*
G01*
X18635000Y-9146000D02*
G75*
G03*
X18635000Y-9146000I-50000J0D01*
G01*
X18879000Y-8536000D02*
G75*
G03*
X18879000Y-8536000I-50000J0D01*
G01*
X18879000Y-8790000D02*
G75*
G03*
X18879000Y-8790000I-50000J0D01*
G01*
X18889000Y-9146000D02*
G75*
G03*
X18889000Y-9146000I-50000J0D01*
G01*
X19133000Y-8536000D02*
G75*
G03*
X19133000Y-8536000I-50000J0D01*
G01*
X19133000Y-8790000D02*
G75*
G03*
X19133000Y-8790000I-50000J0D01*
G01*
X19143000Y-9146000D02*
G75*
G03*
X19143000Y-9146000I-50000J0D01*
G01*
X19387000Y-8536000D02*
G75*
G03*
X19387000Y-8536000I-50000J0D01*
G01*
X19387000Y-8790000D02*
G75*
G03*
X19387000Y-8790000I-50000J0D01*
G01*
X19397000Y-9146000D02*
G75*
G03*
X19397000Y-9146000I-50000J0D01*
G01*
X19641000Y-8536000D02*
G75*
G03*
X19641000Y-8536000I-50000J0D01*
G01*
X19641000Y-8790000D02*
G75*
G03*
X19641000Y-8790000I-50000J0D01*
G01*
X19651000Y-9146000D02*
G75*
G03*
X19651000Y-9146000I-50000J0D01*
G01*
X19895000Y-8536000D02*
G75*
G03*
X19895000Y-8536000I-50000J0D01*
G01*
X19895000Y-8790000D02*
G75*
G03*
X19895000Y-8790000I-50000J0D01*
G01*
X20355000Y-8527500D02*
G75*
G03*
X20355000Y-8527500I-50000J0D01*
G01*
X20355000Y-8781500D02*
G75*
G03*
X20355000Y-8781500I-50000J0D01*
G01*
X8089500Y-8377500D02*
X8089500Y-8513500D01*
X8021500Y-8445500D02*
X8157500Y-8445500D01*
X8089500Y-9901500D02*
X8089500Y-10037500D01*
X8021500Y-9969500D02*
X8157500Y-9969500D01*
X8343500Y-8377500D02*
X8343500Y-8513500D01*
X8275500Y-8445500D02*
X8411500Y-8445500D01*
X8343500Y-9901500D02*
X8343500Y-10037500D01*
X8275500Y-9969500D02*
X8411500Y-9969500D01*
X8597500Y-8377500D02*
X8597500Y-8513500D01*
X8529500Y-8445500D02*
X8665500Y-8445500D01*
X8597500Y-9901500D02*
X8597500Y-10037500D01*
X8529500Y-9969500D02*
X8665500Y-9969500D01*
X8851500Y-8377500D02*
X8851500Y-8513500D01*
X8783500Y-8445500D02*
X8919500Y-8445500D01*
X8851500Y-9901500D02*
X8851500Y-10037500D01*
X8783500Y-9969500D02*
X8919500Y-9969500D01*
X9105500Y-8377500D02*
X9105500Y-8513500D01*
X9037500Y-8445500D02*
X9173500Y-8445500D01*
X9105500Y-9901500D02*
X9105500Y-10037500D01*
X9037500Y-9969500D02*
X9173500Y-9969500D01*
X9359500Y-8377500D02*
X9359500Y-8513500D01*
X9291500Y-8445500D02*
X9427500Y-8445500D01*
X9359500Y-9901500D02*
X9359500Y-10037500D01*
X9291500Y-9969500D02*
X9427500Y-9969500D01*
X9613500Y-8377500D02*
X9613500Y-8513500D01*
X9545500Y-8445500D02*
X9681500Y-8445500D01*
X9613500Y-9901500D02*
X9613500Y-10037500D01*
X9545500Y-9969500D02*
X9681500Y-9969500D01*
X9867500Y-8377500D02*
X9867500Y-8513500D01*
X9799500Y-8445500D02*
X9935500Y-8445500D01*
X9867500Y-9901500D02*
X9867500Y-10037500D01*
X9799500Y-9969500D02*
X9935500Y-9969500D01*
X10121500Y-8377500D02*
X10121500Y-8513500D01*
X10053500Y-8445500D02*
X10189500Y-8445500D01*
X10121500Y-9901500D02*
X10121500Y-10037500D01*
X10053500Y-9969500D02*
X10189500Y-9969500D01*
X10375500Y-8377500D02*
X10375500Y-8513500D01*
X10307500Y-8445500D02*
X10443500Y-8445500D01*
X10375500Y-9901500D02*
X10375500Y-10037500D01*
X10307500Y-9969500D02*
X10443500Y-9969500D01*
X10629500Y-8377500D02*
X10629500Y-8513500D01*
X10561500Y-8445500D02*
X10697500Y-8445500D01*
X10629500Y-9901500D02*
X10629500Y-10037500D01*
X10561500Y-9969500D02*
X10697500Y-9969500D01*
X10883500Y-8377500D02*
X10883500Y-8513500D01*
X10815500Y-8445500D02*
X10951500Y-8445500D01*
X10883500Y-9901500D02*
X10883500Y-10037500D01*
X10815500Y-9969500D02*
X10951500Y-9969500D01*
X11137500Y-8377500D02*
X11137500Y-8513500D01*
X11069500Y-8445500D02*
X11205500Y-8445500D01*
X11137500Y-9901500D02*
X11137500Y-10037500D01*
X11069500Y-9969500D02*
X11205500Y-9969500D01*
X11391500Y-8377500D02*
X11391500Y-8513500D01*
X11323500Y-8445500D02*
X11459500Y-8445500D01*
X11391500Y-9901500D02*
X11391500Y-10037500D01*
X11323500Y-9969500D02*
X11459500Y-9969500D01*
X11645500Y-8377500D02*
X11645500Y-8513500D01*
X11577500Y-8445500D02*
X11713500Y-8445500D01*
X11645500Y-9901500D02*
X11645500Y-10037500D01*
X11577500Y-9969500D02*
X11713500Y-9969500D01*
X11899500Y-8377500D02*
X11899500Y-8513500D01*
X11831500Y-8445500D02*
X11967500Y-8445500D01*
X11899500Y-9901500D02*
X11899500Y-10037500D01*
X11831500Y-9969500D02*
X11967500Y-9969500D01*
X12153500Y-8377500D02*
X12153500Y-8513500D01*
X12085500Y-8445500D02*
X12221500Y-8445500D01*
X12153500Y-9901500D02*
X12153500Y-10037500D01*
X12085500Y-9969500D02*
X12221500Y-9969500D01*
X12407500Y-8377500D02*
X12407500Y-8513500D01*
X12339500Y-8445500D02*
X12475500Y-8445500D01*
X12407500Y-9901500D02*
X12407500Y-10037500D01*
X12339500Y-9969500D02*
X12475500Y-9969500D01*
X12661500Y-8377500D02*
X12661500Y-8513500D01*
X12593500Y-8445500D02*
X12729500Y-8445500D01*
X12661500Y-9901500D02*
X12661500Y-10037500D01*
X12593500Y-9969500D02*
X12729500Y-9969500D01*
X12915500Y-8377500D02*
X12915500Y-8513500D01*
X12847500Y-8445500D02*
X12983500Y-8445500D01*
X12915500Y-9901500D02*
X12915500Y-10037500D01*
X12847500Y-9969500D02*
X12983500Y-9969500D01*
X13169500Y-8377500D02*
X13169500Y-8513500D01*
X13101500Y-8445500D02*
X13237500Y-8445500D01*
X13169500Y-9901500D02*
X13169500Y-10037500D01*
X13101500Y-9969500D02*
X13237500Y-9969500D01*
X13423500Y-8377500D02*
X13423500Y-8513500D01*
X13355500Y-8445500D02*
X13491500Y-8445500D01*
X13423500Y-9901500D02*
X13423500Y-10037500D01*
X13355500Y-9969500D02*
X13491500Y-9969500D01*
X13677500Y-8377500D02*
X13677500Y-8513500D01*
X13609500Y-8445500D02*
X13745500Y-8445500D01*
X13677500Y-9901500D02*
X13677500Y-10037500D01*
X13609500Y-9969500D02*
X13745500Y-9969500D01*
X13931500Y-8377500D02*
X13931500Y-8513500D01*
X13863500Y-8445500D02*
X13999500Y-8445500D01*
X13931500Y-9901500D02*
X13931500Y-10037500D01*
X13863500Y-9969500D02*
X13999500Y-9969500D01*
D12*
X7990928Y-11005214D02*
X7990928Y-10705214D01*
X8062357Y-10705214D01*
X8105214Y-10719500D01*
X8133786Y-10748072D01*
X8148071Y-10776643D01*
X8162357Y-10833786D01*
X8162357Y-10876643D01*
X8148071Y-10933786D01*
X8133786Y-10962357D01*
X8105214Y-10990929D01*
X8062357Y-11005214D01*
X7990928Y-11005214D01*
X8290928Y-11005214D02*
X8290928Y-10805214D01*
X8290928Y-10862357D02*
X8305214Y-10833786D01*
X8319500Y-10819500D01*
X8348071Y-10805214D01*
X8376643Y-10805214D01*
X8476643Y-11005214D02*
X8476643Y-10805214D01*
X8476643Y-10705214D02*
X8462357Y-10719500D01*
X8476643Y-10733786D01*
X8490928Y-10719500D01*
X8476643Y-10705214D01*
X8476643Y-10733786D01*
X8662357Y-11005214D02*
X8633786Y-10990929D01*
X8619500Y-10962357D01*
X8619500Y-10705214D01*
X8819500Y-11005214D02*
X8790928Y-10990929D01*
X8776643Y-10962357D01*
X8776643Y-10705214D01*
X9162357Y-11005214D02*
X9162357Y-10705214D01*
X9262357Y-10919500D01*
X9362357Y-10705214D01*
X9362357Y-11005214D01*
X9633786Y-11005214D02*
X9633786Y-10848072D01*
X9619500Y-10819500D01*
X9590928Y-10805214D01*
X9533786Y-10805214D01*
X9505214Y-10819500D01*
X9633786Y-10990929D02*
X9605214Y-11005214D01*
X9533786Y-11005214D01*
X9505214Y-10990929D01*
X9490928Y-10962357D01*
X9490928Y-10933786D01*
X9505214Y-10905214D01*
X9533786Y-10890929D01*
X9605214Y-10890929D01*
X9633786Y-10876643D01*
X9776643Y-10805214D02*
X9776643Y-11105214D01*
X9776643Y-10819500D02*
X9805214Y-10805214D01*
X9862357Y-10805214D01*
X9890928Y-10819500D01*
X9905214Y-10833786D01*
X9919500Y-10862357D01*
X9919500Y-10948072D01*
X9905214Y-10976643D01*
X9890928Y-10990929D01*
X9862357Y-11005214D01*
X9805214Y-11005214D01*
X9776643Y-10990929D01*
X10048071Y-10976643D02*
X10062357Y-10990929D01*
X10048071Y-11005214D01*
X10033786Y-10990929D01*
X10048071Y-10976643D01*
X10048071Y-11005214D01*
X10048071Y-10819500D02*
X10062357Y-10833786D01*
X10048071Y-10848072D01*
X10033786Y-10833786D01*
X10048071Y-10819500D01*
X10048071Y-10848072D01*
X7664500Y-11479500D02*
X7704500Y-11519500D01*
X7704500Y-11479500D02*
X7664500Y-11519500D01*
X8048071Y-11335214D02*
X8076643Y-11335214D01*
X8105214Y-11349500D01*
X8119500Y-11363786D01*
X8133786Y-11392357D01*
X8148071Y-11449500D01*
X8148071Y-11520929D01*
X8133786Y-11578071D01*
X8119500Y-11606643D01*
X8105214Y-11620929D01*
X8076643Y-11635214D01*
X8048071Y-11635214D01*
X8019500Y-11620929D01*
X8005214Y-11606643D01*
X7990928Y-11578071D01*
X7976643Y-11520929D01*
X7976643Y-11449500D01*
X7990928Y-11392357D01*
X8005214Y-11363786D01*
X8019500Y-11349500D01*
X8048071Y-11335214D01*
X8276643Y-11606643D02*
X8290928Y-11620929D01*
X8276643Y-11635214D01*
X8262357Y-11620929D01*
X8276643Y-11606643D01*
X8276643Y-11635214D01*
X8548071Y-11435214D02*
X8548071Y-11635214D01*
X8476643Y-11320929D02*
X8405214Y-11535214D01*
X8590928Y-11535214D01*
X8762357Y-11335214D02*
X8790928Y-11335214D01*
X8819500Y-11349500D01*
X8833786Y-11363786D01*
X8848071Y-11392357D01*
X8862357Y-11449500D01*
X8862357Y-11520929D01*
X8848071Y-11578071D01*
X8833786Y-11606643D01*
X8819500Y-11620929D01*
X8790928Y-11635214D01*
X8762357Y-11635214D01*
X8733786Y-11620929D01*
X8719500Y-11606643D01*
X8705214Y-11578071D01*
X8690928Y-11520929D01*
X8690928Y-11449500D01*
X8705214Y-11392357D01*
X8719500Y-11363786D01*
X8733786Y-11349500D01*
X8762357Y-11335214D01*
X9048071Y-11335214D02*
X9076643Y-11335214D01*
X9105214Y-11349500D01*
X9119500Y-11363786D01*
X9133786Y-11392357D01*
X9148071Y-11449500D01*
X9148071Y-11520929D01*
X9133786Y-11578071D01*
X9119500Y-11606643D01*
X9105214Y-11620929D01*
X9076643Y-11635214D01*
X9048071Y-11635214D01*
X9019500Y-11620929D01*
X9005214Y-11606643D01*
X8990928Y-11578071D01*
X8976643Y-11520929D01*
X8976643Y-11449500D01*
X8990928Y-11392357D01*
X9005214Y-11363786D01*
X9019500Y-11349500D01*
X9048071Y-11335214D01*
X9276643Y-11635214D02*
X9276643Y-11435214D01*
X9276643Y-11463786D02*
X9290928Y-11449500D01*
X9319500Y-11435214D01*
X9362357Y-11435214D01*
X9390928Y-11449500D01*
X9405214Y-11478071D01*
X9405214Y-11635214D01*
X9405214Y-11478071D02*
X9419500Y-11449500D01*
X9448071Y-11435214D01*
X9490928Y-11435214D01*
X9519500Y-11449500D01*
X9533786Y-11478071D01*
X9533786Y-11635214D01*
X9676643Y-11635214D02*
X9676643Y-11435214D01*
X9676643Y-11463786D02*
X9690928Y-11449500D01*
X9719500Y-11435214D01*
X9762357Y-11435214D01*
X9790928Y-11449500D01*
X9805214Y-11478071D01*
X9805214Y-11635214D01*
X9805214Y-11478071D02*
X9819500Y-11449500D01*
X9848071Y-11435214D01*
X9890928Y-11435214D01*
X9919500Y-11449500D01*
X9933786Y-11478071D01*
X9933786Y-11635214D01*
X10519500Y-11320929D02*
X10262357Y-11706643D01*
X10905214Y-11335214D02*
X10933786Y-11335214D01*
X10962357Y-11349500D01*
X10976643Y-11363786D01*
X10990928Y-11392357D01*
X11005214Y-11449500D01*
X11005214Y-11520929D01*
X10990928Y-11578071D01*
X10976643Y-11606643D01*
X10962357Y-11620929D01*
X10933786Y-11635214D01*
X10905214Y-11635214D01*
X10876643Y-11620929D01*
X10862357Y-11606643D01*
X10848071Y-11578071D01*
X10833786Y-11520929D01*
X10833786Y-11449500D01*
X10848071Y-11392357D01*
X10862357Y-11363786D01*
X10876643Y-11349500D01*
X10905214Y-11335214D01*
X11133786Y-11606643D02*
X11148071Y-11620929D01*
X11133786Y-11635214D01*
X11119500Y-11620929D01*
X11133786Y-11606643D01*
X11133786Y-11635214D01*
X11333786Y-11335214D02*
X11362357Y-11335214D01*
X11390928Y-11349500D01*
X11405214Y-11363786D01*
X11419500Y-11392357D01*
X11433786Y-11449500D01*
X11433786Y-11520929D01*
X11419500Y-11578071D01*
X11405214Y-11606643D01*
X11390928Y-11620929D01*
X11362357Y-11635214D01*
X11333786Y-11635214D01*
X11305214Y-11620929D01*
X11290928Y-11606643D01*
X11276643Y-11578071D01*
X11262357Y-11520929D01*
X11262357Y-11449500D01*
X11276643Y-11392357D01*
X11290928Y-11363786D01*
X11305214Y-11349500D01*
X11333786Y-11335214D01*
X11719500Y-11635214D02*
X11548071Y-11635214D01*
X11633786Y-11635214D02*
X11633786Y-11335214D01*
X11605214Y-11378071D01*
X11576643Y-11406643D01*
X11548071Y-11420929D01*
X11990928Y-11335214D02*
X11848071Y-11335214D01*
X11833786Y-11478071D01*
X11848071Y-11463786D01*
X11876643Y-11449500D01*
X11948071Y-11449500D01*
X11976643Y-11463786D01*
X11990928Y-11478071D01*
X12005214Y-11506643D01*
X12005214Y-11578071D01*
X11990928Y-11606643D01*
X11976643Y-11620929D01*
X11948071Y-11635214D01*
X11876643Y-11635214D01*
X11848071Y-11620929D01*
X11833786Y-11606643D01*
X12105214Y-11335214D02*
X12305214Y-11335214D01*
X12176643Y-11635214D01*
X12405214Y-11335214D02*
X12405214Y-11392357D01*
X12519500Y-11335214D02*
X12519500Y-11392357D01*
X12962357Y-11749500D02*
X12948071Y-11735214D01*
X12919500Y-11692357D01*
X12905214Y-11663786D01*
X12890928Y-11620929D01*
X12876643Y-11549500D01*
X12876643Y-11492357D01*
X12890928Y-11420929D01*
X12905214Y-11378071D01*
X12919500Y-11349500D01*
X12948071Y-11306643D01*
X12962357Y-11292357D01*
X13219500Y-11335214D02*
X13076643Y-11335214D01*
X13062357Y-11478071D01*
X13076643Y-11463786D01*
X13105214Y-11449500D01*
X13176643Y-11449500D01*
X13205214Y-11463786D01*
X13219500Y-11478071D01*
X13233786Y-11506643D01*
X13233786Y-11578071D01*
X13219500Y-11606643D01*
X13205214Y-11620929D01*
X13176643Y-11635214D01*
X13105214Y-11635214D01*
X13076643Y-11620929D01*
X13062357Y-11606643D01*
X13348071Y-11363786D02*
X13362357Y-11349500D01*
X13390928Y-11335214D01*
X13462357Y-11335214D01*
X13490928Y-11349500D01*
X13505214Y-11363786D01*
X13519500Y-11392357D01*
X13519500Y-11420929D01*
X13505214Y-11463786D01*
X13333786Y-11635214D01*
X13519500Y-11635214D01*
X13876643Y-11635214D02*
X13876643Y-11335214D01*
X14005214Y-11635214D02*
X14005214Y-11478071D01*
X13990928Y-11449500D01*
X13962357Y-11435214D01*
X13919500Y-11435214D01*
X13890928Y-11449500D01*
X13876643Y-11463786D01*
X14190928Y-11635214D02*
X14162357Y-11620929D01*
X14148071Y-11606643D01*
X14133786Y-11578071D01*
X14133786Y-11492357D01*
X14148071Y-11463786D01*
X14162357Y-11449500D01*
X14190928Y-11435214D01*
X14233786Y-11435214D01*
X14262357Y-11449500D01*
X14276643Y-11463786D01*
X14290928Y-11492357D01*
X14290928Y-11578071D01*
X14276643Y-11606643D01*
X14262357Y-11620929D01*
X14233786Y-11635214D01*
X14190928Y-11635214D01*
X14462357Y-11635214D02*
X14433786Y-11620929D01*
X14419500Y-11592357D01*
X14419500Y-11335214D01*
X14690928Y-11620929D02*
X14662357Y-11635214D01*
X14605214Y-11635214D01*
X14576643Y-11620929D01*
X14562357Y-11592357D01*
X14562357Y-11478071D01*
X14576643Y-11449500D01*
X14605214Y-11435214D01*
X14662357Y-11435214D01*
X14690928Y-11449500D01*
X14705214Y-11478071D01*
X14705214Y-11506643D01*
X14562357Y-11535214D01*
X14819500Y-11620929D02*
X14848071Y-11635214D01*
X14905214Y-11635214D01*
X14933786Y-11620929D01*
X14948071Y-11592357D01*
X14948071Y-11578071D01*
X14933786Y-11549500D01*
X14905214Y-11535214D01*
X14862357Y-11535214D01*
X14833786Y-11520929D01*
X14819500Y-11492357D01*
X14819500Y-11478071D01*
X14833786Y-11449500D01*
X14862357Y-11435214D01*
X14905214Y-11435214D01*
X14933786Y-11449500D01*
X15048071Y-11749500D02*
X15062357Y-11735214D01*
X15090928Y-11692357D01*
X15105214Y-11663786D01*
X15119500Y-11620929D01*
X15133786Y-11549500D01*
X15133786Y-11492357D01*
X15119500Y-11420929D01*
X15105214Y-11378071D01*
X15090928Y-11349500D01*
X15062357Y-11306643D01*
X15048071Y-11292357D01*
X7704500Y-11895500D02*
G75*
G03*
X7704500Y-11895500I-50000J0D01*
G01*
X8148071Y-12031214D02*
X7976643Y-12031214D01*
X8062357Y-12031214D02*
X8062357Y-11731214D01*
X8033786Y-11774071D01*
X8005214Y-11802643D01*
X7976643Y-11816929D01*
X8276643Y-12002643D02*
X8290928Y-12016929D01*
X8276643Y-12031214D01*
X8262357Y-12016929D01*
X8276643Y-12002643D01*
X8276643Y-12031214D01*
X8476643Y-11731214D02*
X8505214Y-11731214D01*
X8533786Y-11745500D01*
X8548071Y-11759786D01*
X8562357Y-11788357D01*
X8576643Y-11845500D01*
X8576643Y-11916929D01*
X8562357Y-11974071D01*
X8548071Y-12002643D01*
X8533786Y-12016929D01*
X8505214Y-12031214D01*
X8476643Y-12031214D01*
X8448071Y-12016929D01*
X8433786Y-12002643D01*
X8419500Y-11974071D01*
X8405214Y-11916929D01*
X8405214Y-11845500D01*
X8419500Y-11788357D01*
X8433786Y-11759786D01*
X8448071Y-11745500D01*
X8476643Y-11731214D01*
X8762357Y-11731214D02*
X8790928Y-11731214D01*
X8819500Y-11745500D01*
X8833786Y-11759786D01*
X8848071Y-11788357D01*
X8862357Y-11845500D01*
X8862357Y-11916929D01*
X8848071Y-11974071D01*
X8833786Y-12002643D01*
X8819500Y-12016929D01*
X8790928Y-12031214D01*
X8762357Y-12031214D01*
X8733786Y-12016929D01*
X8719500Y-12002643D01*
X8705214Y-11974071D01*
X8690928Y-11916929D01*
X8690928Y-11845500D01*
X8705214Y-11788357D01*
X8719500Y-11759786D01*
X8733786Y-11745500D01*
X8762357Y-11731214D01*
X9048071Y-11731214D02*
X9076643Y-11731214D01*
X9105214Y-11745500D01*
X9119500Y-11759786D01*
X9133786Y-11788357D01*
X9148071Y-11845500D01*
X9148071Y-11916929D01*
X9133786Y-11974071D01*
X9119500Y-12002643D01*
X9105214Y-12016929D01*
X9076643Y-12031214D01*
X9048071Y-12031214D01*
X9019500Y-12016929D01*
X9005214Y-12002643D01*
X8990928Y-11974071D01*
X8976643Y-11916929D01*
X8976643Y-11845500D01*
X8990928Y-11788357D01*
X9005214Y-11759786D01*
X9019500Y-11745500D01*
X9048071Y-11731214D01*
X9276643Y-12031214D02*
X9276643Y-11831214D01*
X9276643Y-11859786D02*
X9290928Y-11845500D01*
X9319500Y-11831214D01*
X9362357Y-11831214D01*
X9390928Y-11845500D01*
X9405214Y-11874071D01*
X9405214Y-12031214D01*
X9405214Y-11874071D02*
X9419500Y-11845500D01*
X9448071Y-11831214D01*
X9490928Y-11831214D01*
X9519500Y-11845500D01*
X9533786Y-11874071D01*
X9533786Y-12031214D01*
X9676643Y-12031214D02*
X9676643Y-11831214D01*
X9676643Y-11859786D02*
X9690928Y-11845500D01*
X9719500Y-11831214D01*
X9762357Y-11831214D01*
X9790928Y-11845500D01*
X9805214Y-11874071D01*
X9805214Y-12031214D01*
X9805214Y-11874071D02*
X9819500Y-11845500D01*
X9848071Y-11831214D01*
X9890928Y-11831214D01*
X9919500Y-11845500D01*
X9933786Y-11874071D01*
X9933786Y-12031214D01*
X10519500Y-11716929D02*
X10262357Y-12102643D01*
X10905214Y-11731214D02*
X10933786Y-11731214D01*
X10962357Y-11745500D01*
X10976643Y-11759786D01*
X10990928Y-11788357D01*
X11005214Y-11845500D01*
X11005214Y-11916929D01*
X10990928Y-11974071D01*
X10976643Y-12002643D01*
X10962357Y-12016929D01*
X10933786Y-12031214D01*
X10905214Y-12031214D01*
X10876643Y-12016929D01*
X10862357Y-12002643D01*
X10848071Y-11974071D01*
X10833786Y-11916929D01*
X10833786Y-11845500D01*
X10848071Y-11788357D01*
X10862357Y-11759786D01*
X10876643Y-11745500D01*
X10905214Y-11731214D01*
X11133786Y-12002643D02*
X11148071Y-12016929D01*
X11133786Y-12031214D01*
X11119500Y-12016929D01*
X11133786Y-12002643D01*
X11133786Y-12031214D01*
X11333786Y-11731214D02*
X11362357Y-11731214D01*
X11390928Y-11745500D01*
X11405214Y-11759786D01*
X11419500Y-11788357D01*
X11433786Y-11845500D01*
X11433786Y-11916929D01*
X11419500Y-11974071D01*
X11405214Y-12002643D01*
X11390928Y-12016929D01*
X11362357Y-12031214D01*
X11333786Y-12031214D01*
X11305214Y-12016929D01*
X11290928Y-12002643D01*
X11276643Y-11974071D01*
X11262357Y-11916929D01*
X11262357Y-11845500D01*
X11276643Y-11788357D01*
X11290928Y-11759786D01*
X11305214Y-11745500D01*
X11333786Y-11731214D01*
X11533786Y-11731214D02*
X11719500Y-11731214D01*
X11619500Y-11845500D01*
X11662357Y-11845500D01*
X11690928Y-11859786D01*
X11705214Y-11874071D01*
X11719500Y-11902643D01*
X11719500Y-11974071D01*
X11705214Y-12002643D01*
X11690928Y-12016929D01*
X11662357Y-12031214D01*
X11576643Y-12031214D01*
X11548071Y-12016929D01*
X11533786Y-12002643D01*
X11862357Y-12031214D02*
X11919500Y-12031214D01*
X11948071Y-12016929D01*
X11962357Y-12002643D01*
X11990928Y-11959786D01*
X12005214Y-11902643D01*
X12005214Y-11788357D01*
X11990928Y-11759786D01*
X11976643Y-11745500D01*
X11948071Y-11731214D01*
X11890928Y-11731214D01*
X11862357Y-11745500D01*
X11848071Y-11759786D01*
X11833786Y-11788357D01*
X11833786Y-11859786D01*
X11848071Y-11888357D01*
X11862357Y-11902643D01*
X11890928Y-11916929D01*
X11948071Y-11916929D01*
X11976643Y-11902643D01*
X11990928Y-11888357D01*
X12005214Y-11859786D01*
X12262357Y-11831214D02*
X12262357Y-12031214D01*
X12190928Y-11716929D02*
X12119500Y-11931214D01*
X12305214Y-11931214D01*
X12405214Y-11731214D02*
X12405214Y-11788357D01*
X12519500Y-11731214D02*
X12519500Y-11788357D01*
X12962357Y-12145500D02*
X12948071Y-12131214D01*
X12919500Y-12088357D01*
X12905214Y-12059786D01*
X12890928Y-12016929D01*
X12876643Y-11945500D01*
X12876643Y-11888357D01*
X12890928Y-11816929D01*
X12905214Y-11774071D01*
X12919500Y-11745500D01*
X12948071Y-11702643D01*
X12962357Y-11688357D01*
X13205214Y-11831214D02*
X13205214Y-12031214D01*
X13133786Y-11716929D02*
X13062357Y-11931214D01*
X13248071Y-11931214D01*
X13405214Y-11859786D02*
X13376643Y-11845500D01*
X13362357Y-11831214D01*
X13348071Y-11802643D01*
X13348071Y-11788357D01*
X13362357Y-11759786D01*
X13376643Y-11745500D01*
X13405214Y-11731214D01*
X13462357Y-11731214D01*
X13490928Y-11745500D01*
X13505214Y-11759786D01*
X13519500Y-11788357D01*
X13519500Y-11802643D01*
X13505214Y-11831214D01*
X13490928Y-11845500D01*
X13462357Y-11859786D01*
X13405214Y-11859786D01*
X13376643Y-11874071D01*
X13362357Y-11888357D01*
X13348071Y-11916929D01*
X13348071Y-11974071D01*
X13362357Y-12002643D01*
X13376643Y-12016929D01*
X13405214Y-12031214D01*
X13462357Y-12031214D01*
X13490928Y-12016929D01*
X13505214Y-12002643D01*
X13519500Y-11974071D01*
X13519500Y-11916929D01*
X13505214Y-11888357D01*
X13490928Y-11874071D01*
X13462357Y-11859786D01*
X13876643Y-12031214D02*
X13876643Y-11731214D01*
X14005214Y-12031214D02*
X14005214Y-11874071D01*
X13990928Y-11845500D01*
X13962357Y-11831214D01*
X13919500Y-11831214D01*
X13890928Y-11845500D01*
X13876643Y-11859786D01*
X14190928Y-12031214D02*
X14162357Y-12016929D01*
X14148071Y-12002643D01*
X14133786Y-11974071D01*
X14133786Y-11888357D01*
X14148071Y-11859786D01*
X14162357Y-11845500D01*
X14190928Y-11831214D01*
X14233786Y-11831214D01*
X14262357Y-11845500D01*
X14276643Y-11859786D01*
X14290928Y-11888357D01*
X14290928Y-11974071D01*
X14276643Y-12002643D01*
X14262357Y-12016929D01*
X14233786Y-12031214D01*
X14190928Y-12031214D01*
X14462357Y-12031214D02*
X14433786Y-12016929D01*
X14419500Y-11988357D01*
X14419500Y-11731214D01*
X14690928Y-12016929D02*
X14662357Y-12031214D01*
X14605214Y-12031214D01*
X14576643Y-12016929D01*
X14562357Y-11988357D01*
X14562357Y-11874071D01*
X14576643Y-11845500D01*
X14605214Y-11831214D01*
X14662357Y-11831214D01*
X14690928Y-11845500D01*
X14705214Y-11874071D01*
X14705214Y-11902643D01*
X14562357Y-11931214D01*
X14819500Y-12016929D02*
X14848071Y-12031214D01*
X14905214Y-12031214D01*
X14933786Y-12016929D01*
X14948071Y-11988357D01*
X14948071Y-11974071D01*
X14933786Y-11945500D01*
X14905214Y-11931214D01*
X14862357Y-11931214D01*
X14833786Y-11916929D01*
X14819500Y-11888357D01*
X14819500Y-11874071D01*
X14833786Y-11845500D01*
X14862357Y-11831214D01*
X14905214Y-11831214D01*
X14933786Y-11845500D01*
X15048071Y-12145500D02*
X15062357Y-12131214D01*
X15090928Y-12088357D01*
X15105214Y-12059786D01*
X15119500Y-12016929D01*
X15133786Y-11945500D01*
X15133786Y-11888357D01*
X15119500Y-11816929D01*
X15105214Y-11774071D01*
X15090928Y-11745500D01*
X15062357Y-11702643D01*
X15048071Y-11688357D01*
X7636500Y-12223500D02*
X7636500Y-12359500D01*
X7568500Y-12291500D02*
X7704500Y-12291500D01*
X8148071Y-12427214D02*
X7976643Y-12427214D01*
X8062357Y-12427214D02*
X8062357Y-12127214D01*
X8033786Y-12170071D01*
X8005214Y-12198643D01*
X7976643Y-12212929D01*
X8276643Y-12398643D02*
X8290928Y-12412929D01*
X8276643Y-12427214D01*
X8262357Y-12412929D01*
X8276643Y-12398643D01*
X8276643Y-12427214D01*
X8390928Y-12127214D02*
X8576643Y-12127214D01*
X8476643Y-12241500D01*
X8519500Y-12241500D01*
X8548071Y-12255786D01*
X8562357Y-12270071D01*
X8576643Y-12298643D01*
X8576643Y-12370071D01*
X8562357Y-12398643D01*
X8548071Y-12412929D01*
X8519500Y-12427214D01*
X8433786Y-12427214D01*
X8405214Y-12412929D01*
X8390928Y-12398643D01*
X8833786Y-12127214D02*
X8776643Y-12127214D01*
X8748071Y-12141500D01*
X8733786Y-12155786D01*
X8705214Y-12198643D01*
X8690928Y-12255786D01*
X8690928Y-12370071D01*
X8705214Y-12398643D01*
X8719500Y-12412929D01*
X8748071Y-12427214D01*
X8805214Y-12427214D01*
X8833786Y-12412929D01*
X8848071Y-12398643D01*
X8862357Y-12370071D01*
X8862357Y-12298643D01*
X8848071Y-12270071D01*
X8833786Y-12255786D01*
X8805214Y-12241500D01*
X8748071Y-12241500D01*
X8719500Y-12255786D01*
X8705214Y-12270071D01*
X8690928Y-12298643D01*
X9048071Y-12127214D02*
X9076643Y-12127214D01*
X9105214Y-12141500D01*
X9119500Y-12155786D01*
X9133786Y-12184357D01*
X9148071Y-12241500D01*
X9148071Y-12312929D01*
X9133786Y-12370071D01*
X9119500Y-12398643D01*
X9105214Y-12412929D01*
X9076643Y-12427214D01*
X9048071Y-12427214D01*
X9019500Y-12412929D01*
X9005214Y-12398643D01*
X8990928Y-12370071D01*
X8976643Y-12312929D01*
X8976643Y-12241500D01*
X8990928Y-12184357D01*
X9005214Y-12155786D01*
X9019500Y-12141500D01*
X9048071Y-12127214D01*
X9276643Y-12427214D02*
X9276643Y-12227214D01*
X9276643Y-12255786D02*
X9290928Y-12241500D01*
X9319500Y-12227214D01*
X9362357Y-12227214D01*
X9390928Y-12241500D01*
X9405214Y-12270071D01*
X9405214Y-12427214D01*
X9405214Y-12270071D02*
X9419500Y-12241500D01*
X9448071Y-12227214D01*
X9490928Y-12227214D01*
X9519500Y-12241500D01*
X9533786Y-12270071D01*
X9533786Y-12427214D01*
X9676643Y-12427214D02*
X9676643Y-12227214D01*
X9676643Y-12255786D02*
X9690928Y-12241500D01*
X9719500Y-12227214D01*
X9762357Y-12227214D01*
X9790928Y-12241500D01*
X9805214Y-12270071D01*
X9805214Y-12427214D01*
X9805214Y-12270071D02*
X9819500Y-12241500D01*
X9848071Y-12227214D01*
X9890928Y-12227214D01*
X9919500Y-12241500D01*
X9933786Y-12270071D01*
X9933786Y-12427214D01*
X10519500Y-12112929D02*
X10262357Y-12498643D01*
X10905214Y-12127214D02*
X10933786Y-12127214D01*
X10962357Y-12141500D01*
X10976643Y-12155786D01*
X10990928Y-12184357D01*
X11005214Y-12241500D01*
X11005214Y-12312929D01*
X10990928Y-12370071D01*
X10976643Y-12398643D01*
X10962357Y-12412929D01*
X10933786Y-12427214D01*
X10905214Y-12427214D01*
X10876643Y-12412929D01*
X10862357Y-12398643D01*
X10848071Y-12370071D01*
X10833786Y-12312929D01*
X10833786Y-12241500D01*
X10848071Y-12184357D01*
X10862357Y-12155786D01*
X10876643Y-12141500D01*
X10905214Y-12127214D01*
X11133786Y-12398643D02*
X11148071Y-12412929D01*
X11133786Y-12427214D01*
X11119500Y-12412929D01*
X11133786Y-12398643D01*
X11133786Y-12427214D01*
X11333786Y-12127214D02*
X11362357Y-12127214D01*
X11390928Y-12141500D01*
X11405214Y-12155786D01*
X11419500Y-12184357D01*
X11433786Y-12241500D01*
X11433786Y-12312929D01*
X11419500Y-12370071D01*
X11405214Y-12398643D01*
X11390928Y-12412929D01*
X11362357Y-12427214D01*
X11333786Y-12427214D01*
X11305214Y-12412929D01*
X11290928Y-12398643D01*
X11276643Y-12370071D01*
X11262357Y-12312929D01*
X11262357Y-12241500D01*
X11276643Y-12184357D01*
X11290928Y-12155786D01*
X11305214Y-12141500D01*
X11333786Y-12127214D01*
X11705214Y-12127214D02*
X11562357Y-12127214D01*
X11548071Y-12270071D01*
X11562357Y-12255786D01*
X11590928Y-12241500D01*
X11662357Y-12241500D01*
X11690928Y-12255786D01*
X11705214Y-12270071D01*
X11719500Y-12298643D01*
X11719500Y-12370071D01*
X11705214Y-12398643D01*
X11690928Y-12412929D01*
X11662357Y-12427214D01*
X11590928Y-12427214D01*
X11562357Y-12412929D01*
X11548071Y-12398643D01*
X11819500Y-12127214D02*
X12005214Y-12127214D01*
X11905214Y-12241500D01*
X11948071Y-12241500D01*
X11976643Y-12255786D01*
X11990928Y-12270071D01*
X12005214Y-12298643D01*
X12005214Y-12370071D01*
X11990928Y-12398643D01*
X11976643Y-12412929D01*
X11948071Y-12427214D01*
X11862357Y-12427214D01*
X11833786Y-12412929D01*
X11819500Y-12398643D01*
X12276643Y-12127214D02*
X12133786Y-12127214D01*
X12119500Y-12270071D01*
X12133786Y-12255786D01*
X12162357Y-12241500D01*
X12233786Y-12241500D01*
X12262357Y-12255786D01*
X12276643Y-12270071D01*
X12290928Y-12298643D01*
X12290928Y-12370071D01*
X12276643Y-12398643D01*
X12262357Y-12412929D01*
X12233786Y-12427214D01*
X12162357Y-12427214D01*
X12133786Y-12412929D01*
X12119500Y-12398643D01*
X12405214Y-12127214D02*
X12405214Y-12184357D01*
X12519500Y-12127214D02*
X12519500Y-12184357D01*
X12962357Y-12541500D02*
X12948071Y-12527214D01*
X12919500Y-12484357D01*
X12905214Y-12455786D01*
X12890928Y-12412929D01*
X12876643Y-12341500D01*
X12876643Y-12284357D01*
X12890928Y-12212929D01*
X12905214Y-12170071D01*
X12919500Y-12141500D01*
X12948071Y-12098643D01*
X12962357Y-12084357D01*
X13205214Y-12227214D02*
X13205214Y-12427214D01*
X13133786Y-12112929D02*
X13062357Y-12327214D01*
X13248071Y-12327214D01*
X13405214Y-12255786D02*
X13376643Y-12241500D01*
X13362357Y-12227214D01*
X13348071Y-12198643D01*
X13348071Y-12184357D01*
X13362357Y-12155786D01*
X13376643Y-12141500D01*
X13405214Y-12127214D01*
X13462357Y-12127214D01*
X13490928Y-12141500D01*
X13505214Y-12155786D01*
X13519500Y-12184357D01*
X13519500Y-12198643D01*
X13505214Y-12227214D01*
X13490928Y-12241500D01*
X13462357Y-12255786D01*
X13405214Y-12255786D01*
X13376643Y-12270071D01*
X13362357Y-12284357D01*
X13348071Y-12312929D01*
X13348071Y-12370071D01*
X13362357Y-12398643D01*
X13376643Y-12412929D01*
X13405214Y-12427214D01*
X13462357Y-12427214D01*
X13490928Y-12412929D01*
X13505214Y-12398643D01*
X13519500Y-12370071D01*
X13519500Y-12312929D01*
X13505214Y-12284357D01*
X13490928Y-12270071D01*
X13462357Y-12255786D01*
X13876643Y-12427214D02*
X13876643Y-12127214D01*
X14005214Y-12427214D02*
X14005214Y-12270071D01*
X13990928Y-12241500D01*
X13962357Y-12227214D01*
X13919500Y-12227214D01*
X13890928Y-12241500D01*
X13876643Y-12255786D01*
X14190928Y-12427214D02*
X14162357Y-12412929D01*
X14148071Y-12398643D01*
X14133786Y-12370071D01*
X14133786Y-12284357D01*
X14148071Y-12255786D01*
X14162357Y-12241500D01*
X14190928Y-12227214D01*
X14233786Y-12227214D01*
X14262357Y-12241500D01*
X14276643Y-12255786D01*
X14290928Y-12284357D01*
X14290928Y-12370071D01*
X14276643Y-12398643D01*
X14262357Y-12412929D01*
X14233786Y-12427214D01*
X14190928Y-12427214D01*
X14462357Y-12427214D02*
X14433786Y-12412929D01*
X14419500Y-12384357D01*
X14419500Y-12127214D01*
X14690928Y-12412929D02*
X14662357Y-12427214D01*
X14605214Y-12427214D01*
X14576643Y-12412929D01*
X14562357Y-12384357D01*
X14562357Y-12270071D01*
X14576643Y-12241500D01*
X14605214Y-12227214D01*
X14662357Y-12227214D01*
X14690928Y-12241500D01*
X14705214Y-12270071D01*
X14705214Y-12298643D01*
X14562357Y-12327214D01*
X14819500Y-12412929D02*
X14848071Y-12427214D01*
X14905214Y-12427214D01*
X14933786Y-12412929D01*
X14948071Y-12384357D01*
X14948071Y-12370071D01*
X14933786Y-12341500D01*
X14905214Y-12327214D01*
X14862357Y-12327214D01*
X14833786Y-12312929D01*
X14819500Y-12284357D01*
X14819500Y-12270071D01*
X14833786Y-12241500D01*
X14862357Y-12227214D01*
X14905214Y-12227214D01*
X14933786Y-12241500D01*
X15048071Y-12541500D02*
X15062357Y-12527214D01*
X15090928Y-12484357D01*
X15105214Y-12455786D01*
X15119500Y-12412929D01*
X15133786Y-12341500D01*
X15133786Y-12284357D01*
X15119500Y-12212929D01*
X15105214Y-12170071D01*
X15090928Y-12141500D01*
X15062357Y-12098643D01*
X15048071Y-12084357D01*
M02*
