%TF.GenerationSoftware,KiCad,Pcbnew,5.1.10-88a1d61d58~88~ubuntu18.04.1*%
%TF.CreationDate,2021-09-18T16:02:56+02:00*%
%TF.ProjectId,RGBtoHDMI Amiga Denise DIP CPLD Rev 1.1,52474274-6f48-4444-9d49-20416d696761,rev?*%
%TF.SameCoordinates,Original*%
%TF.FileFunction,Copper,L1,Top*%
%TF.FilePolarity,Positive*%
%FSLAX46Y46*%
G04 Gerber Fmt 4.6, Leading zero omitted, Abs format (unit mm)*
G04 Created by KiCad (PCBNEW 5.1.10-88a1d61d58~88~ubuntu18.04.1) date 2021-09-18 16:02:56*
%MOMM*%
%LPD*%
G01*
G04 APERTURE LIST*
%TA.AperFunction,ComponentPad*%
%ADD10O,1.700000X1.700000*%
%TD*%
%TA.AperFunction,ComponentPad*%
%ADD11R,1.700000X1.700000*%
%TD*%
%TA.AperFunction,ComponentPad*%
%ADD12O,1.600000X1.600000*%
%TD*%
%TA.AperFunction,SMDPad,CuDef*%
%ADD13R,1.500000X0.550000*%
%TD*%
%TA.AperFunction,SMDPad,CuDef*%
%ADD14R,0.550000X1.500000*%
%TD*%
%TA.AperFunction,ViaPad*%
%ADD15C,0.800000*%
%TD*%
%TA.AperFunction,ViaPad*%
%ADD16C,1.000000*%
%TD*%
%TA.AperFunction,Conductor*%
%ADD17C,0.200000*%
%TD*%
%TA.AperFunction,Conductor*%
%ADD18C,0.300000*%
%TD*%
%TA.AperFunction,Conductor*%
%ADD19C,0.400000*%
%TD*%
%TA.AperFunction,Conductor*%
%ADD20C,0.500000*%
%TD*%
%TA.AperFunction,Conductor*%
%ADD21C,0.700000*%
%TD*%
%TA.AperFunction,Conductor*%
%ADD22C,0.254000*%
%TD*%
%TA.AperFunction,Conductor*%
%ADD23C,0.100000*%
%TD*%
G04 APERTURE END LIST*
D10*
%TO.P,Button,2*%
%TO.N,/GPIO16*%
X203050000Y-87815000D03*
D11*
%TO.P,Button,1*%
%TO.N,GND*%
X203050000Y-85275000D03*
%TD*%
D12*
%TO.P,U2,48*%
%TO.N,N/C*%
X139315000Y-99695000D03*
%TO.P,U2,24*%
%TO.N,/B0*%
X80895000Y-84455000D03*
%TO.P,U2,47*%
%TO.N,N/C*%
X136775000Y-99695000D03*
%TO.P,U2,23*%
%TO.N,/R3*%
X83435000Y-84455000D03*
%TO.P,U2,46*%
%TO.N,N/C*%
X134235000Y-99695000D03*
%TO.P,U2,22*%
%TO.N,/R2*%
X85975000Y-84455000D03*
%TO.P,U2,45*%
%TO.N,N/C*%
X131695000Y-99695000D03*
%TO.P,U2,21*%
%TO.N,/R1*%
X88515000Y-84455000D03*
%TO.P,U2,44*%
%TO.N,N/C*%
X129155000Y-99695000D03*
%TO.P,U2,20*%
%TO.N,/R0*%
X91055000Y-84455000D03*
%TO.P,U2,43*%
%TO.N,N/C*%
X126615000Y-99695000D03*
%TO.P,U2,19*%
%TO.N,+5V*%
X93595000Y-84455000D03*
%TO.P,U2,42*%
%TO.N,N/C*%
X124075000Y-99695000D03*
%TO.P,U2,18*%
X96135000Y-84455000D03*
%TO.P,U2,41*%
X121535000Y-99695000D03*
%TO.P,U2,17*%
X98675000Y-84455000D03*
%TO.P,U2,40*%
X118995000Y-99695000D03*
%TO.P,U2,16*%
X101215000Y-84455000D03*
%TO.P,U2,39*%
X116455000Y-99695000D03*
%TO.P,U2,15*%
X103755000Y-84455000D03*
%TO.P,U2,38*%
X113915000Y-99695000D03*
%TO.P,U2,14*%
X106295000Y-84455000D03*
%TO.P,U2,37*%
%TO.N,GND*%
X111375000Y-99695000D03*
%TO.P,U2,13*%
%TO.N,N/C*%
X108835000Y-84455000D03*
%TO.P,U2,36*%
X108835000Y-99695000D03*
%TO.P,U2,12*%
X111375000Y-84455000D03*
%TO.P,U2,35*%
X106295000Y-99695000D03*
%TO.P,U2,11*%
X113915000Y-84455000D03*
%TO.P,U2,34*%
X103755000Y-99695000D03*
%TO.P,U2,10*%
X116455000Y-84455000D03*
%TO.P,U2,33*%
X101215000Y-99695000D03*
%TO.P,U2,9*%
X118995000Y-84455000D03*
%TO.P,U2,32*%
%TO.N,/CSYNC*%
X98675000Y-99695000D03*
%TO.P,U2,8*%
%TO.N,N/C*%
X121535000Y-84455000D03*
%TO.P,U2,31*%
%TO.N,/G3*%
X96135000Y-99695000D03*
%TO.P,U2,7*%
%TO.N,N/C*%
X124075000Y-84455000D03*
%TO.P,U2,30*%
%TO.N,/G2*%
X93595000Y-99695000D03*
%TO.P,U2,6*%
%TO.N,N/C*%
X126615000Y-84455000D03*
%TO.P,U2,29*%
%TO.N,/G1*%
X91055000Y-99695000D03*
%TO.P,U2,5*%
%TO.N,N/C*%
X129155000Y-84455000D03*
%TO.P,U2,28*%
%TO.N,/G0*%
X88515000Y-99695000D03*
%TO.P,U2,4*%
%TO.N,N/C*%
X131695000Y-84455000D03*
%TO.P,U2,27*%
%TO.N,/B3*%
X85975000Y-99695000D03*
%TO.P,U2,3*%
%TO.N,N/C*%
X134235000Y-84455000D03*
%TO.P,U2,26*%
%TO.N,/B2*%
X83435000Y-99695000D03*
%TO.P,U2,2*%
%TO.N,N/C*%
X136775000Y-84455000D03*
%TO.P,U2,25*%
%TO.N,/B1*%
X80895000Y-99695000D03*
%TO.P,U2,1*%
%TO.N,N/C*%
%TA.AperFunction,ComponentPad*%
G36*
G01*
X138915000Y-83655000D02*
X139715000Y-83655000D01*
G75*
G02*
X140115000Y-84055000I0J-400000D01*
G01*
X140115000Y-84855000D01*
G75*
G02*
X139715000Y-85255000I-400000J0D01*
G01*
X138915000Y-85255000D01*
G75*
G02*
X138515000Y-84855000I0J400000D01*
G01*
X138515000Y-84055000D01*
G75*
G02*
X138915000Y-83655000I400000J0D01*
G01*
G37*
%TD.AperFunction*%
%TD*%
D10*
%TO.P,J1,40*%
%TO.N,/GPIO21*%
X150190000Y-87900000D03*
%TO.P,J1,39*%
%TO.N,GND*%
X150190000Y-85360000D03*
%TO.P,J1,38*%
%TO.N,/GPIO20*%
X152730000Y-87900000D03*
%TO.P,J1,37*%
%TO.N,N/C*%
X152730000Y-85360000D03*
%TO.P,J1,36*%
%TO.N,/GPIO16*%
X155270000Y-87900000D03*
%TO.P,J1,35*%
%TO.N,N/C*%
X155270000Y-85360000D03*
%TO.P,J1,34*%
%TO.N,GND*%
X157810000Y-87900000D03*
%TO.P,J1,33*%
%TO.N,/GPIO13*%
X157810000Y-85360000D03*
%TO.P,J1,32*%
%TO.N,/GPIO12*%
X160350000Y-87900000D03*
%TO.P,J1,31*%
%TO.N,/GPIO6*%
X160350000Y-85360000D03*
%TO.P,J1,30*%
%TO.N,GND*%
X162890000Y-87900000D03*
%TO.P,J1,29*%
%TO.N,/GPIO5*%
X162890000Y-85360000D03*
%TO.P,J1,28*%
%TO.N,/CLKEN*%
X165430000Y-87900000D03*
%TO.P,J1,27*%
%TO.N,/GPIO0*%
X165430000Y-85360000D03*
%TO.P,J1,26*%
%TO.N,/GPIO7*%
X167970000Y-87900000D03*
%TO.P,J1,25*%
%TO.N,GND*%
X167970000Y-85360000D03*
%TO.P,J1,24*%
%TO.N,/GPIO8*%
X170510000Y-87900000D03*
%TO.P,J1,23*%
%TO.N,/GPIO11*%
X170510000Y-85360000D03*
%TO.P,J1,22*%
%TO.N,N/C*%
X173050000Y-87900000D03*
%TO.P,J1,21*%
%TO.N,/GPIO9*%
X173050000Y-85360000D03*
%TO.P,J1,20*%
%TO.N,GND*%
X175590000Y-87900000D03*
%TO.P,J1,19*%
%TO.N,/GPIO10*%
X175590000Y-85360000D03*
%TO.P,J1,18*%
%TO.N,/GPIO24*%
X178130000Y-87900000D03*
%TO.P,J1,17*%
%TO.N,+3V3*%
X178130000Y-85360000D03*
%TO.P,J1,16*%
%TO.N,/GPIO23*%
X180670000Y-87900000D03*
%TO.P,J1,15*%
%TO.N,N/C*%
X180670000Y-85360000D03*
%TO.P,J1,14*%
%TO.N,GND*%
X183210000Y-87900000D03*
%TO.P,J1,13*%
%TO.N,N/C*%
X183210000Y-85360000D03*
%TO.P,J1,12*%
%TO.N,/GPIO18*%
X185750000Y-87900000D03*
%TO.P,J1,11*%
%TO.N,/GPIO17*%
X185750000Y-85360000D03*
%TO.P,J1,10*%
%TO.N,N/C*%
X188290000Y-87900000D03*
%TO.P,J1,9*%
%TO.N,GND*%
X188290000Y-85360000D03*
%TO.P,J1,8*%
%TO.N,N/C*%
X190830000Y-87900000D03*
%TO.P,J1,7*%
%TO.N,/GPIO4*%
X190830000Y-85360000D03*
%TO.P,J1,6*%
%TO.N,GND*%
X193370000Y-87900000D03*
%TO.P,J1,5*%
%TO.N,/GPIO3*%
X193370000Y-85360000D03*
%TO.P,J1,4*%
%TO.N,+5V*%
X195910000Y-87900000D03*
%TO.P,J1,3*%
%TO.N,/GPIO2*%
X195910000Y-85360000D03*
%TO.P,J1,2*%
%TO.N,+5V*%
X198450000Y-87900000D03*
D11*
%TO.P,J1,1*%
%TO.N,+3V3*%
X198450000Y-85360000D03*
%TD*%
D13*
%TO.P,U1,44*%
%TO.N,/GPIO20*%
X143950000Y-101700000D03*
%TO.P,U1,43*%
%TO.N,/GPIO21*%
X143950000Y-100900000D03*
%TO.P,U1,42*%
%TO.N,/G0*%
X143950000Y-100100000D03*
%TO.P,U1,41*%
%TO.N,N/C*%
X143950000Y-99300000D03*
%TO.P,U1,40*%
%TO.N,/G1*%
X143950000Y-98500000D03*
%TO.P,U1,39*%
%TO.N,/R1*%
X143950000Y-97700000D03*
%TO.P,U1,38*%
%TO.N,/B1*%
X143950000Y-96900000D03*
%TO.P,U1,37*%
%TO.N,/B2*%
X143950000Y-96100000D03*
%TO.P,U1,36*%
%TO.N,/G2*%
X143950000Y-95300000D03*
%TO.P,U1,35*%
%TO.N,+3V3*%
X143950000Y-94500000D03*
%TO.P,U1,34*%
%TO.N,/R2*%
X143950000Y-93700000D03*
D14*
%TO.P,U1,33*%
%TO.N,/GPIO18*%
X145650000Y-92000000D03*
%TO.P,U1,32*%
%TO.N,/R3*%
X146450000Y-92000000D03*
%TO.P,U1,31*%
%TO.N,/G3*%
X147250000Y-92000000D03*
%TO.P,U1,30*%
%TO.N,/B3*%
X148050000Y-92000000D03*
%TO.P,U1,29*%
%TO.N,/GPIO2*%
X148850000Y-92000000D03*
%TO.P,U1,28*%
%TO.N,/GPIO3*%
X149650000Y-92000000D03*
%TO.P,U1,27*%
%TO.N,/GPIO4*%
X150450000Y-92000000D03*
%TO.P,U1,26*%
%TO.N,+3V3*%
X151250000Y-92000000D03*
%TO.P,U1,25*%
%TO.N,GND*%
X152050000Y-92000000D03*
%TO.P,U1,24*%
%TO.N,/GPIO24*%
X152850000Y-92000000D03*
%TO.P,U1,23*%
%TO.N,/CSYNC*%
X153650000Y-92000000D03*
D13*
%TO.P,U1,22*%
%TO.N,/GPIO17*%
X155350000Y-93700000D03*
%TO.P,U1,21*%
%TO.N,/R0*%
X155350000Y-94500000D03*
%TO.P,U1,20*%
%TO.N,/GPIO23*%
X155350000Y-95300000D03*
%TO.P,U1,19*%
%TO.N,/DETECT*%
X155350000Y-96100000D03*
%TO.P,U1,18*%
%TO.N,/B0*%
X155350000Y-96900000D03*
%TO.P,U1,17*%
%TO.N,GND*%
X155350000Y-97700000D03*
%TO.P,U1,16*%
%TO.N,/GPIO10*%
X155350000Y-98500000D03*
%TO.P,U1,15*%
%TO.N,+3V3*%
X155350000Y-99300000D03*
%TO.P,U1,14*%
%TO.N,/GPIO9*%
X155350000Y-100100000D03*
%TO.P,U1,13*%
%TO.N,/GPIO11*%
X155350000Y-100900000D03*
%TO.P,U1,12*%
%TO.N,/GPIO8*%
X155350000Y-101700000D03*
D14*
%TO.P,U1,11*%
%TO.N,/GPIO20*%
X153650000Y-103400000D03*
%TO.P,U1,10*%
%TO.N,/CLKEN*%
X152850000Y-103400000D03*
%TO.P,U1,9*%
%TO.N,/GPIO0*%
X152050000Y-103400000D03*
%TO.P,U1,8*%
%TO.N,/GPIO7*%
X151250000Y-103400000D03*
%TO.P,U1,7*%
%TO.N,/GPIO0*%
X150450000Y-103400000D03*
%TO.P,U1,6*%
%TO.N,/CLKEN*%
X149650000Y-103400000D03*
%TO.P,U1,5*%
%TO.N,/GPIO5*%
X148850000Y-103400000D03*
%TO.P,U1,4*%
%TO.N,GND*%
X148050000Y-103400000D03*
%TO.P,U1,3*%
%TO.N,/GPIO12*%
X147250000Y-103400000D03*
%TO.P,U1,2*%
%TO.N,/GPIO6*%
X146450000Y-103400000D03*
%TO.P,U1,1*%
%TO.N,/GPIO13*%
X145650000Y-103400000D03*
%TD*%
D11*
%TO.P,JTAG Port,1*%
%TO.N,+3V3*%
X196010000Y-91460000D03*
D10*
%TO.P,JTAG Port,2*%
%TO.N,GND*%
X193470000Y-91460000D03*
%TO.P,JTAG Port,3*%
%TO.N,/GPIO20*%
X190930000Y-91460000D03*
%TO.P,JTAG Port,4*%
%TO.N,/GPIO24*%
X188390000Y-91460000D03*
%TO.P,JTAG Port,5*%
%TO.N,/GPIO0*%
X185850000Y-91460000D03*
%TO.P,JTAG Port,6*%
%TO.N,/CLKEN*%
X183310000Y-91460000D03*
%TD*%
D15*
%TO.N,GND*%
X95390000Y-87120000D03*
X92560000Y-87200000D03*
X153917900Y-97521800D03*
X147620000Y-94890000D03*
X157820000Y-92480000D03*
X153020000Y-95000000D03*
X90830000Y-97490000D03*
X86770000Y-97470000D03*
X147360000Y-88550000D03*
X196720000Y-82860000D03*
X192820000Y-83430000D03*
X194690000Y-83090000D03*
X190440000Y-83640000D03*
X149460000Y-89420000D03*
X179380000Y-86650000D03*
X175290000Y-91070000D03*
X161255000Y-90255000D03*
X149610000Y-99140000D03*
D16*
%TO.N,+3V3*%
X153897800Y-99052100D03*
X148600000Y-93680000D03*
X151129670Y-95519944D03*
D15*
%TO.N,/GPIO21*%
X146615900Y-95989000D03*
%TO.N,/GPIO20*%
X145930000Y-99720000D03*
X153150000Y-101810043D03*
X150555022Y-98624986D03*
%TO.N,/GPIO16*%
X151688100Y-84285200D03*
X156063900Y-82681300D03*
%TO.N,/GPIO13*%
X144765200Y-102672800D03*
%TO.N,/GPIO6*%
X146450000Y-102039993D03*
%TO.N,/GPIO0*%
X150435000Y-102035000D03*
X162497150Y-90267150D03*
X164110000Y-90240000D03*
%TO.N,/GPIO7*%
X155830000Y-102990000D03*
X165330015Y-90449924D03*
%TO.N,/GPIO8*%
X170510000Y-90309990D03*
%TO.N,/GPIO11*%
X168470010Y-91870000D03*
%TO.N,/GPIO9*%
X169170010Y-91010000D03*
%TO.N,/GPIO10*%
X169764100Y-91889243D03*
%TO.N,/GPIO24*%
X158369990Y-91240000D03*
X155090000Y-90940000D03*
%TO.N,/CLKEN*%
X154580018Y-103029990D03*
%TO.N,/B0*%
X146860700Y-98291200D03*
%TO.N,/R3*%
X146378200Y-90647600D03*
%TO.N,/R1*%
X141555382Y-97569718D03*
%TO.N,/R0*%
X147568000Y-97583800D03*
%TO.N,/G3*%
X147393100Y-90646700D03*
X143700000Y-91520000D03*
X105460000Y-92349979D03*
%TO.N,/G2*%
X98824500Y-95029979D03*
%TO.N,/B3*%
X96536600Y-93050300D03*
%TO.N,/DETECT*%
X156659279Y-96096838D03*
%TO.N,/CSYNC*%
X151746400Y-94008500D03*
%TD*%
D17*
%TO.N,GND*%
X153917900Y-97521800D02*
X154121500Y-97521800D01*
X154121500Y-97521800D02*
X154299700Y-97700000D01*
X155350000Y-97700000D02*
X154299700Y-97700000D01*
X167920000Y-85360000D02*
X167970000Y-85360000D01*
X166620000Y-86660000D02*
X167920000Y-85360000D01*
X162890000Y-87900000D02*
X164130000Y-86660000D01*
X164130000Y-86660000D02*
X166620000Y-86660000D01*
D18*
X159080000Y-86630000D02*
X157810000Y-87900000D01*
D17*
X162890000Y-87900000D02*
X161620000Y-86630000D01*
X161620000Y-86630000D02*
X159080000Y-86630000D01*
X139520000Y-87120000D02*
X95390000Y-87120000D01*
X140980000Y-85660000D02*
X139520000Y-87120000D01*
X196720000Y-82860000D02*
X195410010Y-81550010D01*
X195410010Y-81550010D02*
X143479990Y-81550010D01*
X143479990Y-81550010D02*
X140980000Y-84050000D01*
X140980000Y-84050000D02*
X140980000Y-85660000D01*
X155213996Y-90070000D02*
X155263998Y-90019998D01*
X152050000Y-90570000D02*
X152550000Y-90070000D01*
X155263998Y-90019998D02*
X155690002Y-90019998D01*
X155690002Y-90019998D02*
X156470000Y-89240000D01*
X152050000Y-92000000D02*
X152050000Y-90570000D01*
X152550000Y-90070000D02*
X155213996Y-90070000D01*
D19*
X157800000Y-87910000D02*
X157810000Y-87900000D01*
X157800000Y-89220000D02*
X157800000Y-87910000D01*
X176840000Y-86650000D02*
X175590000Y-87900000D01*
D17*
X179380000Y-86650000D02*
X176840000Y-86650000D01*
X174320000Y-86630000D02*
X169280000Y-86630000D01*
D19*
X174320000Y-86630000D02*
X175590000Y-87900000D01*
D17*
X153917900Y-97521800D02*
X153916087Y-97519987D01*
X153916087Y-97519987D02*
X149220013Y-97519987D01*
X148050000Y-98690000D02*
X148050000Y-103400000D01*
X149220013Y-97519987D02*
X148050000Y-98690000D01*
D20*
%TO.N,+3V3*%
X154149700Y-99300000D02*
X154145700Y-99300000D01*
X154145700Y-99300000D02*
X153897800Y-99052100D01*
X155350000Y-99300000D02*
X154149700Y-99300000D01*
X148630000Y-93710000D02*
X148600000Y-93680000D01*
X149972100Y-94478200D02*
X149203900Y-93710000D01*
X149203900Y-93710000D02*
X148630000Y-93710000D01*
X151250000Y-93200300D02*
X149972100Y-94478200D01*
X151250000Y-92000000D02*
X151250000Y-93200300D01*
X145900000Y-93680000D02*
X148600000Y-93680000D01*
X143950000Y-94500000D02*
X145080000Y-94500000D01*
X145080000Y-94500000D02*
X145900000Y-93680000D01*
X149972100Y-94478200D02*
X151013844Y-95519944D01*
X151013844Y-95519944D02*
X151129670Y-95519944D01*
D17*
%TO.N,/GPIO21*%
X145229999Y-100570001D02*
X145229999Y-97374901D01*
X143950000Y-100900000D02*
X144900000Y-100900000D01*
X145229999Y-97374901D02*
X146615900Y-95989000D01*
X144900000Y-100900000D02*
X145229999Y-100570001D01*
%TO.N,/GPIO20*%
X153650000Y-103400000D02*
X153650000Y-102310043D01*
X153650000Y-102310043D02*
X153150000Y-101810043D01*
X150555022Y-99215065D02*
X150555022Y-98624986D01*
X153150000Y-101810043D02*
X150555022Y-99215065D01*
X144900000Y-101700000D02*
X145930000Y-100670000D01*
X143950000Y-101700000D02*
X144900000Y-101700000D01*
X145930000Y-100670000D02*
X145930000Y-99720000D01*
%TO.N,/GPIO16*%
X156063900Y-82681300D02*
X153292000Y-82681300D01*
X153292000Y-82681300D02*
X151688100Y-84285200D01*
%TO.N,/GPIO18*%
X196510000Y-86630000D02*
X187020000Y-86630000D01*
X142680000Y-85240000D02*
X145939000Y-81981000D01*
X145650000Y-91525000D02*
X142680000Y-88555000D01*
X142680000Y-88555000D02*
X142680000Y-85240000D01*
X145650000Y-92000000D02*
X145650000Y-91525000D01*
X145939000Y-81981000D02*
X156449000Y-81981000D01*
X194765980Y-82129978D02*
X197170000Y-84533998D01*
X197170000Y-84533998D02*
X197170000Y-85970000D01*
X156449000Y-81981000D02*
X156597978Y-82129978D01*
X187020000Y-86630000D02*
X185750000Y-87900000D01*
X156597978Y-82129978D02*
X194765980Y-82129978D01*
X197170000Y-85970000D02*
X196510000Y-86630000D01*
%TO.N,/GPIO13*%
X145492400Y-103400000D02*
X144765200Y-102672800D01*
X145650000Y-103400000D02*
X145492400Y-103400000D01*
%TO.N,/GPIO12*%
X160130000Y-87900000D02*
X160350000Y-87900000D01*
X155112550Y-92917450D02*
X160130000Y-87900000D01*
X153840000Y-93704900D02*
X154627450Y-92917450D01*
X153840000Y-95680000D02*
X153840000Y-93704900D01*
X153599835Y-95920165D02*
X153840000Y-95680000D01*
X151832946Y-96319954D02*
X152232735Y-95920165D01*
X152232735Y-95920165D02*
X153599835Y-95920165D01*
X147620046Y-96319954D02*
X151832946Y-96319954D01*
X147250000Y-101670000D02*
X146630000Y-101050000D01*
X146630000Y-99073996D02*
X146160400Y-98604396D01*
X147250000Y-103400000D02*
X147250000Y-101670000D01*
X146630000Y-101050000D02*
X146630000Y-99073996D01*
X154627450Y-92917450D02*
X155112550Y-92917450D01*
X146160400Y-98604396D02*
X146160400Y-97779600D01*
X146160400Y-97779600D02*
X147620046Y-96319954D01*
%TO.N,/GPIO6*%
X146450000Y-103400000D02*
X146450000Y-102039993D01*
%TO.N,/GPIO5*%
X164466200Y-83783800D02*
X162890000Y-85360000D01*
X186033800Y-83783800D02*
X164466200Y-83783800D01*
X187010000Y-84760000D02*
X186033800Y-83783800D01*
X187010000Y-86020000D02*
X187010000Y-84760000D01*
X182733650Y-86640000D02*
X186390000Y-86640000D01*
X181940000Y-87433650D02*
X182733650Y-86640000D01*
X181940000Y-88500000D02*
X181940000Y-87433650D01*
X176890000Y-93550000D02*
X181940000Y-88500000D01*
X151260000Y-98340000D02*
X151260000Y-98910000D01*
X186390000Y-86640000D02*
X187010000Y-86020000D01*
X150839998Y-97919998D02*
X151260000Y-98340000D01*
X149830002Y-97919998D02*
X150839998Y-97919998D01*
X148850000Y-103400000D02*
X148850000Y-98900000D01*
X158140000Y-97930000D02*
X158960000Y-97110000D01*
X148850000Y-98900000D02*
X149830002Y-97919998D01*
X153880000Y-101530000D02*
X153880000Y-101743998D01*
X153880000Y-101743998D02*
X154411003Y-102275001D01*
X151260000Y-98910000D02*
X153880000Y-101530000D01*
X154411003Y-102275001D02*
X156424999Y-102275001D01*
X156424999Y-102275001D02*
X158140000Y-100560000D01*
X158960000Y-95500000D02*
X160910000Y-93550000D01*
X158140000Y-100560000D02*
X158140000Y-97930000D01*
X158960000Y-97110000D02*
X158960000Y-95500000D01*
X160910000Y-93550000D02*
X176890000Y-93550000D01*
%TO.N,/GPIO0*%
X150450000Y-102974900D02*
X150450000Y-103400000D01*
X150450000Y-102050000D02*
X150435000Y-102035000D01*
X150450000Y-103400000D02*
X150450000Y-102050000D01*
X152050000Y-102325700D02*
X151759300Y-102035000D01*
X151759300Y-102035000D02*
X150435000Y-102035000D01*
X152050000Y-103400000D02*
X152050000Y-102325700D01*
X162524300Y-90240000D02*
X162497150Y-90267150D01*
X164110000Y-90240000D02*
X162524300Y-90240000D01*
%TO.N,/GPIO7*%
X151250000Y-103400000D02*
X151250000Y-104450300D01*
X151250000Y-104450300D02*
X151669711Y-104870011D01*
X154515674Y-104870011D02*
X155830000Y-103555685D01*
X151669711Y-104870011D02*
X154515674Y-104870011D01*
X155830000Y-103555685D02*
X155830000Y-102990000D01*
X165420076Y-90449924D02*
X165330015Y-90449924D01*
X167970000Y-87900000D02*
X165420076Y-90449924D01*
%TO.N,/GPIO8*%
X157739989Y-100360011D02*
X157739989Y-97760011D01*
X158559989Y-96940011D02*
X158559989Y-95310011D01*
X157739989Y-97760011D02*
X158559989Y-96940011D01*
X169532859Y-93149989D02*
X170510000Y-92172848D01*
X170510000Y-92172848D02*
X170510000Y-90309990D01*
X156400000Y-101700000D02*
X157739989Y-100360011D01*
X155350000Y-101700000D02*
X156400000Y-101700000D01*
X158559989Y-95310011D02*
X160720011Y-93149989D01*
X160720011Y-93149989D02*
X169532859Y-93149989D01*
%TO.N,/GPIO11*%
X160554322Y-92749978D02*
X167590032Y-92749978D01*
X155350000Y-100900000D02*
X156350000Y-100900000D01*
X157339978Y-99910022D02*
X157339978Y-97594322D01*
X158159978Y-96774322D02*
X158159978Y-95144322D01*
X167590032Y-92749978D02*
X168470010Y-91870000D01*
X156350000Y-100900000D02*
X157339978Y-99910022D01*
X158159978Y-95144322D02*
X160554322Y-92749978D01*
X157339978Y-97594322D02*
X158159978Y-96774322D01*
%TO.N,/GPIO9*%
X168137100Y-91010000D02*
X169170010Y-91010000D01*
X166797133Y-92349967D02*
X168137100Y-91010000D01*
X157759967Y-96608633D02*
X157759967Y-94978633D01*
X156939967Y-99460033D02*
X156939967Y-97428633D01*
X156300000Y-100100000D02*
X156939967Y-99460033D01*
X156939967Y-97428633D02*
X157759967Y-96608633D01*
X157759967Y-94978633D02*
X160388633Y-92349967D01*
X155350000Y-100100000D02*
X156300000Y-100100000D01*
X160388633Y-92349967D02*
X166797133Y-92349967D01*
%TO.N,/GPIO10*%
X155350000Y-98500000D02*
X156300000Y-98500000D01*
X156539956Y-97260044D02*
X157359289Y-96440711D01*
X169515989Y-90309987D02*
X169910001Y-90703999D01*
X156539956Y-98260044D02*
X156539956Y-97260044D01*
X157359289Y-96440711D02*
X157359289Y-94813611D01*
X169910001Y-90703999D02*
X169910001Y-91743342D01*
X169910001Y-91743342D02*
X169764100Y-91889243D01*
X168271413Y-90309987D02*
X169515989Y-90309987D01*
X160222944Y-91949956D02*
X166631444Y-91949956D01*
X157359289Y-94813611D02*
X160222944Y-91949956D01*
X166631444Y-91949956D02*
X168271413Y-90309987D01*
X156300000Y-98500000D02*
X156539956Y-98260044D01*
%TO.N,/GPIO24*%
X152850000Y-91050000D02*
X152960000Y-90940000D01*
X152960000Y-90940000D02*
X155090000Y-90940000D01*
X152850000Y-92000000D02*
X152850000Y-91050000D01*
X158369990Y-91240000D02*
X158460056Y-91149934D01*
X177280001Y-88749999D02*
X178130000Y-87900000D01*
X166300066Y-91149934D02*
X168240023Y-89209977D01*
X171061680Y-89259966D02*
X176770034Y-89259966D01*
X171011691Y-89209977D02*
X171061680Y-89259966D01*
X158460056Y-91149934D02*
X166300066Y-91149934D01*
X176770034Y-89259966D02*
X177280001Y-88749999D01*
X168240023Y-89209977D02*
X171011691Y-89209977D01*
%TO.N,/GPIO23*%
X179820001Y-88749999D02*
X180670000Y-87900000D01*
X170895991Y-89659977D02*
X178910023Y-89659977D01*
X170846002Y-89609988D02*
X170895991Y-89659977D01*
X155350000Y-95300000D02*
X156300000Y-95300000D01*
X178910023Y-89659977D02*
X179820001Y-88749999D01*
X160050055Y-91549945D02*
X166465755Y-91549945D01*
X156300000Y-95300000D02*
X160050055Y-91549945D01*
X166465755Y-91549945D02*
X168405712Y-89609988D01*
X168405712Y-89609988D02*
X170846002Y-89609988D01*
%TO.N,/GPIO17*%
X168460000Y-86670000D02*
X169240000Y-85890000D01*
X169240000Y-84790000D02*
X169845800Y-84184200D01*
X184900001Y-84510001D02*
X185750000Y-85360000D01*
X155350000Y-93700000D02*
X155350000Y-93250000D01*
X165974300Y-89320000D02*
X166700000Y-88594300D01*
X184574200Y-84184200D02*
X184900001Y-84510001D01*
X166700000Y-87360000D02*
X167390000Y-86670000D01*
X166700000Y-88594300D02*
X166700000Y-87360000D01*
X169845800Y-84184200D02*
X184574200Y-84184200D01*
X159280000Y-89320000D02*
X165974300Y-89320000D01*
X167390000Y-86670000D02*
X168460000Y-86670000D01*
X169240000Y-85890000D02*
X169240000Y-84790000D01*
X155350000Y-93250000D02*
X159280000Y-89320000D01*
%TO.N,/GPIO4*%
X150450000Y-90949700D02*
X150450000Y-92000000D01*
X155213900Y-89590000D02*
X151809700Y-89590000D01*
X156610000Y-87210000D02*
X156610000Y-88193900D01*
X188853500Y-83383500D02*
X160396500Y-83383500D01*
X151809700Y-89590000D02*
X150450000Y-90949700D01*
X190830000Y-85360000D02*
X188853500Y-83383500D01*
X160396500Y-83383500D02*
X159080000Y-84700000D01*
X158390000Y-86600000D02*
X157220000Y-86600000D01*
X156610000Y-88193900D02*
X155213900Y-89590000D01*
X159080000Y-84700000D02*
X159080000Y-85910000D01*
X157220000Y-86600000D02*
X156610000Y-87210000D01*
X159080000Y-85910000D02*
X158390000Y-86600000D01*
%TO.N,/GPIO3*%
X151535500Y-89164500D02*
X149650000Y-91050000D01*
X154030000Y-88360000D02*
X153225500Y-89164500D01*
X154030000Y-87270000D02*
X154030000Y-88360000D01*
X154640000Y-86660000D02*
X154030000Y-87270000D01*
X153225500Y-89164500D02*
X151535500Y-89164500D01*
X156540000Y-85950000D02*
X155830000Y-86660000D01*
X155830000Y-86660000D02*
X154640000Y-86660000D01*
X192520001Y-84510001D02*
X192346003Y-84510001D01*
X192346003Y-84510001D02*
X190776001Y-82939999D01*
X190776001Y-82939999D02*
X158280001Y-82939999D01*
X156540000Y-84680000D02*
X156540000Y-85950000D01*
X149650000Y-91050000D02*
X149650000Y-92000000D01*
X193370000Y-85360000D02*
X192520001Y-84510001D01*
X158280001Y-82939999D02*
X156540000Y-84680000D01*
%TO.N,/GPIO2*%
X151470000Y-88430000D02*
X148850000Y-91050000D01*
X151470000Y-87150000D02*
X151470000Y-88430000D01*
X152000000Y-86620000D02*
X151470000Y-87150000D01*
X148850000Y-91050000D02*
X148850000Y-92000000D01*
X193079989Y-82529989D02*
X157205611Y-82529989D01*
X155388400Y-83381600D02*
X154000000Y-84770000D01*
X154000000Y-85930000D02*
X153310000Y-86620000D01*
X195910000Y-85360000D02*
X193079989Y-82529989D01*
X154000000Y-84770000D02*
X154000000Y-85930000D01*
X153310000Y-86620000D02*
X152000000Y-86620000D01*
X157205611Y-82529989D02*
X156354000Y-83381600D01*
X156354000Y-83381600D02*
X155388400Y-83381600D01*
%TO.N,/CLKEN*%
X151590000Y-101300000D02*
X152850000Y-102560000D01*
X152850000Y-102560000D02*
X152850000Y-103400000D01*
X149650000Y-101780000D02*
X150130000Y-101300000D01*
X150130000Y-101300000D02*
X151590000Y-101300000D01*
X149650000Y-103400000D02*
X149650000Y-101780000D01*
X154165001Y-104450001D02*
X154580018Y-104034984D01*
X154580018Y-104034984D02*
X154580018Y-103029990D01*
X152850000Y-104350000D02*
X152950001Y-104450001D01*
X152950001Y-104450001D02*
X154165001Y-104450001D01*
X152850000Y-103400000D02*
X152850000Y-104350000D01*
%TO.N,/B0*%
X149054324Y-97119976D02*
X147883100Y-98291200D01*
X152164324Y-97119976D02*
X149054324Y-97119976D01*
X152462800Y-96821500D02*
X152164324Y-97119976D01*
X147883100Y-98291200D02*
X146860700Y-98291200D01*
X155271500Y-96821500D02*
X152462800Y-96821500D01*
X155350000Y-96900000D02*
X155271500Y-96821500D01*
%TO.N,/R3*%
X146450000Y-92000000D02*
X146450000Y-90719400D01*
X146450000Y-90719400D02*
X146378200Y-90647600D01*
%TO.N,/R2*%
X95271100Y-93751100D02*
X97158900Y-93751100D01*
X97158900Y-93751100D02*
X97460000Y-93450000D01*
X142899700Y-93700000D02*
X143950000Y-93700000D01*
X85975000Y-84455000D02*
X95271100Y-93751100D01*
X97460000Y-93450000D02*
X142649700Y-93450000D01*
X142649700Y-93450000D02*
X142899700Y-93700000D01*
%TO.N,/R1*%
X143950000Y-97700000D02*
X141685664Y-97700000D01*
X141685664Y-97700000D02*
X141555382Y-97569718D01*
%TO.N,/R0*%
X154240011Y-95845689D02*
X154240011Y-94659989D01*
X153765524Y-96320176D02*
X154240011Y-95845689D01*
X151998635Y-96719965D02*
X152398424Y-96320176D01*
X154240011Y-94659989D02*
X154400000Y-94500000D01*
X148431835Y-96719965D02*
X151998635Y-96719965D01*
X154400000Y-94500000D02*
X155350000Y-94500000D01*
X152398424Y-96320176D02*
X153765524Y-96320176D01*
X147568000Y-97583800D02*
X148431835Y-96719965D01*
%TO.N,/G3*%
X147250000Y-92000000D02*
X147250000Y-90789800D01*
X147250000Y-90789800D02*
X147393100Y-90646700D01*
X105750021Y-92640000D02*
X105460000Y-92349979D01*
X143700000Y-91520000D02*
X142580000Y-92640000D01*
X142580000Y-92640000D02*
X105750021Y-92640000D01*
%TO.N,/G2*%
X99094521Y-95300000D02*
X98824500Y-95029979D01*
X143950000Y-95300000D02*
X99094521Y-95300000D01*
%TO.N,/G1*%
X139600000Y-96630000D02*
X141470000Y-98500000D01*
X142899700Y-98500000D02*
X143950000Y-98500000D01*
X141470000Y-98500000D02*
X142899700Y-98500000D01*
X91055000Y-99695000D02*
X94120000Y-96630000D01*
X94120000Y-96630000D02*
X139600000Y-96630000D01*
%TO.N,/G0*%
X89637000Y-100817000D02*
X88515000Y-99695000D01*
X142182700Y-100817000D02*
X89637000Y-100817000D01*
X143950000Y-100100000D02*
X142899700Y-100100000D01*
X142899700Y-100100000D02*
X142182700Y-100817000D01*
%TO.N,/B3*%
X96536911Y-93049989D02*
X96536600Y-93050300D01*
X142815700Y-93050300D02*
X142815389Y-93049989D01*
X147875696Y-93050300D02*
X142815700Y-93050300D01*
X148050000Y-92000000D02*
X148050000Y-92875996D01*
X142815389Y-93049989D02*
X96536911Y-93049989D01*
X148050000Y-92875996D02*
X147875696Y-93050300D01*
%TO.N,/B2*%
X143000000Y-96100000D02*
X143950000Y-96100000D01*
X142629989Y-95729989D02*
X143000000Y-96100000D01*
X87400011Y-95729989D02*
X142629989Y-95729989D01*
X83435000Y-99695000D02*
X87400011Y-95729989D01*
%TO.N,/B1*%
X82030000Y-100830000D02*
X80895000Y-99695000D01*
X86660000Y-100830000D02*
X82030000Y-100830000D01*
X143950000Y-96900000D02*
X142899700Y-96900000D01*
X87245000Y-99215000D02*
X87245000Y-100245000D01*
X142899700Y-96900000D02*
X142129700Y-96130000D01*
X90330000Y-96130000D02*
X87245000Y-99215000D01*
X142129700Y-96130000D02*
X90330000Y-96130000D01*
X87245000Y-100245000D02*
X86660000Y-100830000D01*
%TO.N,/DETECT*%
X155350000Y-96100000D02*
X156656117Y-96100000D01*
X156656117Y-96100000D02*
X156659279Y-96096838D01*
D21*
%TO.N,+5V*%
X198450000Y-87900000D02*
X197310300Y-87900000D01*
X195910000Y-87900000D02*
X197310300Y-87900000D01*
X97150000Y-80900000D02*
X93595000Y-84455000D01*
X200220000Y-83290000D02*
X197830000Y-80900000D01*
X200220000Y-86910000D02*
X200220000Y-83290000D01*
X198450000Y-87900000D02*
X199230000Y-87900000D01*
X197830000Y-80900000D02*
X97150000Y-80900000D01*
X199230000Y-87900000D02*
X200220000Y-86910000D01*
D17*
%TO.N,/CSYNC*%
X153650000Y-93050300D02*
X153650000Y-92000000D01*
X153460300Y-93240000D02*
X153650000Y-93050300D01*
X152514900Y-93240000D02*
X153460300Y-93240000D01*
X151746400Y-94008500D02*
X152514900Y-93240000D01*
%TD*%
D22*
%TO.N,GND*%
X207014001Y-82308171D02*
X207014000Y-85741830D01*
X206417020Y-86338811D01*
X206401527Y-86351526D01*
X206350791Y-86413347D01*
X206322361Y-86466536D01*
X206313091Y-86483879D01*
X206289875Y-86560411D01*
X206282037Y-86640000D01*
X206284001Y-86659943D01*
X206284000Y-93090067D01*
X206282037Y-93110000D01*
X206284000Y-93129933D01*
X206284000Y-93129940D01*
X206289875Y-93189589D01*
X206313090Y-93266120D01*
X206350790Y-93336652D01*
X206401526Y-93398474D01*
X206417024Y-93411193D01*
X207014000Y-94008170D01*
X207014001Y-97401829D01*
X205411831Y-99004000D01*
X197178171Y-99004000D01*
X193821193Y-95647024D01*
X193808474Y-95631526D01*
X193746653Y-95580790D01*
X193676121Y-95543090D01*
X193599590Y-95519875D01*
X193539941Y-95514000D01*
X193539933Y-95514000D01*
X193520000Y-95512037D01*
X193500067Y-95514000D01*
X161979932Y-95514000D01*
X161959999Y-95512037D01*
X161940066Y-95514000D01*
X161940059Y-95514000D01*
X161887904Y-95519137D01*
X161880409Y-95519875D01*
X161857194Y-95526917D01*
X161803879Y-95543090D01*
X161733347Y-95580790D01*
X161671526Y-95631526D01*
X161658816Y-95647013D01*
X159217020Y-98088811D01*
X159201527Y-98101526D01*
X159150791Y-98163347D01*
X159131990Y-98198522D01*
X159113091Y-98233879D01*
X159089875Y-98310411D01*
X159082037Y-98390000D01*
X159084001Y-98409943D01*
X159084000Y-101111829D01*
X155231831Y-104964000D01*
X155101921Y-104964000D01*
X156153412Y-103912510D01*
X156171764Y-103897449D01*
X156231872Y-103824207D01*
X156267889Y-103756824D01*
X156276536Y-103740647D01*
X156304040Y-103649978D01*
X156307985Y-103609921D01*
X156327859Y-103596642D01*
X156436642Y-103487859D01*
X156522113Y-103359942D01*
X156580987Y-103217809D01*
X156611000Y-103066922D01*
X156611000Y-102913078D01*
X156580987Y-102762191D01*
X156569261Y-102733883D01*
X156609960Y-102721537D01*
X156693521Y-102676873D01*
X156766763Y-102616765D01*
X156781829Y-102598407D01*
X158463412Y-100916825D01*
X158481764Y-100901764D01*
X158541872Y-100828522D01*
X158576203Y-100764293D01*
X158586536Y-100744962D01*
X158614040Y-100654293D01*
X158623327Y-100560000D01*
X158621000Y-100536374D01*
X158621000Y-98129236D01*
X159283411Y-97466826D01*
X159301764Y-97451764D01*
X159361872Y-97378522D01*
X159406536Y-97294961D01*
X159429015Y-97220858D01*
X159434040Y-97204293D01*
X159443327Y-97110001D01*
X159441000Y-97086374D01*
X159441000Y-95699236D01*
X160035347Y-95104889D01*
X200859000Y-95104889D01*
X200859000Y-95495111D01*
X200935129Y-95877836D01*
X201084461Y-96238355D01*
X201301257Y-96562814D01*
X201577186Y-96838743D01*
X201901645Y-97055539D01*
X202262164Y-97204871D01*
X202644889Y-97281000D01*
X203035111Y-97281000D01*
X203417836Y-97204871D01*
X203778355Y-97055539D01*
X204102814Y-96838743D01*
X204378743Y-96562814D01*
X204595539Y-96238355D01*
X204744871Y-95877836D01*
X204821000Y-95495111D01*
X204821000Y-95104889D01*
X204744871Y-94722164D01*
X204595539Y-94361645D01*
X204378743Y-94037186D01*
X204102814Y-93761257D01*
X203778355Y-93544461D01*
X203417836Y-93395129D01*
X203035111Y-93319000D01*
X202644889Y-93319000D01*
X202262164Y-93395129D01*
X201901645Y-93544461D01*
X201577186Y-93761257D01*
X201301257Y-94037186D01*
X201084461Y-94361645D01*
X200935129Y-94722164D01*
X200859000Y-95104889D01*
X160035347Y-95104889D01*
X161109237Y-94031000D01*
X176866374Y-94031000D01*
X176890000Y-94033327D01*
X176913626Y-94031000D01*
X176984292Y-94024040D01*
X177074961Y-93996536D01*
X177158522Y-93951872D01*
X177231764Y-93891764D01*
X177246830Y-93873406D01*
X179781479Y-91338757D01*
X182079000Y-91338757D01*
X182079000Y-91581243D01*
X182126307Y-91819069D01*
X182219102Y-92043097D01*
X182353820Y-92244717D01*
X182525283Y-92416180D01*
X182726903Y-92550898D01*
X182950931Y-92643693D01*
X183188757Y-92691000D01*
X183431243Y-92691000D01*
X183669069Y-92643693D01*
X183893097Y-92550898D01*
X184094717Y-92416180D01*
X184266180Y-92244717D01*
X184400898Y-92043097D01*
X184493693Y-91819069D01*
X184541000Y-91581243D01*
X184541000Y-91338757D01*
X184619000Y-91338757D01*
X184619000Y-91581243D01*
X184666307Y-91819069D01*
X184759102Y-92043097D01*
X184893820Y-92244717D01*
X185065283Y-92416180D01*
X185266903Y-92550898D01*
X185490931Y-92643693D01*
X185728757Y-92691000D01*
X185971243Y-92691000D01*
X186209069Y-92643693D01*
X186433097Y-92550898D01*
X186634717Y-92416180D01*
X186806180Y-92244717D01*
X186940898Y-92043097D01*
X187033693Y-91819069D01*
X187081000Y-91581243D01*
X187081000Y-91338757D01*
X187159000Y-91338757D01*
X187159000Y-91581243D01*
X187206307Y-91819069D01*
X187299102Y-92043097D01*
X187433820Y-92244717D01*
X187605283Y-92416180D01*
X187806903Y-92550898D01*
X188030931Y-92643693D01*
X188268757Y-92691000D01*
X188511243Y-92691000D01*
X188749069Y-92643693D01*
X188973097Y-92550898D01*
X189174717Y-92416180D01*
X189346180Y-92244717D01*
X189480898Y-92043097D01*
X189573693Y-91819069D01*
X189621000Y-91581243D01*
X189621000Y-91338757D01*
X189699000Y-91338757D01*
X189699000Y-91581243D01*
X189746307Y-91819069D01*
X189839102Y-92043097D01*
X189973820Y-92244717D01*
X190145283Y-92416180D01*
X190346903Y-92550898D01*
X190570931Y-92643693D01*
X190808757Y-92691000D01*
X191051243Y-92691000D01*
X191289069Y-92643693D01*
X191513097Y-92550898D01*
X191714717Y-92416180D01*
X191886180Y-92244717D01*
X192020898Y-92043097D01*
X192068228Y-91928832D01*
X192125843Y-92091252D01*
X192274822Y-92341355D01*
X192469731Y-92557588D01*
X192703080Y-92731641D01*
X192965901Y-92856825D01*
X193113110Y-92901476D01*
X193343000Y-92780155D01*
X193343000Y-91587000D01*
X193323000Y-91587000D01*
X193323000Y-91333000D01*
X193343000Y-91333000D01*
X193343000Y-90139845D01*
X193597000Y-90139845D01*
X193597000Y-91333000D01*
X193617000Y-91333000D01*
X193617000Y-91587000D01*
X193597000Y-91587000D01*
X193597000Y-92780155D01*
X193826890Y-92901476D01*
X193974099Y-92856825D01*
X194236920Y-92731641D01*
X194470269Y-92557588D01*
X194665178Y-92341355D01*
X194777157Y-92153367D01*
X194777157Y-92310000D01*
X194784513Y-92384689D01*
X194806299Y-92456508D01*
X194841678Y-92522696D01*
X194889289Y-92580711D01*
X194947304Y-92628322D01*
X195013492Y-92663701D01*
X195085311Y-92685487D01*
X195160000Y-92692843D01*
X196860000Y-92692843D01*
X196934689Y-92685487D01*
X197006508Y-92663701D01*
X197072696Y-92628322D01*
X197130711Y-92580711D01*
X197178322Y-92522696D01*
X197213701Y-92456508D01*
X197235487Y-92384689D01*
X197242843Y-92310000D01*
X197242843Y-90610000D01*
X197235487Y-90535311D01*
X197213701Y-90463492D01*
X197178322Y-90397304D01*
X197130711Y-90339289D01*
X197072696Y-90291678D01*
X197006508Y-90256299D01*
X196934689Y-90234513D01*
X196860000Y-90227157D01*
X195160000Y-90227157D01*
X195085311Y-90234513D01*
X195013492Y-90256299D01*
X194947304Y-90291678D01*
X194889289Y-90339289D01*
X194841678Y-90397304D01*
X194806299Y-90463492D01*
X194784513Y-90535311D01*
X194777157Y-90610000D01*
X194777157Y-90766633D01*
X194665178Y-90578645D01*
X194470269Y-90362412D01*
X194236920Y-90188359D01*
X193974099Y-90063175D01*
X193826890Y-90018524D01*
X193597000Y-90139845D01*
X193343000Y-90139845D01*
X193113110Y-90018524D01*
X192965901Y-90063175D01*
X192703080Y-90188359D01*
X192469731Y-90362412D01*
X192274822Y-90578645D01*
X192125843Y-90828748D01*
X192068228Y-90991168D01*
X192020898Y-90876903D01*
X191886180Y-90675283D01*
X191714717Y-90503820D01*
X191513097Y-90369102D01*
X191289069Y-90276307D01*
X191051243Y-90229000D01*
X190808757Y-90229000D01*
X190570931Y-90276307D01*
X190346903Y-90369102D01*
X190145283Y-90503820D01*
X189973820Y-90675283D01*
X189839102Y-90876903D01*
X189746307Y-91100931D01*
X189699000Y-91338757D01*
X189621000Y-91338757D01*
X189573693Y-91100931D01*
X189480898Y-90876903D01*
X189346180Y-90675283D01*
X189174717Y-90503820D01*
X188973097Y-90369102D01*
X188749069Y-90276307D01*
X188511243Y-90229000D01*
X188268757Y-90229000D01*
X188030931Y-90276307D01*
X187806903Y-90369102D01*
X187605283Y-90503820D01*
X187433820Y-90675283D01*
X187299102Y-90876903D01*
X187206307Y-91100931D01*
X187159000Y-91338757D01*
X187081000Y-91338757D01*
X187033693Y-91100931D01*
X186940898Y-90876903D01*
X186806180Y-90675283D01*
X186634717Y-90503820D01*
X186433097Y-90369102D01*
X186209069Y-90276307D01*
X185971243Y-90229000D01*
X185728757Y-90229000D01*
X185490931Y-90276307D01*
X185266903Y-90369102D01*
X185065283Y-90503820D01*
X184893820Y-90675283D01*
X184759102Y-90876903D01*
X184666307Y-91100931D01*
X184619000Y-91338757D01*
X184541000Y-91338757D01*
X184493693Y-91100931D01*
X184400898Y-90876903D01*
X184266180Y-90675283D01*
X184094717Y-90503820D01*
X183893097Y-90369102D01*
X183669069Y-90276307D01*
X183431243Y-90229000D01*
X183188757Y-90229000D01*
X182950931Y-90276307D01*
X182726903Y-90369102D01*
X182525283Y-90503820D01*
X182353820Y-90675283D01*
X182219102Y-90876903D01*
X182126307Y-91100931D01*
X182079000Y-91338757D01*
X179781479Y-91338757D01*
X182168448Y-88951789D01*
X182209731Y-88997588D01*
X182443080Y-89171641D01*
X182705901Y-89296825D01*
X182853110Y-89341476D01*
X183083000Y-89220155D01*
X183083000Y-88027000D01*
X183063000Y-88027000D01*
X183063000Y-87773000D01*
X183083000Y-87773000D01*
X183083000Y-87753000D01*
X183337000Y-87753000D01*
X183337000Y-87773000D01*
X183357000Y-87773000D01*
X183357000Y-88027000D01*
X183337000Y-88027000D01*
X183337000Y-89220155D01*
X183566890Y-89341476D01*
X183714099Y-89296825D01*
X183976920Y-89171641D01*
X184210269Y-88997588D01*
X184405178Y-88781355D01*
X184554157Y-88531252D01*
X184611772Y-88368832D01*
X184659102Y-88483097D01*
X184793820Y-88684717D01*
X184965283Y-88856180D01*
X185166903Y-88990898D01*
X185390931Y-89083693D01*
X185628757Y-89131000D01*
X185871243Y-89131000D01*
X186109069Y-89083693D01*
X186333097Y-88990898D01*
X186534717Y-88856180D01*
X186706180Y-88684717D01*
X186840898Y-88483097D01*
X186933693Y-88259069D01*
X186981000Y-88021243D01*
X186981000Y-87778757D01*
X186933693Y-87540931D01*
X186891403Y-87438834D01*
X187219237Y-87111000D01*
X187338103Y-87111000D01*
X187333820Y-87115283D01*
X187199102Y-87316903D01*
X187106307Y-87540931D01*
X187059000Y-87778757D01*
X187059000Y-88021243D01*
X187106307Y-88259069D01*
X187199102Y-88483097D01*
X187333820Y-88684717D01*
X187505283Y-88856180D01*
X187706903Y-88990898D01*
X187930931Y-89083693D01*
X188168757Y-89131000D01*
X188411243Y-89131000D01*
X188649069Y-89083693D01*
X188873097Y-88990898D01*
X189074717Y-88856180D01*
X189246180Y-88684717D01*
X189380898Y-88483097D01*
X189473693Y-88259069D01*
X189521000Y-88021243D01*
X189521000Y-87778757D01*
X189473693Y-87540931D01*
X189380898Y-87316903D01*
X189246180Y-87115283D01*
X189241897Y-87111000D01*
X189878103Y-87111000D01*
X189873820Y-87115283D01*
X189739102Y-87316903D01*
X189646307Y-87540931D01*
X189599000Y-87778757D01*
X189599000Y-88021243D01*
X189646307Y-88259069D01*
X189739102Y-88483097D01*
X189873820Y-88684717D01*
X190045283Y-88856180D01*
X190246903Y-88990898D01*
X190470931Y-89083693D01*
X190708757Y-89131000D01*
X190951243Y-89131000D01*
X191189069Y-89083693D01*
X191413097Y-88990898D01*
X191614717Y-88856180D01*
X191786180Y-88684717D01*
X191920898Y-88483097D01*
X191968228Y-88368832D01*
X192025843Y-88531252D01*
X192174822Y-88781355D01*
X192369731Y-88997588D01*
X192603080Y-89171641D01*
X192865901Y-89296825D01*
X193013110Y-89341476D01*
X193243000Y-89220155D01*
X193243000Y-88027000D01*
X193223000Y-88027000D01*
X193223000Y-87773000D01*
X193243000Y-87773000D01*
X193243000Y-87753000D01*
X193497000Y-87753000D01*
X193497000Y-87773000D01*
X193517000Y-87773000D01*
X193517000Y-88027000D01*
X193497000Y-88027000D01*
X193497000Y-89220155D01*
X193726890Y-89341476D01*
X193874099Y-89296825D01*
X194136920Y-89171641D01*
X194370269Y-88997588D01*
X194565178Y-88781355D01*
X194714157Y-88531252D01*
X194771772Y-88368832D01*
X194819102Y-88483097D01*
X194953820Y-88684717D01*
X195125283Y-88856180D01*
X195326903Y-88990898D01*
X195550931Y-89083693D01*
X195788757Y-89131000D01*
X196031243Y-89131000D01*
X196269069Y-89083693D01*
X196493097Y-88990898D01*
X196694717Y-88856180D01*
X196866180Y-88684717D01*
X196902073Y-88631000D01*
X197457927Y-88631000D01*
X197493820Y-88684717D01*
X197665283Y-88856180D01*
X197866903Y-88990898D01*
X198090931Y-89083693D01*
X198328757Y-89131000D01*
X198571243Y-89131000D01*
X198809069Y-89083693D01*
X199033097Y-88990898D01*
X199234717Y-88856180D01*
X199406180Y-88684717D01*
X199468420Y-88591568D01*
X199511095Y-88578623D01*
X199638086Y-88510744D01*
X199749395Y-88419395D01*
X199772282Y-88391507D01*
X200711516Y-87452274D01*
X200739394Y-87429395D01*
X200762274Y-87401516D01*
X200762280Y-87401510D01*
X200830744Y-87318087D01*
X200876810Y-87231903D01*
X200898623Y-87191095D01*
X200940422Y-87053301D01*
X200951000Y-86945901D01*
X200951000Y-86945892D01*
X200954535Y-86910001D01*
X200951000Y-86874110D01*
X200951000Y-86125000D01*
X201561928Y-86125000D01*
X201574188Y-86249482D01*
X201610498Y-86369180D01*
X201669463Y-86479494D01*
X201748815Y-86576185D01*
X201845506Y-86655537D01*
X201955820Y-86714502D01*
X202075518Y-86750812D01*
X202200000Y-86763072D01*
X202410294Y-86761927D01*
X202265283Y-86858820D01*
X202093820Y-87030283D01*
X201959102Y-87231903D01*
X201866307Y-87455931D01*
X201819000Y-87693757D01*
X201819000Y-87936243D01*
X201866307Y-88174069D01*
X201959102Y-88398097D01*
X202093820Y-88599717D01*
X202265283Y-88771180D01*
X202466903Y-88905898D01*
X202690931Y-88998693D01*
X202928757Y-89046000D01*
X203171243Y-89046000D01*
X203409069Y-88998693D01*
X203633097Y-88905898D01*
X203834717Y-88771180D01*
X204006180Y-88599717D01*
X204140898Y-88398097D01*
X204233693Y-88174069D01*
X204281000Y-87936243D01*
X204281000Y-87693757D01*
X204233693Y-87455931D01*
X204140898Y-87231903D01*
X204006180Y-87030283D01*
X203834717Y-86858820D01*
X203689706Y-86761927D01*
X203900000Y-86763072D01*
X204024482Y-86750812D01*
X204144180Y-86714502D01*
X204254494Y-86655537D01*
X204351185Y-86576185D01*
X204430537Y-86479494D01*
X204489502Y-86369180D01*
X204525812Y-86249482D01*
X204538072Y-86125000D01*
X204535000Y-85560750D01*
X204376250Y-85402000D01*
X203177000Y-85402000D01*
X203177000Y-85422000D01*
X202923000Y-85422000D01*
X202923000Y-85402000D01*
X201723750Y-85402000D01*
X201565000Y-85560750D01*
X201561928Y-86125000D01*
X200951000Y-86125000D01*
X200951000Y-84425000D01*
X201561928Y-84425000D01*
X201565000Y-84989250D01*
X201723750Y-85148000D01*
X202923000Y-85148000D01*
X202923000Y-83948750D01*
X203177000Y-83948750D01*
X203177000Y-85148000D01*
X204376250Y-85148000D01*
X204535000Y-84989250D01*
X204538072Y-84425000D01*
X204525812Y-84300518D01*
X204489502Y-84180820D01*
X204430537Y-84070506D01*
X204351185Y-83973815D01*
X204254494Y-83894463D01*
X204144180Y-83835498D01*
X204024482Y-83799188D01*
X203900000Y-83786928D01*
X203335750Y-83790000D01*
X203177000Y-83948750D01*
X202923000Y-83948750D01*
X202764250Y-83790000D01*
X202200000Y-83786928D01*
X202075518Y-83799188D01*
X201955820Y-83835498D01*
X201845506Y-83894463D01*
X201748815Y-83973815D01*
X201669463Y-84070506D01*
X201610498Y-84180820D01*
X201574188Y-84300518D01*
X201561928Y-84425000D01*
X200951000Y-84425000D01*
X200951000Y-83325890D01*
X200954535Y-83289999D01*
X200951000Y-83254108D01*
X200951000Y-83254099D01*
X200940422Y-83146699D01*
X200898623Y-83008905D01*
X200861792Y-82940000D01*
X200830744Y-82881913D01*
X200762280Y-82798490D01*
X200762278Y-82798488D01*
X200739395Y-82770605D01*
X200711512Y-82747722D01*
X198679789Y-80716000D01*
X205421831Y-80716000D01*
X207014001Y-82308171D01*
%TA.AperFunction,Conductor*%
D23*
G36*
X207014001Y-82308171D02*
G01*
X207014000Y-85741830D01*
X206417020Y-86338811D01*
X206401527Y-86351526D01*
X206350791Y-86413347D01*
X206322361Y-86466536D01*
X206313091Y-86483879D01*
X206289875Y-86560411D01*
X206282037Y-86640000D01*
X206284001Y-86659943D01*
X206284000Y-93090067D01*
X206282037Y-93110000D01*
X206284000Y-93129933D01*
X206284000Y-93129940D01*
X206289875Y-93189589D01*
X206313090Y-93266120D01*
X206350790Y-93336652D01*
X206401526Y-93398474D01*
X206417024Y-93411193D01*
X207014000Y-94008170D01*
X207014001Y-97401829D01*
X205411831Y-99004000D01*
X197178171Y-99004000D01*
X193821193Y-95647024D01*
X193808474Y-95631526D01*
X193746653Y-95580790D01*
X193676121Y-95543090D01*
X193599590Y-95519875D01*
X193539941Y-95514000D01*
X193539933Y-95514000D01*
X193520000Y-95512037D01*
X193500067Y-95514000D01*
X161979932Y-95514000D01*
X161959999Y-95512037D01*
X161940066Y-95514000D01*
X161940059Y-95514000D01*
X161887904Y-95519137D01*
X161880409Y-95519875D01*
X161857194Y-95526917D01*
X161803879Y-95543090D01*
X161733347Y-95580790D01*
X161671526Y-95631526D01*
X161658816Y-95647013D01*
X159217020Y-98088811D01*
X159201527Y-98101526D01*
X159150791Y-98163347D01*
X159131990Y-98198522D01*
X159113091Y-98233879D01*
X159089875Y-98310411D01*
X159082037Y-98390000D01*
X159084001Y-98409943D01*
X159084000Y-101111829D01*
X155231831Y-104964000D01*
X155101921Y-104964000D01*
X156153412Y-103912510D01*
X156171764Y-103897449D01*
X156231872Y-103824207D01*
X156267889Y-103756824D01*
X156276536Y-103740647D01*
X156304040Y-103649978D01*
X156307985Y-103609921D01*
X156327859Y-103596642D01*
X156436642Y-103487859D01*
X156522113Y-103359942D01*
X156580987Y-103217809D01*
X156611000Y-103066922D01*
X156611000Y-102913078D01*
X156580987Y-102762191D01*
X156569261Y-102733883D01*
X156609960Y-102721537D01*
X156693521Y-102676873D01*
X156766763Y-102616765D01*
X156781829Y-102598407D01*
X158463412Y-100916825D01*
X158481764Y-100901764D01*
X158541872Y-100828522D01*
X158576203Y-100764293D01*
X158586536Y-100744962D01*
X158614040Y-100654293D01*
X158623327Y-100560000D01*
X158621000Y-100536374D01*
X158621000Y-98129236D01*
X159283411Y-97466826D01*
X159301764Y-97451764D01*
X159361872Y-97378522D01*
X159406536Y-97294961D01*
X159429015Y-97220858D01*
X159434040Y-97204293D01*
X159443327Y-97110001D01*
X159441000Y-97086374D01*
X159441000Y-95699236D01*
X160035347Y-95104889D01*
X200859000Y-95104889D01*
X200859000Y-95495111D01*
X200935129Y-95877836D01*
X201084461Y-96238355D01*
X201301257Y-96562814D01*
X201577186Y-96838743D01*
X201901645Y-97055539D01*
X202262164Y-97204871D01*
X202644889Y-97281000D01*
X203035111Y-97281000D01*
X203417836Y-97204871D01*
X203778355Y-97055539D01*
X204102814Y-96838743D01*
X204378743Y-96562814D01*
X204595539Y-96238355D01*
X204744871Y-95877836D01*
X204821000Y-95495111D01*
X204821000Y-95104889D01*
X204744871Y-94722164D01*
X204595539Y-94361645D01*
X204378743Y-94037186D01*
X204102814Y-93761257D01*
X203778355Y-93544461D01*
X203417836Y-93395129D01*
X203035111Y-93319000D01*
X202644889Y-93319000D01*
X202262164Y-93395129D01*
X201901645Y-93544461D01*
X201577186Y-93761257D01*
X201301257Y-94037186D01*
X201084461Y-94361645D01*
X200935129Y-94722164D01*
X200859000Y-95104889D01*
X160035347Y-95104889D01*
X161109237Y-94031000D01*
X176866374Y-94031000D01*
X176890000Y-94033327D01*
X176913626Y-94031000D01*
X176984292Y-94024040D01*
X177074961Y-93996536D01*
X177158522Y-93951872D01*
X177231764Y-93891764D01*
X177246830Y-93873406D01*
X179781479Y-91338757D01*
X182079000Y-91338757D01*
X182079000Y-91581243D01*
X182126307Y-91819069D01*
X182219102Y-92043097D01*
X182353820Y-92244717D01*
X182525283Y-92416180D01*
X182726903Y-92550898D01*
X182950931Y-92643693D01*
X183188757Y-92691000D01*
X183431243Y-92691000D01*
X183669069Y-92643693D01*
X183893097Y-92550898D01*
X184094717Y-92416180D01*
X184266180Y-92244717D01*
X184400898Y-92043097D01*
X184493693Y-91819069D01*
X184541000Y-91581243D01*
X184541000Y-91338757D01*
X184619000Y-91338757D01*
X184619000Y-91581243D01*
X184666307Y-91819069D01*
X184759102Y-92043097D01*
X184893820Y-92244717D01*
X185065283Y-92416180D01*
X185266903Y-92550898D01*
X185490931Y-92643693D01*
X185728757Y-92691000D01*
X185971243Y-92691000D01*
X186209069Y-92643693D01*
X186433097Y-92550898D01*
X186634717Y-92416180D01*
X186806180Y-92244717D01*
X186940898Y-92043097D01*
X187033693Y-91819069D01*
X187081000Y-91581243D01*
X187081000Y-91338757D01*
X187159000Y-91338757D01*
X187159000Y-91581243D01*
X187206307Y-91819069D01*
X187299102Y-92043097D01*
X187433820Y-92244717D01*
X187605283Y-92416180D01*
X187806903Y-92550898D01*
X188030931Y-92643693D01*
X188268757Y-92691000D01*
X188511243Y-92691000D01*
X188749069Y-92643693D01*
X188973097Y-92550898D01*
X189174717Y-92416180D01*
X189346180Y-92244717D01*
X189480898Y-92043097D01*
X189573693Y-91819069D01*
X189621000Y-91581243D01*
X189621000Y-91338757D01*
X189699000Y-91338757D01*
X189699000Y-91581243D01*
X189746307Y-91819069D01*
X189839102Y-92043097D01*
X189973820Y-92244717D01*
X190145283Y-92416180D01*
X190346903Y-92550898D01*
X190570931Y-92643693D01*
X190808757Y-92691000D01*
X191051243Y-92691000D01*
X191289069Y-92643693D01*
X191513097Y-92550898D01*
X191714717Y-92416180D01*
X191886180Y-92244717D01*
X192020898Y-92043097D01*
X192068228Y-91928832D01*
X192125843Y-92091252D01*
X192274822Y-92341355D01*
X192469731Y-92557588D01*
X192703080Y-92731641D01*
X192965901Y-92856825D01*
X193113110Y-92901476D01*
X193343000Y-92780155D01*
X193343000Y-91587000D01*
X193323000Y-91587000D01*
X193323000Y-91333000D01*
X193343000Y-91333000D01*
X193343000Y-90139845D01*
X193597000Y-90139845D01*
X193597000Y-91333000D01*
X193617000Y-91333000D01*
X193617000Y-91587000D01*
X193597000Y-91587000D01*
X193597000Y-92780155D01*
X193826890Y-92901476D01*
X193974099Y-92856825D01*
X194236920Y-92731641D01*
X194470269Y-92557588D01*
X194665178Y-92341355D01*
X194777157Y-92153367D01*
X194777157Y-92310000D01*
X194784513Y-92384689D01*
X194806299Y-92456508D01*
X194841678Y-92522696D01*
X194889289Y-92580711D01*
X194947304Y-92628322D01*
X195013492Y-92663701D01*
X195085311Y-92685487D01*
X195160000Y-92692843D01*
X196860000Y-92692843D01*
X196934689Y-92685487D01*
X197006508Y-92663701D01*
X197072696Y-92628322D01*
X197130711Y-92580711D01*
X197178322Y-92522696D01*
X197213701Y-92456508D01*
X197235487Y-92384689D01*
X197242843Y-92310000D01*
X197242843Y-90610000D01*
X197235487Y-90535311D01*
X197213701Y-90463492D01*
X197178322Y-90397304D01*
X197130711Y-90339289D01*
X197072696Y-90291678D01*
X197006508Y-90256299D01*
X196934689Y-90234513D01*
X196860000Y-90227157D01*
X195160000Y-90227157D01*
X195085311Y-90234513D01*
X195013492Y-90256299D01*
X194947304Y-90291678D01*
X194889289Y-90339289D01*
X194841678Y-90397304D01*
X194806299Y-90463492D01*
X194784513Y-90535311D01*
X194777157Y-90610000D01*
X194777157Y-90766633D01*
X194665178Y-90578645D01*
X194470269Y-90362412D01*
X194236920Y-90188359D01*
X193974099Y-90063175D01*
X193826890Y-90018524D01*
X193597000Y-90139845D01*
X193343000Y-90139845D01*
X193113110Y-90018524D01*
X192965901Y-90063175D01*
X192703080Y-90188359D01*
X192469731Y-90362412D01*
X192274822Y-90578645D01*
X192125843Y-90828748D01*
X192068228Y-90991168D01*
X192020898Y-90876903D01*
X191886180Y-90675283D01*
X191714717Y-90503820D01*
X191513097Y-90369102D01*
X191289069Y-90276307D01*
X191051243Y-90229000D01*
X190808757Y-90229000D01*
X190570931Y-90276307D01*
X190346903Y-90369102D01*
X190145283Y-90503820D01*
X189973820Y-90675283D01*
X189839102Y-90876903D01*
X189746307Y-91100931D01*
X189699000Y-91338757D01*
X189621000Y-91338757D01*
X189573693Y-91100931D01*
X189480898Y-90876903D01*
X189346180Y-90675283D01*
X189174717Y-90503820D01*
X188973097Y-90369102D01*
X188749069Y-90276307D01*
X188511243Y-90229000D01*
X188268757Y-90229000D01*
X188030931Y-90276307D01*
X187806903Y-90369102D01*
X187605283Y-90503820D01*
X187433820Y-90675283D01*
X187299102Y-90876903D01*
X187206307Y-91100931D01*
X187159000Y-91338757D01*
X187081000Y-91338757D01*
X187033693Y-91100931D01*
X186940898Y-90876903D01*
X186806180Y-90675283D01*
X186634717Y-90503820D01*
X186433097Y-90369102D01*
X186209069Y-90276307D01*
X185971243Y-90229000D01*
X185728757Y-90229000D01*
X185490931Y-90276307D01*
X185266903Y-90369102D01*
X185065283Y-90503820D01*
X184893820Y-90675283D01*
X184759102Y-90876903D01*
X184666307Y-91100931D01*
X184619000Y-91338757D01*
X184541000Y-91338757D01*
X184493693Y-91100931D01*
X184400898Y-90876903D01*
X184266180Y-90675283D01*
X184094717Y-90503820D01*
X183893097Y-90369102D01*
X183669069Y-90276307D01*
X183431243Y-90229000D01*
X183188757Y-90229000D01*
X182950931Y-90276307D01*
X182726903Y-90369102D01*
X182525283Y-90503820D01*
X182353820Y-90675283D01*
X182219102Y-90876903D01*
X182126307Y-91100931D01*
X182079000Y-91338757D01*
X179781479Y-91338757D01*
X182168448Y-88951789D01*
X182209731Y-88997588D01*
X182443080Y-89171641D01*
X182705901Y-89296825D01*
X182853110Y-89341476D01*
X183083000Y-89220155D01*
X183083000Y-88027000D01*
X183063000Y-88027000D01*
X183063000Y-87773000D01*
X183083000Y-87773000D01*
X183083000Y-87753000D01*
X183337000Y-87753000D01*
X183337000Y-87773000D01*
X183357000Y-87773000D01*
X183357000Y-88027000D01*
X183337000Y-88027000D01*
X183337000Y-89220155D01*
X183566890Y-89341476D01*
X183714099Y-89296825D01*
X183976920Y-89171641D01*
X184210269Y-88997588D01*
X184405178Y-88781355D01*
X184554157Y-88531252D01*
X184611772Y-88368832D01*
X184659102Y-88483097D01*
X184793820Y-88684717D01*
X184965283Y-88856180D01*
X185166903Y-88990898D01*
X185390931Y-89083693D01*
X185628757Y-89131000D01*
X185871243Y-89131000D01*
X186109069Y-89083693D01*
X186333097Y-88990898D01*
X186534717Y-88856180D01*
X186706180Y-88684717D01*
X186840898Y-88483097D01*
X186933693Y-88259069D01*
X186981000Y-88021243D01*
X186981000Y-87778757D01*
X186933693Y-87540931D01*
X186891403Y-87438834D01*
X187219237Y-87111000D01*
X187338103Y-87111000D01*
X187333820Y-87115283D01*
X187199102Y-87316903D01*
X187106307Y-87540931D01*
X187059000Y-87778757D01*
X187059000Y-88021243D01*
X187106307Y-88259069D01*
X187199102Y-88483097D01*
X187333820Y-88684717D01*
X187505283Y-88856180D01*
X187706903Y-88990898D01*
X187930931Y-89083693D01*
X188168757Y-89131000D01*
X188411243Y-89131000D01*
X188649069Y-89083693D01*
X188873097Y-88990898D01*
X189074717Y-88856180D01*
X189246180Y-88684717D01*
X189380898Y-88483097D01*
X189473693Y-88259069D01*
X189521000Y-88021243D01*
X189521000Y-87778757D01*
X189473693Y-87540931D01*
X189380898Y-87316903D01*
X189246180Y-87115283D01*
X189241897Y-87111000D01*
X189878103Y-87111000D01*
X189873820Y-87115283D01*
X189739102Y-87316903D01*
X189646307Y-87540931D01*
X189599000Y-87778757D01*
X189599000Y-88021243D01*
X189646307Y-88259069D01*
X189739102Y-88483097D01*
X189873820Y-88684717D01*
X190045283Y-88856180D01*
X190246903Y-88990898D01*
X190470931Y-89083693D01*
X190708757Y-89131000D01*
X190951243Y-89131000D01*
X191189069Y-89083693D01*
X191413097Y-88990898D01*
X191614717Y-88856180D01*
X191786180Y-88684717D01*
X191920898Y-88483097D01*
X191968228Y-88368832D01*
X192025843Y-88531252D01*
X192174822Y-88781355D01*
X192369731Y-88997588D01*
X192603080Y-89171641D01*
X192865901Y-89296825D01*
X193013110Y-89341476D01*
X193243000Y-89220155D01*
X193243000Y-88027000D01*
X193223000Y-88027000D01*
X193223000Y-87773000D01*
X193243000Y-87773000D01*
X193243000Y-87753000D01*
X193497000Y-87753000D01*
X193497000Y-87773000D01*
X193517000Y-87773000D01*
X193517000Y-88027000D01*
X193497000Y-88027000D01*
X193497000Y-89220155D01*
X193726890Y-89341476D01*
X193874099Y-89296825D01*
X194136920Y-89171641D01*
X194370269Y-88997588D01*
X194565178Y-88781355D01*
X194714157Y-88531252D01*
X194771772Y-88368832D01*
X194819102Y-88483097D01*
X194953820Y-88684717D01*
X195125283Y-88856180D01*
X195326903Y-88990898D01*
X195550931Y-89083693D01*
X195788757Y-89131000D01*
X196031243Y-89131000D01*
X196269069Y-89083693D01*
X196493097Y-88990898D01*
X196694717Y-88856180D01*
X196866180Y-88684717D01*
X196902073Y-88631000D01*
X197457927Y-88631000D01*
X197493820Y-88684717D01*
X197665283Y-88856180D01*
X197866903Y-88990898D01*
X198090931Y-89083693D01*
X198328757Y-89131000D01*
X198571243Y-89131000D01*
X198809069Y-89083693D01*
X199033097Y-88990898D01*
X199234717Y-88856180D01*
X199406180Y-88684717D01*
X199468420Y-88591568D01*
X199511095Y-88578623D01*
X199638086Y-88510744D01*
X199749395Y-88419395D01*
X199772282Y-88391507D01*
X200711516Y-87452274D01*
X200739394Y-87429395D01*
X200762274Y-87401516D01*
X200762280Y-87401510D01*
X200830744Y-87318087D01*
X200876810Y-87231903D01*
X200898623Y-87191095D01*
X200940422Y-87053301D01*
X200951000Y-86945901D01*
X200951000Y-86945892D01*
X200954535Y-86910001D01*
X200951000Y-86874110D01*
X200951000Y-86125000D01*
X201561928Y-86125000D01*
X201574188Y-86249482D01*
X201610498Y-86369180D01*
X201669463Y-86479494D01*
X201748815Y-86576185D01*
X201845506Y-86655537D01*
X201955820Y-86714502D01*
X202075518Y-86750812D01*
X202200000Y-86763072D01*
X202410294Y-86761927D01*
X202265283Y-86858820D01*
X202093820Y-87030283D01*
X201959102Y-87231903D01*
X201866307Y-87455931D01*
X201819000Y-87693757D01*
X201819000Y-87936243D01*
X201866307Y-88174069D01*
X201959102Y-88398097D01*
X202093820Y-88599717D01*
X202265283Y-88771180D01*
X202466903Y-88905898D01*
X202690931Y-88998693D01*
X202928757Y-89046000D01*
X203171243Y-89046000D01*
X203409069Y-88998693D01*
X203633097Y-88905898D01*
X203834717Y-88771180D01*
X204006180Y-88599717D01*
X204140898Y-88398097D01*
X204233693Y-88174069D01*
X204281000Y-87936243D01*
X204281000Y-87693757D01*
X204233693Y-87455931D01*
X204140898Y-87231903D01*
X204006180Y-87030283D01*
X203834717Y-86858820D01*
X203689706Y-86761927D01*
X203900000Y-86763072D01*
X204024482Y-86750812D01*
X204144180Y-86714502D01*
X204254494Y-86655537D01*
X204351185Y-86576185D01*
X204430537Y-86479494D01*
X204489502Y-86369180D01*
X204525812Y-86249482D01*
X204538072Y-86125000D01*
X204535000Y-85560750D01*
X204376250Y-85402000D01*
X203177000Y-85402000D01*
X203177000Y-85422000D01*
X202923000Y-85422000D01*
X202923000Y-85402000D01*
X201723750Y-85402000D01*
X201565000Y-85560750D01*
X201561928Y-86125000D01*
X200951000Y-86125000D01*
X200951000Y-84425000D01*
X201561928Y-84425000D01*
X201565000Y-84989250D01*
X201723750Y-85148000D01*
X202923000Y-85148000D01*
X202923000Y-83948750D01*
X203177000Y-83948750D01*
X203177000Y-85148000D01*
X204376250Y-85148000D01*
X204535000Y-84989250D01*
X204538072Y-84425000D01*
X204525812Y-84300518D01*
X204489502Y-84180820D01*
X204430537Y-84070506D01*
X204351185Y-83973815D01*
X204254494Y-83894463D01*
X204144180Y-83835498D01*
X204024482Y-83799188D01*
X203900000Y-83786928D01*
X203335750Y-83790000D01*
X203177000Y-83948750D01*
X202923000Y-83948750D01*
X202764250Y-83790000D01*
X202200000Y-83786928D01*
X202075518Y-83799188D01*
X201955820Y-83835498D01*
X201845506Y-83894463D01*
X201748815Y-83973815D01*
X201669463Y-84070506D01*
X201610498Y-84180820D01*
X201574188Y-84300518D01*
X201561928Y-84425000D01*
X200951000Y-84425000D01*
X200951000Y-83325890D01*
X200954535Y-83289999D01*
X200951000Y-83254108D01*
X200951000Y-83254099D01*
X200940422Y-83146699D01*
X200898623Y-83008905D01*
X200861792Y-82940000D01*
X200830744Y-82881913D01*
X200762280Y-82798490D01*
X200762278Y-82798488D01*
X200739395Y-82770605D01*
X200711512Y-82747722D01*
X198679789Y-80716000D01*
X205421831Y-80716000D01*
X207014001Y-82308171D01*
G37*
%TD.AperFunction*%
D22*
X93737085Y-83279126D02*
X93711318Y-83274000D01*
X93478682Y-83274000D01*
X93250515Y-83319386D01*
X93035587Y-83408412D01*
X92842157Y-83537658D01*
X92677658Y-83702157D01*
X92548412Y-83895587D01*
X92459386Y-84110515D01*
X92414000Y-84338682D01*
X92414000Y-84571318D01*
X92459386Y-84799485D01*
X92548412Y-85014413D01*
X92677658Y-85207843D01*
X92842157Y-85372342D01*
X93035587Y-85501588D01*
X93250515Y-85590614D01*
X93478682Y-85636000D01*
X93711318Y-85636000D01*
X93939485Y-85590614D01*
X94154413Y-85501588D01*
X94347843Y-85372342D01*
X94512342Y-85207843D01*
X94641588Y-85014413D01*
X94730614Y-84799485D01*
X94776000Y-84571318D01*
X94776000Y-84338682D01*
X94770874Y-84312915D01*
X95017850Y-84065940D01*
X94999386Y-84110515D01*
X94954000Y-84338682D01*
X94954000Y-84571318D01*
X94999386Y-84799485D01*
X95088412Y-85014413D01*
X95217658Y-85207843D01*
X95382157Y-85372342D01*
X95575587Y-85501588D01*
X95790515Y-85590614D01*
X96018682Y-85636000D01*
X96251318Y-85636000D01*
X96479485Y-85590614D01*
X96694413Y-85501588D01*
X96887843Y-85372342D01*
X97052342Y-85207843D01*
X97181588Y-85014413D01*
X97270614Y-84799485D01*
X97316000Y-84571318D01*
X97316000Y-84338682D01*
X97494000Y-84338682D01*
X97494000Y-84571318D01*
X97539386Y-84799485D01*
X97628412Y-85014413D01*
X97757658Y-85207843D01*
X97922157Y-85372342D01*
X98115587Y-85501588D01*
X98330515Y-85590614D01*
X98558682Y-85636000D01*
X98791318Y-85636000D01*
X99019485Y-85590614D01*
X99234413Y-85501588D01*
X99427843Y-85372342D01*
X99592342Y-85207843D01*
X99721588Y-85014413D01*
X99810614Y-84799485D01*
X99856000Y-84571318D01*
X99856000Y-84338682D01*
X100034000Y-84338682D01*
X100034000Y-84571318D01*
X100079386Y-84799485D01*
X100168412Y-85014413D01*
X100297658Y-85207843D01*
X100462157Y-85372342D01*
X100655587Y-85501588D01*
X100870515Y-85590614D01*
X101098682Y-85636000D01*
X101331318Y-85636000D01*
X101559485Y-85590614D01*
X101774413Y-85501588D01*
X101967843Y-85372342D01*
X102132342Y-85207843D01*
X102261588Y-85014413D01*
X102350614Y-84799485D01*
X102396000Y-84571318D01*
X102396000Y-84338682D01*
X102574000Y-84338682D01*
X102574000Y-84571318D01*
X102619386Y-84799485D01*
X102708412Y-85014413D01*
X102837658Y-85207843D01*
X103002157Y-85372342D01*
X103195587Y-85501588D01*
X103410515Y-85590614D01*
X103638682Y-85636000D01*
X103871318Y-85636000D01*
X104099485Y-85590614D01*
X104314413Y-85501588D01*
X104507843Y-85372342D01*
X104672342Y-85207843D01*
X104801588Y-85014413D01*
X104890614Y-84799485D01*
X104936000Y-84571318D01*
X104936000Y-84338682D01*
X105114000Y-84338682D01*
X105114000Y-84571318D01*
X105159386Y-84799485D01*
X105248412Y-85014413D01*
X105377658Y-85207843D01*
X105542157Y-85372342D01*
X105735587Y-85501588D01*
X105950515Y-85590614D01*
X106178682Y-85636000D01*
X106411318Y-85636000D01*
X106639485Y-85590614D01*
X106854413Y-85501588D01*
X107047843Y-85372342D01*
X107212342Y-85207843D01*
X107341588Y-85014413D01*
X107430614Y-84799485D01*
X107476000Y-84571318D01*
X107476000Y-84338682D01*
X107654000Y-84338682D01*
X107654000Y-84571318D01*
X107699386Y-84799485D01*
X107788412Y-85014413D01*
X107917658Y-85207843D01*
X108082157Y-85372342D01*
X108275587Y-85501588D01*
X108490515Y-85590614D01*
X108718682Y-85636000D01*
X108951318Y-85636000D01*
X109179485Y-85590614D01*
X109394413Y-85501588D01*
X109587843Y-85372342D01*
X109752342Y-85207843D01*
X109881588Y-85014413D01*
X109970614Y-84799485D01*
X110016000Y-84571318D01*
X110016000Y-84338682D01*
X110194000Y-84338682D01*
X110194000Y-84571318D01*
X110239386Y-84799485D01*
X110328412Y-85014413D01*
X110457658Y-85207843D01*
X110622157Y-85372342D01*
X110815587Y-85501588D01*
X111030515Y-85590614D01*
X111258682Y-85636000D01*
X111491318Y-85636000D01*
X111719485Y-85590614D01*
X111934413Y-85501588D01*
X112127843Y-85372342D01*
X112292342Y-85207843D01*
X112421588Y-85014413D01*
X112510614Y-84799485D01*
X112556000Y-84571318D01*
X112556000Y-84338682D01*
X112734000Y-84338682D01*
X112734000Y-84571318D01*
X112779386Y-84799485D01*
X112868412Y-85014413D01*
X112997658Y-85207843D01*
X113162157Y-85372342D01*
X113355587Y-85501588D01*
X113570515Y-85590614D01*
X113798682Y-85636000D01*
X114031318Y-85636000D01*
X114259485Y-85590614D01*
X114474413Y-85501588D01*
X114667843Y-85372342D01*
X114832342Y-85207843D01*
X114961588Y-85014413D01*
X115050614Y-84799485D01*
X115096000Y-84571318D01*
X115096000Y-84338682D01*
X115274000Y-84338682D01*
X115274000Y-84571318D01*
X115319386Y-84799485D01*
X115408412Y-85014413D01*
X115537658Y-85207843D01*
X115702157Y-85372342D01*
X115895587Y-85501588D01*
X116110515Y-85590614D01*
X116338682Y-85636000D01*
X116571318Y-85636000D01*
X116799485Y-85590614D01*
X117014413Y-85501588D01*
X117207843Y-85372342D01*
X117372342Y-85207843D01*
X117501588Y-85014413D01*
X117590614Y-84799485D01*
X117636000Y-84571318D01*
X117636000Y-84338682D01*
X117814000Y-84338682D01*
X117814000Y-84571318D01*
X117859386Y-84799485D01*
X117948412Y-85014413D01*
X118077658Y-85207843D01*
X118242157Y-85372342D01*
X118435587Y-85501588D01*
X118650515Y-85590614D01*
X118878682Y-85636000D01*
X119111318Y-85636000D01*
X119339485Y-85590614D01*
X119554413Y-85501588D01*
X119747843Y-85372342D01*
X119912342Y-85207843D01*
X120041588Y-85014413D01*
X120130614Y-84799485D01*
X120176000Y-84571318D01*
X120176000Y-84338682D01*
X120354000Y-84338682D01*
X120354000Y-84571318D01*
X120399386Y-84799485D01*
X120488412Y-85014413D01*
X120617658Y-85207843D01*
X120782157Y-85372342D01*
X120975587Y-85501588D01*
X121190515Y-85590614D01*
X121418682Y-85636000D01*
X121651318Y-85636000D01*
X121879485Y-85590614D01*
X122094413Y-85501588D01*
X122287843Y-85372342D01*
X122452342Y-85207843D01*
X122581588Y-85014413D01*
X122670614Y-84799485D01*
X122716000Y-84571318D01*
X122716000Y-84338682D01*
X122894000Y-84338682D01*
X122894000Y-84571318D01*
X122939386Y-84799485D01*
X123028412Y-85014413D01*
X123157658Y-85207843D01*
X123322157Y-85372342D01*
X123515587Y-85501588D01*
X123730515Y-85590614D01*
X123958682Y-85636000D01*
X124191318Y-85636000D01*
X124419485Y-85590614D01*
X124634413Y-85501588D01*
X124827843Y-85372342D01*
X124992342Y-85207843D01*
X125121588Y-85014413D01*
X125210614Y-84799485D01*
X125256000Y-84571318D01*
X125256000Y-84338682D01*
X125434000Y-84338682D01*
X125434000Y-84571318D01*
X125479386Y-84799485D01*
X125568412Y-85014413D01*
X125697658Y-85207843D01*
X125862157Y-85372342D01*
X126055587Y-85501588D01*
X126270515Y-85590614D01*
X126498682Y-85636000D01*
X126731318Y-85636000D01*
X126959485Y-85590614D01*
X127174413Y-85501588D01*
X127367843Y-85372342D01*
X127532342Y-85207843D01*
X127661588Y-85014413D01*
X127750614Y-84799485D01*
X127796000Y-84571318D01*
X127796000Y-84338682D01*
X127974000Y-84338682D01*
X127974000Y-84571318D01*
X128019386Y-84799485D01*
X128108412Y-85014413D01*
X128237658Y-85207843D01*
X128402157Y-85372342D01*
X128595587Y-85501588D01*
X128810515Y-85590614D01*
X129038682Y-85636000D01*
X129271318Y-85636000D01*
X129499485Y-85590614D01*
X129714413Y-85501588D01*
X129907843Y-85372342D01*
X130072342Y-85207843D01*
X130201588Y-85014413D01*
X130290614Y-84799485D01*
X130336000Y-84571318D01*
X130336000Y-84338682D01*
X130514000Y-84338682D01*
X130514000Y-84571318D01*
X130559386Y-84799485D01*
X130648412Y-85014413D01*
X130777658Y-85207843D01*
X130942157Y-85372342D01*
X131135587Y-85501588D01*
X131350515Y-85590614D01*
X131578682Y-85636000D01*
X131811318Y-85636000D01*
X132039485Y-85590614D01*
X132254413Y-85501588D01*
X132447843Y-85372342D01*
X132612342Y-85207843D01*
X132741588Y-85014413D01*
X132830614Y-84799485D01*
X132876000Y-84571318D01*
X132876000Y-84338682D01*
X133054000Y-84338682D01*
X133054000Y-84571318D01*
X133099386Y-84799485D01*
X133188412Y-85014413D01*
X133317658Y-85207843D01*
X133482157Y-85372342D01*
X133675587Y-85501588D01*
X133890515Y-85590614D01*
X134118682Y-85636000D01*
X134351318Y-85636000D01*
X134579485Y-85590614D01*
X134794413Y-85501588D01*
X134987843Y-85372342D01*
X135152342Y-85207843D01*
X135281588Y-85014413D01*
X135370614Y-84799485D01*
X135416000Y-84571318D01*
X135416000Y-84338682D01*
X135594000Y-84338682D01*
X135594000Y-84571318D01*
X135639386Y-84799485D01*
X135728412Y-85014413D01*
X135857658Y-85207843D01*
X136022157Y-85372342D01*
X136215587Y-85501588D01*
X136430515Y-85590614D01*
X136658682Y-85636000D01*
X136891318Y-85636000D01*
X137119485Y-85590614D01*
X137334413Y-85501588D01*
X137527843Y-85372342D01*
X137692342Y-85207843D01*
X137821588Y-85014413D01*
X137910614Y-84799485D01*
X137956000Y-84571318D01*
X137956000Y-84338682D01*
X137910614Y-84110515D01*
X137887619Y-84055000D01*
X138132157Y-84055000D01*
X138132157Y-84855000D01*
X138147199Y-85007725D01*
X138191747Y-85154581D01*
X138264090Y-85289924D01*
X138361446Y-85408554D01*
X138480076Y-85505910D01*
X138615419Y-85578253D01*
X138762275Y-85622801D01*
X138915000Y-85637843D01*
X139715000Y-85637843D01*
X139867725Y-85622801D01*
X140014581Y-85578253D01*
X140149924Y-85505910D01*
X140268554Y-85408554D01*
X140365910Y-85289924D01*
X140438253Y-85154581D01*
X140482801Y-85007725D01*
X140497843Y-84855000D01*
X140497843Y-84055000D01*
X140482801Y-83902275D01*
X140438253Y-83755419D01*
X140365910Y-83620076D01*
X140268554Y-83501446D01*
X140149924Y-83404090D01*
X140014581Y-83331747D01*
X139867725Y-83287199D01*
X139715000Y-83272157D01*
X138915000Y-83272157D01*
X138762275Y-83287199D01*
X138615419Y-83331747D01*
X138480076Y-83404090D01*
X138361446Y-83501446D01*
X138264090Y-83620076D01*
X138191747Y-83755419D01*
X138147199Y-83902275D01*
X138132157Y-84055000D01*
X137887619Y-84055000D01*
X137821588Y-83895587D01*
X137692342Y-83702157D01*
X137527843Y-83537658D01*
X137334413Y-83408412D01*
X137119485Y-83319386D01*
X136891318Y-83274000D01*
X136658682Y-83274000D01*
X136430515Y-83319386D01*
X136215587Y-83408412D01*
X136022157Y-83537658D01*
X135857658Y-83702157D01*
X135728412Y-83895587D01*
X135639386Y-84110515D01*
X135594000Y-84338682D01*
X135416000Y-84338682D01*
X135370614Y-84110515D01*
X135281588Y-83895587D01*
X135152342Y-83702157D01*
X134987843Y-83537658D01*
X134794413Y-83408412D01*
X134579485Y-83319386D01*
X134351318Y-83274000D01*
X134118682Y-83274000D01*
X133890515Y-83319386D01*
X133675587Y-83408412D01*
X133482157Y-83537658D01*
X133317658Y-83702157D01*
X133188412Y-83895587D01*
X133099386Y-84110515D01*
X133054000Y-84338682D01*
X132876000Y-84338682D01*
X132830614Y-84110515D01*
X132741588Y-83895587D01*
X132612342Y-83702157D01*
X132447843Y-83537658D01*
X132254413Y-83408412D01*
X132039485Y-83319386D01*
X131811318Y-83274000D01*
X131578682Y-83274000D01*
X131350515Y-83319386D01*
X131135587Y-83408412D01*
X130942157Y-83537658D01*
X130777658Y-83702157D01*
X130648412Y-83895587D01*
X130559386Y-84110515D01*
X130514000Y-84338682D01*
X130336000Y-84338682D01*
X130290614Y-84110515D01*
X130201588Y-83895587D01*
X130072342Y-83702157D01*
X129907843Y-83537658D01*
X129714413Y-83408412D01*
X129499485Y-83319386D01*
X129271318Y-83274000D01*
X129038682Y-83274000D01*
X128810515Y-83319386D01*
X128595587Y-83408412D01*
X128402157Y-83537658D01*
X128237658Y-83702157D01*
X128108412Y-83895587D01*
X128019386Y-84110515D01*
X127974000Y-84338682D01*
X127796000Y-84338682D01*
X127750614Y-84110515D01*
X127661588Y-83895587D01*
X127532342Y-83702157D01*
X127367843Y-83537658D01*
X127174413Y-83408412D01*
X126959485Y-83319386D01*
X126731318Y-83274000D01*
X126498682Y-83274000D01*
X126270515Y-83319386D01*
X126055587Y-83408412D01*
X125862157Y-83537658D01*
X125697658Y-83702157D01*
X125568412Y-83895587D01*
X125479386Y-84110515D01*
X125434000Y-84338682D01*
X125256000Y-84338682D01*
X125210614Y-84110515D01*
X125121588Y-83895587D01*
X124992342Y-83702157D01*
X124827843Y-83537658D01*
X124634413Y-83408412D01*
X124419485Y-83319386D01*
X124191318Y-83274000D01*
X123958682Y-83274000D01*
X123730515Y-83319386D01*
X123515587Y-83408412D01*
X123322157Y-83537658D01*
X123157658Y-83702157D01*
X123028412Y-83895587D01*
X122939386Y-84110515D01*
X122894000Y-84338682D01*
X122716000Y-84338682D01*
X122670614Y-84110515D01*
X122581588Y-83895587D01*
X122452342Y-83702157D01*
X122287843Y-83537658D01*
X122094413Y-83408412D01*
X121879485Y-83319386D01*
X121651318Y-83274000D01*
X121418682Y-83274000D01*
X121190515Y-83319386D01*
X120975587Y-83408412D01*
X120782157Y-83537658D01*
X120617658Y-83702157D01*
X120488412Y-83895587D01*
X120399386Y-84110515D01*
X120354000Y-84338682D01*
X120176000Y-84338682D01*
X120130614Y-84110515D01*
X120041588Y-83895587D01*
X119912342Y-83702157D01*
X119747843Y-83537658D01*
X119554413Y-83408412D01*
X119339485Y-83319386D01*
X119111318Y-83274000D01*
X118878682Y-83274000D01*
X118650515Y-83319386D01*
X118435587Y-83408412D01*
X118242157Y-83537658D01*
X118077658Y-83702157D01*
X117948412Y-83895587D01*
X117859386Y-84110515D01*
X117814000Y-84338682D01*
X117636000Y-84338682D01*
X117590614Y-84110515D01*
X117501588Y-83895587D01*
X117372342Y-83702157D01*
X117207843Y-83537658D01*
X117014413Y-83408412D01*
X116799485Y-83319386D01*
X116571318Y-83274000D01*
X116338682Y-83274000D01*
X116110515Y-83319386D01*
X115895587Y-83408412D01*
X115702157Y-83537658D01*
X115537658Y-83702157D01*
X115408412Y-83895587D01*
X115319386Y-84110515D01*
X115274000Y-84338682D01*
X115096000Y-84338682D01*
X115050614Y-84110515D01*
X114961588Y-83895587D01*
X114832342Y-83702157D01*
X114667843Y-83537658D01*
X114474413Y-83408412D01*
X114259485Y-83319386D01*
X114031318Y-83274000D01*
X113798682Y-83274000D01*
X113570515Y-83319386D01*
X113355587Y-83408412D01*
X113162157Y-83537658D01*
X112997658Y-83702157D01*
X112868412Y-83895587D01*
X112779386Y-84110515D01*
X112734000Y-84338682D01*
X112556000Y-84338682D01*
X112510614Y-84110515D01*
X112421588Y-83895587D01*
X112292342Y-83702157D01*
X112127843Y-83537658D01*
X111934413Y-83408412D01*
X111719485Y-83319386D01*
X111491318Y-83274000D01*
X111258682Y-83274000D01*
X111030515Y-83319386D01*
X110815587Y-83408412D01*
X110622157Y-83537658D01*
X110457658Y-83702157D01*
X110328412Y-83895587D01*
X110239386Y-84110515D01*
X110194000Y-84338682D01*
X110016000Y-84338682D01*
X109970614Y-84110515D01*
X109881588Y-83895587D01*
X109752342Y-83702157D01*
X109587843Y-83537658D01*
X109394413Y-83408412D01*
X109179485Y-83319386D01*
X108951318Y-83274000D01*
X108718682Y-83274000D01*
X108490515Y-83319386D01*
X108275587Y-83408412D01*
X108082157Y-83537658D01*
X107917658Y-83702157D01*
X107788412Y-83895587D01*
X107699386Y-84110515D01*
X107654000Y-84338682D01*
X107476000Y-84338682D01*
X107430614Y-84110515D01*
X107341588Y-83895587D01*
X107212342Y-83702157D01*
X107047843Y-83537658D01*
X106854413Y-83408412D01*
X106639485Y-83319386D01*
X106411318Y-83274000D01*
X106178682Y-83274000D01*
X105950515Y-83319386D01*
X105735587Y-83408412D01*
X105542157Y-83537658D01*
X105377658Y-83702157D01*
X105248412Y-83895587D01*
X105159386Y-84110515D01*
X105114000Y-84338682D01*
X104936000Y-84338682D01*
X104890614Y-84110515D01*
X104801588Y-83895587D01*
X104672342Y-83702157D01*
X104507843Y-83537658D01*
X104314413Y-83408412D01*
X104099485Y-83319386D01*
X103871318Y-83274000D01*
X103638682Y-83274000D01*
X103410515Y-83319386D01*
X103195587Y-83408412D01*
X103002157Y-83537658D01*
X102837658Y-83702157D01*
X102708412Y-83895587D01*
X102619386Y-84110515D01*
X102574000Y-84338682D01*
X102396000Y-84338682D01*
X102350614Y-84110515D01*
X102261588Y-83895587D01*
X102132342Y-83702157D01*
X101967843Y-83537658D01*
X101774413Y-83408412D01*
X101559485Y-83319386D01*
X101331318Y-83274000D01*
X101098682Y-83274000D01*
X100870515Y-83319386D01*
X100655587Y-83408412D01*
X100462157Y-83537658D01*
X100297658Y-83702157D01*
X100168412Y-83895587D01*
X100079386Y-84110515D01*
X100034000Y-84338682D01*
X99856000Y-84338682D01*
X99810614Y-84110515D01*
X99721588Y-83895587D01*
X99592342Y-83702157D01*
X99427843Y-83537658D01*
X99234413Y-83408412D01*
X99019485Y-83319386D01*
X98791318Y-83274000D01*
X98558682Y-83274000D01*
X98330515Y-83319386D01*
X98115587Y-83408412D01*
X97922157Y-83537658D01*
X97757658Y-83702157D01*
X97628412Y-83895587D01*
X97539386Y-84110515D01*
X97494000Y-84338682D01*
X97316000Y-84338682D01*
X97270614Y-84110515D01*
X97181588Y-83895587D01*
X97052342Y-83702157D01*
X96887843Y-83537658D01*
X96694413Y-83408412D01*
X96479485Y-83319386D01*
X96251318Y-83274000D01*
X96018682Y-83274000D01*
X95790515Y-83319386D01*
X95745940Y-83337850D01*
X97452790Y-81631000D01*
X145607272Y-81631000D01*
X145597236Y-81639236D01*
X145582175Y-81657588D01*
X142356589Y-84883175D01*
X142338237Y-84898236D01*
X142299891Y-84944961D01*
X142278129Y-84971478D01*
X142233465Y-85055039D01*
X142205960Y-85145708D01*
X142196673Y-85240000D01*
X142199001Y-85263636D01*
X142199000Y-88531374D01*
X142196673Y-88555000D01*
X142204158Y-88631000D01*
X142205960Y-88649291D01*
X142233464Y-88739960D01*
X142278128Y-88823522D01*
X142338236Y-88896764D01*
X142356594Y-88911830D01*
X144992157Y-91547394D01*
X144992157Y-92569300D01*
X143330936Y-92569300D01*
X143603192Y-92297044D01*
X143623078Y-92301000D01*
X143776922Y-92301000D01*
X143927809Y-92270987D01*
X144069942Y-92212113D01*
X144197859Y-92126642D01*
X144306642Y-92017859D01*
X144392113Y-91889942D01*
X144450987Y-91747809D01*
X144481000Y-91596922D01*
X144481000Y-91443078D01*
X144450987Y-91292191D01*
X144392113Y-91150058D01*
X144306642Y-91022141D01*
X144197859Y-90913358D01*
X144069942Y-90827887D01*
X143927809Y-90769013D01*
X143776922Y-90739000D01*
X143623078Y-90739000D01*
X143472191Y-90769013D01*
X143330058Y-90827887D01*
X143202141Y-90913358D01*
X143093358Y-91022141D01*
X143007887Y-91150058D01*
X142949013Y-91292191D01*
X142919000Y-91443078D01*
X142919000Y-91596922D01*
X142922956Y-91616808D01*
X142380764Y-92159000D01*
X106218313Y-92159000D01*
X106210987Y-92122170D01*
X106152113Y-91980037D01*
X106066642Y-91852120D01*
X105957859Y-91743337D01*
X105829942Y-91657866D01*
X105687809Y-91598992D01*
X105536922Y-91568979D01*
X105383078Y-91568979D01*
X105232191Y-91598992D01*
X105090058Y-91657866D01*
X104962141Y-91743337D01*
X104853358Y-91852120D01*
X104767887Y-91980037D01*
X104709013Y-92122170D01*
X104679000Y-92273057D01*
X104679000Y-92426901D01*
X104707263Y-92568989D01*
X97154299Y-92568989D01*
X97143242Y-92552441D01*
X97034459Y-92443658D01*
X96906542Y-92358187D01*
X96764409Y-92299313D01*
X96613522Y-92269300D01*
X96459678Y-92269300D01*
X96308791Y-92299313D01*
X96166658Y-92358187D01*
X96038741Y-92443658D01*
X95929958Y-92552441D01*
X95844487Y-92680358D01*
X95785613Y-92822491D01*
X95755600Y-92973378D01*
X95755600Y-93127222D01*
X95784020Y-93270100D01*
X95470337Y-93270100D01*
X87078134Y-84877898D01*
X87110614Y-84799485D01*
X87156000Y-84571318D01*
X87156000Y-84338682D01*
X87334000Y-84338682D01*
X87334000Y-84571318D01*
X87379386Y-84799485D01*
X87468412Y-85014413D01*
X87597658Y-85207843D01*
X87762157Y-85372342D01*
X87955587Y-85501588D01*
X88170515Y-85590614D01*
X88398682Y-85636000D01*
X88631318Y-85636000D01*
X88859485Y-85590614D01*
X89074413Y-85501588D01*
X89267843Y-85372342D01*
X89432342Y-85207843D01*
X89561588Y-85014413D01*
X89650614Y-84799485D01*
X89696000Y-84571318D01*
X89696000Y-84338682D01*
X89874000Y-84338682D01*
X89874000Y-84571318D01*
X89919386Y-84799485D01*
X90008412Y-85014413D01*
X90137658Y-85207843D01*
X90302157Y-85372342D01*
X90495587Y-85501588D01*
X90710515Y-85590614D01*
X90938682Y-85636000D01*
X91171318Y-85636000D01*
X91399485Y-85590614D01*
X91614413Y-85501588D01*
X91807843Y-85372342D01*
X91972342Y-85207843D01*
X92101588Y-85014413D01*
X92190614Y-84799485D01*
X92236000Y-84571318D01*
X92236000Y-84338682D01*
X92190614Y-84110515D01*
X92101588Y-83895587D01*
X91972342Y-83702157D01*
X91807843Y-83537658D01*
X91614413Y-83408412D01*
X91399485Y-83319386D01*
X91171318Y-83274000D01*
X90938682Y-83274000D01*
X90710515Y-83319386D01*
X90495587Y-83408412D01*
X90302157Y-83537658D01*
X90137658Y-83702157D01*
X90008412Y-83895587D01*
X89919386Y-84110515D01*
X89874000Y-84338682D01*
X89696000Y-84338682D01*
X89650614Y-84110515D01*
X89561588Y-83895587D01*
X89432342Y-83702157D01*
X89267843Y-83537658D01*
X89074413Y-83408412D01*
X88859485Y-83319386D01*
X88631318Y-83274000D01*
X88398682Y-83274000D01*
X88170515Y-83319386D01*
X87955587Y-83408412D01*
X87762157Y-83537658D01*
X87597658Y-83702157D01*
X87468412Y-83895587D01*
X87379386Y-84110515D01*
X87334000Y-84338682D01*
X87156000Y-84338682D01*
X87110614Y-84110515D01*
X87021588Y-83895587D01*
X86892342Y-83702157D01*
X86727843Y-83537658D01*
X86534413Y-83408412D01*
X86319485Y-83319386D01*
X86091318Y-83274000D01*
X85858682Y-83274000D01*
X85630515Y-83319386D01*
X85415587Y-83408412D01*
X85222157Y-83537658D01*
X85057658Y-83702157D01*
X84928412Y-83895587D01*
X84839386Y-84110515D01*
X84794000Y-84338682D01*
X84794000Y-84571318D01*
X84839386Y-84799485D01*
X84928412Y-85014413D01*
X85057658Y-85207843D01*
X85222157Y-85372342D01*
X85415587Y-85501588D01*
X85630515Y-85590614D01*
X85858682Y-85636000D01*
X86091318Y-85636000D01*
X86319485Y-85590614D01*
X86397898Y-85558134D01*
X94914275Y-94074512D01*
X94929336Y-94092864D01*
X95002578Y-94152972D01*
X95041474Y-94173762D01*
X95086138Y-94197636D01*
X95176807Y-94225140D01*
X95271100Y-94234427D01*
X95294726Y-94232100D01*
X97135274Y-94232100D01*
X97158900Y-94234427D01*
X97182526Y-94232100D01*
X97188842Y-94231478D01*
X97253192Y-94225140D01*
X97253654Y-94225000D01*
X97343861Y-94197636D01*
X97427422Y-94152972D01*
X97500664Y-94092864D01*
X97515730Y-94074506D01*
X97659236Y-93931000D01*
X142450464Y-93931000D01*
X142542870Y-94023406D01*
X142557936Y-94041764D01*
X142631178Y-94101872D01*
X142714739Y-94146536D01*
X142805408Y-94174040D01*
X142822015Y-94175676D01*
X142817157Y-94225000D01*
X142817157Y-94775000D01*
X142821490Y-94819000D01*
X99578835Y-94819000D01*
X99575487Y-94802170D01*
X99516613Y-94660037D01*
X99431142Y-94532120D01*
X99322359Y-94423337D01*
X99194442Y-94337866D01*
X99052309Y-94278992D01*
X98901422Y-94248979D01*
X98747578Y-94248979D01*
X98596691Y-94278992D01*
X98454558Y-94337866D01*
X98326641Y-94423337D01*
X98217858Y-94532120D01*
X98132387Y-94660037D01*
X98073513Y-94802170D01*
X98043500Y-94953057D01*
X98043500Y-95106901D01*
X98071763Y-95248989D01*
X87423634Y-95248989D01*
X87400010Y-95246662D01*
X87376386Y-95248989D01*
X87376385Y-95248989D01*
X87305719Y-95255949D01*
X87215050Y-95283453D01*
X87131489Y-95328117D01*
X87058247Y-95388225D01*
X87043186Y-95406577D01*
X83857898Y-98591866D01*
X83779485Y-98559386D01*
X83551318Y-98514000D01*
X83318682Y-98514000D01*
X83090515Y-98559386D01*
X82875587Y-98648412D01*
X82682157Y-98777658D01*
X82517658Y-98942157D01*
X82388412Y-99135587D01*
X82299386Y-99350515D01*
X82254000Y-99578682D01*
X82254000Y-99811318D01*
X82299386Y-100039485D01*
X82388412Y-100254413D01*
X82451613Y-100349000D01*
X82229237Y-100349000D01*
X81998134Y-100117898D01*
X82030614Y-100039485D01*
X82076000Y-99811318D01*
X82076000Y-99578682D01*
X82030614Y-99350515D01*
X81941588Y-99135587D01*
X81812342Y-98942157D01*
X81647843Y-98777658D01*
X81454413Y-98648412D01*
X81239485Y-98559386D01*
X81011318Y-98514000D01*
X80778682Y-98514000D01*
X80550515Y-98559386D01*
X80335587Y-98648412D01*
X80142157Y-98777658D01*
X79977658Y-98942157D01*
X79848412Y-99135587D01*
X79759386Y-99350515D01*
X79714000Y-99578682D01*
X79714000Y-99811318D01*
X79759386Y-100039485D01*
X79848412Y-100254413D01*
X79977658Y-100447843D01*
X80142157Y-100612342D01*
X80335587Y-100741588D01*
X80550515Y-100830614D01*
X80778682Y-100876000D01*
X81011318Y-100876000D01*
X81239485Y-100830614D01*
X81317898Y-100798134D01*
X81673175Y-101153412D01*
X81688236Y-101171764D01*
X81761478Y-101231872D01*
X81845039Y-101276536D01*
X81935708Y-101304040D01*
X82006374Y-101311000D01*
X82006375Y-101311000D01*
X82029999Y-101313327D01*
X82053623Y-101311000D01*
X86636374Y-101311000D01*
X86660000Y-101313327D01*
X86683626Y-101311000D01*
X86754292Y-101304040D01*
X86844961Y-101276536D01*
X86928522Y-101231872D01*
X87001764Y-101171764D01*
X87016830Y-101153406D01*
X87568411Y-100601826D01*
X87586764Y-100586764D01*
X87646872Y-100513522D01*
X87652607Y-100502792D01*
X87762157Y-100612342D01*
X87955587Y-100741588D01*
X88170515Y-100830614D01*
X88398682Y-100876000D01*
X88631318Y-100876000D01*
X88859485Y-100830614D01*
X88937898Y-100798134D01*
X89280170Y-101140406D01*
X89295236Y-101158764D01*
X89368478Y-101218872D01*
X89398577Y-101234960D01*
X89452038Y-101263536D01*
X89542707Y-101291040D01*
X89637000Y-101300327D01*
X89660626Y-101298000D01*
X142159074Y-101298000D01*
X142182700Y-101300327D01*
X142206326Y-101298000D01*
X142211779Y-101297463D01*
X142276992Y-101291040D01*
X142283697Y-101289006D01*
X142367661Y-101263536D01*
X142451222Y-101218872D01*
X142524464Y-101158764D01*
X142539530Y-101140406D01*
X142817157Y-100862779D01*
X142817157Y-101175000D01*
X142824513Y-101249689D01*
X142839775Y-101300000D01*
X142824513Y-101350311D01*
X142817157Y-101425000D01*
X142817157Y-101975000D01*
X142824513Y-102049689D01*
X142846299Y-102121508D01*
X142881678Y-102187696D01*
X142929289Y-102245711D01*
X142987304Y-102293322D01*
X143053492Y-102328701D01*
X143125311Y-102350487D01*
X143200000Y-102357843D01*
X144050311Y-102357843D01*
X144014213Y-102444991D01*
X143984200Y-102595878D01*
X143984200Y-102749722D01*
X144014213Y-102900609D01*
X144073087Y-103042742D01*
X144158558Y-103170659D01*
X144267341Y-103279442D01*
X144395258Y-103364913D01*
X144537391Y-103423787D01*
X144688278Y-103453800D01*
X144842122Y-103453800D01*
X144862008Y-103449844D01*
X144992157Y-103579994D01*
X144992157Y-104150000D01*
X144999513Y-104224689D01*
X145021299Y-104296508D01*
X145056678Y-104362696D01*
X145104289Y-104420711D01*
X145162304Y-104468322D01*
X145228492Y-104503701D01*
X145300311Y-104525487D01*
X145375000Y-104532843D01*
X145925000Y-104532843D01*
X145999689Y-104525487D01*
X146050000Y-104510225D01*
X146100311Y-104525487D01*
X146175000Y-104532843D01*
X146725000Y-104532843D01*
X146799689Y-104525487D01*
X146850000Y-104510225D01*
X146900311Y-104525487D01*
X146975000Y-104532843D01*
X147267885Y-104532843D01*
X147321549Y-104598908D01*
X147417839Y-104678746D01*
X147527855Y-104738265D01*
X147647369Y-104775177D01*
X147764250Y-104785000D01*
X147923000Y-104626250D01*
X147923000Y-103527000D01*
X147907843Y-103527000D01*
X147907843Y-103273000D01*
X147923000Y-103273000D01*
X147923000Y-102173750D01*
X147764250Y-102015000D01*
X147731000Y-102017794D01*
X147731000Y-101693615D01*
X147733326Y-101669999D01*
X147731000Y-101646383D01*
X147731000Y-101646374D01*
X147724040Y-101575708D01*
X147696536Y-101485039D01*
X147651872Y-101401478D01*
X147591764Y-101328236D01*
X147573411Y-101313174D01*
X147111000Y-100850764D01*
X147111000Y-99097622D01*
X147113327Y-99073996D01*
X147109344Y-99033557D01*
X147230642Y-98983313D01*
X147358559Y-98897842D01*
X147467342Y-98789059D01*
X147478607Y-98772200D01*
X147859474Y-98772200D01*
X147883100Y-98774527D01*
X147906726Y-98772200D01*
X147977392Y-98765240D01*
X148068061Y-98737736D01*
X148151622Y-98693072D01*
X148224864Y-98632964D01*
X148239930Y-98614606D01*
X149253561Y-97600976D01*
X149468787Y-97600976D01*
X148526589Y-98543175D01*
X148508237Y-98558236D01*
X148463241Y-98613064D01*
X148448129Y-98631478D01*
X148403465Y-98715039D01*
X148375960Y-98805708D01*
X148366673Y-98900000D01*
X148369001Y-98923636D01*
X148369000Y-102017794D01*
X148335750Y-102015000D01*
X148177000Y-102173750D01*
X148177000Y-103273000D01*
X148192157Y-103273000D01*
X148192157Y-103527000D01*
X148177000Y-103527000D01*
X148177000Y-104626250D01*
X148335750Y-104785000D01*
X148452631Y-104775177D01*
X148572145Y-104738265D01*
X148682161Y-104678746D01*
X148778451Y-104598908D01*
X148832115Y-104532843D01*
X149125000Y-104532843D01*
X149199689Y-104525487D01*
X149250000Y-104510225D01*
X149300311Y-104525487D01*
X149375000Y-104532843D01*
X149925000Y-104532843D01*
X149999689Y-104525487D01*
X150050000Y-104510225D01*
X150100311Y-104525487D01*
X150175000Y-104532843D01*
X150725000Y-104532843D01*
X150774324Y-104527985D01*
X150775960Y-104544592D01*
X150803374Y-104634962D01*
X150803465Y-104635261D01*
X150848129Y-104718822D01*
X150908237Y-104792064D01*
X150926589Y-104807125D01*
X151083464Y-104964000D01*
X144698170Y-104964000D01*
X141221193Y-101487024D01*
X141208474Y-101471526D01*
X141146653Y-101420790D01*
X141076121Y-101383090D01*
X140999590Y-101359875D01*
X140939941Y-101354000D01*
X140939933Y-101354000D01*
X140920000Y-101352037D01*
X140900067Y-101354000D01*
X79058170Y-101354000D01*
X77476000Y-99771831D01*
X77476000Y-95178169D01*
X78072981Y-94581189D01*
X78088474Y-94568474D01*
X78139210Y-94506653D01*
X78176910Y-94436121D01*
X78200125Y-94359590D01*
X78206000Y-94299941D01*
X78206000Y-94299933D01*
X78207963Y-94280000D01*
X78206000Y-94260067D01*
X78206000Y-87829933D01*
X78207963Y-87810000D01*
X78206000Y-87790067D01*
X78206000Y-87790059D01*
X78200125Y-87730410D01*
X78176910Y-87653879D01*
X78139210Y-87583347D01*
X78088474Y-87521526D01*
X78072982Y-87508812D01*
X77476000Y-86911831D01*
X77476000Y-84338682D01*
X79714000Y-84338682D01*
X79714000Y-84571318D01*
X79759386Y-84799485D01*
X79848412Y-85014413D01*
X79977658Y-85207843D01*
X80142157Y-85372342D01*
X80335587Y-85501588D01*
X80550515Y-85590614D01*
X80778682Y-85636000D01*
X81011318Y-85636000D01*
X81239485Y-85590614D01*
X81454413Y-85501588D01*
X81647843Y-85372342D01*
X81812342Y-85207843D01*
X81941588Y-85014413D01*
X82030614Y-84799485D01*
X82076000Y-84571318D01*
X82076000Y-84338682D01*
X82254000Y-84338682D01*
X82254000Y-84571318D01*
X82299386Y-84799485D01*
X82388412Y-85014413D01*
X82517658Y-85207843D01*
X82682157Y-85372342D01*
X82875587Y-85501588D01*
X83090515Y-85590614D01*
X83318682Y-85636000D01*
X83551318Y-85636000D01*
X83779485Y-85590614D01*
X83994413Y-85501588D01*
X84187843Y-85372342D01*
X84352342Y-85207843D01*
X84481588Y-85014413D01*
X84570614Y-84799485D01*
X84616000Y-84571318D01*
X84616000Y-84338682D01*
X84570614Y-84110515D01*
X84481588Y-83895587D01*
X84352342Y-83702157D01*
X84187843Y-83537658D01*
X83994413Y-83408412D01*
X83779485Y-83319386D01*
X83551318Y-83274000D01*
X83318682Y-83274000D01*
X83090515Y-83319386D01*
X82875587Y-83408412D01*
X82682157Y-83537658D01*
X82517658Y-83702157D01*
X82388412Y-83895587D01*
X82299386Y-84110515D01*
X82254000Y-84338682D01*
X82076000Y-84338682D01*
X82030614Y-84110515D01*
X81941588Y-83895587D01*
X81812342Y-83702157D01*
X81647843Y-83537658D01*
X81454413Y-83408412D01*
X81239485Y-83319386D01*
X81011318Y-83274000D01*
X80778682Y-83274000D01*
X80550515Y-83319386D01*
X80335587Y-83408412D01*
X80142157Y-83537658D01*
X79977658Y-83702157D01*
X79848412Y-83895587D01*
X79759386Y-84110515D01*
X79714000Y-84338682D01*
X77476000Y-84338682D01*
X77476000Y-82318169D01*
X79078170Y-80716000D01*
X96300210Y-80716000D01*
X93737085Y-83279126D01*
%TA.AperFunction,Conductor*%
D23*
G36*
X93737085Y-83279126D02*
G01*
X93711318Y-83274000D01*
X93478682Y-83274000D01*
X93250515Y-83319386D01*
X93035587Y-83408412D01*
X92842157Y-83537658D01*
X92677658Y-83702157D01*
X92548412Y-83895587D01*
X92459386Y-84110515D01*
X92414000Y-84338682D01*
X92414000Y-84571318D01*
X92459386Y-84799485D01*
X92548412Y-85014413D01*
X92677658Y-85207843D01*
X92842157Y-85372342D01*
X93035587Y-85501588D01*
X93250515Y-85590614D01*
X93478682Y-85636000D01*
X93711318Y-85636000D01*
X93939485Y-85590614D01*
X94154413Y-85501588D01*
X94347843Y-85372342D01*
X94512342Y-85207843D01*
X94641588Y-85014413D01*
X94730614Y-84799485D01*
X94776000Y-84571318D01*
X94776000Y-84338682D01*
X94770874Y-84312915D01*
X95017850Y-84065940D01*
X94999386Y-84110515D01*
X94954000Y-84338682D01*
X94954000Y-84571318D01*
X94999386Y-84799485D01*
X95088412Y-85014413D01*
X95217658Y-85207843D01*
X95382157Y-85372342D01*
X95575587Y-85501588D01*
X95790515Y-85590614D01*
X96018682Y-85636000D01*
X96251318Y-85636000D01*
X96479485Y-85590614D01*
X96694413Y-85501588D01*
X96887843Y-85372342D01*
X97052342Y-85207843D01*
X97181588Y-85014413D01*
X97270614Y-84799485D01*
X97316000Y-84571318D01*
X97316000Y-84338682D01*
X97494000Y-84338682D01*
X97494000Y-84571318D01*
X97539386Y-84799485D01*
X97628412Y-85014413D01*
X97757658Y-85207843D01*
X97922157Y-85372342D01*
X98115587Y-85501588D01*
X98330515Y-85590614D01*
X98558682Y-85636000D01*
X98791318Y-85636000D01*
X99019485Y-85590614D01*
X99234413Y-85501588D01*
X99427843Y-85372342D01*
X99592342Y-85207843D01*
X99721588Y-85014413D01*
X99810614Y-84799485D01*
X99856000Y-84571318D01*
X99856000Y-84338682D01*
X100034000Y-84338682D01*
X100034000Y-84571318D01*
X100079386Y-84799485D01*
X100168412Y-85014413D01*
X100297658Y-85207843D01*
X100462157Y-85372342D01*
X100655587Y-85501588D01*
X100870515Y-85590614D01*
X101098682Y-85636000D01*
X101331318Y-85636000D01*
X101559485Y-85590614D01*
X101774413Y-85501588D01*
X101967843Y-85372342D01*
X102132342Y-85207843D01*
X102261588Y-85014413D01*
X102350614Y-84799485D01*
X102396000Y-84571318D01*
X102396000Y-84338682D01*
X102574000Y-84338682D01*
X102574000Y-84571318D01*
X102619386Y-84799485D01*
X102708412Y-85014413D01*
X102837658Y-85207843D01*
X103002157Y-85372342D01*
X103195587Y-85501588D01*
X103410515Y-85590614D01*
X103638682Y-85636000D01*
X103871318Y-85636000D01*
X104099485Y-85590614D01*
X104314413Y-85501588D01*
X104507843Y-85372342D01*
X104672342Y-85207843D01*
X104801588Y-85014413D01*
X104890614Y-84799485D01*
X104936000Y-84571318D01*
X104936000Y-84338682D01*
X105114000Y-84338682D01*
X105114000Y-84571318D01*
X105159386Y-84799485D01*
X105248412Y-85014413D01*
X105377658Y-85207843D01*
X105542157Y-85372342D01*
X105735587Y-85501588D01*
X105950515Y-85590614D01*
X106178682Y-85636000D01*
X106411318Y-85636000D01*
X106639485Y-85590614D01*
X106854413Y-85501588D01*
X107047843Y-85372342D01*
X107212342Y-85207843D01*
X107341588Y-85014413D01*
X107430614Y-84799485D01*
X107476000Y-84571318D01*
X107476000Y-84338682D01*
X107654000Y-84338682D01*
X107654000Y-84571318D01*
X107699386Y-84799485D01*
X107788412Y-85014413D01*
X107917658Y-85207843D01*
X108082157Y-85372342D01*
X108275587Y-85501588D01*
X108490515Y-85590614D01*
X108718682Y-85636000D01*
X108951318Y-85636000D01*
X109179485Y-85590614D01*
X109394413Y-85501588D01*
X109587843Y-85372342D01*
X109752342Y-85207843D01*
X109881588Y-85014413D01*
X109970614Y-84799485D01*
X110016000Y-84571318D01*
X110016000Y-84338682D01*
X110194000Y-84338682D01*
X110194000Y-84571318D01*
X110239386Y-84799485D01*
X110328412Y-85014413D01*
X110457658Y-85207843D01*
X110622157Y-85372342D01*
X110815587Y-85501588D01*
X111030515Y-85590614D01*
X111258682Y-85636000D01*
X111491318Y-85636000D01*
X111719485Y-85590614D01*
X111934413Y-85501588D01*
X112127843Y-85372342D01*
X112292342Y-85207843D01*
X112421588Y-85014413D01*
X112510614Y-84799485D01*
X112556000Y-84571318D01*
X112556000Y-84338682D01*
X112734000Y-84338682D01*
X112734000Y-84571318D01*
X112779386Y-84799485D01*
X112868412Y-85014413D01*
X112997658Y-85207843D01*
X113162157Y-85372342D01*
X113355587Y-85501588D01*
X113570515Y-85590614D01*
X113798682Y-85636000D01*
X114031318Y-85636000D01*
X114259485Y-85590614D01*
X114474413Y-85501588D01*
X114667843Y-85372342D01*
X114832342Y-85207843D01*
X114961588Y-85014413D01*
X115050614Y-84799485D01*
X115096000Y-84571318D01*
X115096000Y-84338682D01*
X115274000Y-84338682D01*
X115274000Y-84571318D01*
X115319386Y-84799485D01*
X115408412Y-85014413D01*
X115537658Y-85207843D01*
X115702157Y-85372342D01*
X115895587Y-85501588D01*
X116110515Y-85590614D01*
X116338682Y-85636000D01*
X116571318Y-85636000D01*
X116799485Y-85590614D01*
X117014413Y-85501588D01*
X117207843Y-85372342D01*
X117372342Y-85207843D01*
X117501588Y-85014413D01*
X117590614Y-84799485D01*
X117636000Y-84571318D01*
X117636000Y-84338682D01*
X117814000Y-84338682D01*
X117814000Y-84571318D01*
X117859386Y-84799485D01*
X117948412Y-85014413D01*
X118077658Y-85207843D01*
X118242157Y-85372342D01*
X118435587Y-85501588D01*
X118650515Y-85590614D01*
X118878682Y-85636000D01*
X119111318Y-85636000D01*
X119339485Y-85590614D01*
X119554413Y-85501588D01*
X119747843Y-85372342D01*
X119912342Y-85207843D01*
X120041588Y-85014413D01*
X120130614Y-84799485D01*
X120176000Y-84571318D01*
X120176000Y-84338682D01*
X120354000Y-84338682D01*
X120354000Y-84571318D01*
X120399386Y-84799485D01*
X120488412Y-85014413D01*
X120617658Y-85207843D01*
X120782157Y-85372342D01*
X120975587Y-85501588D01*
X121190515Y-85590614D01*
X121418682Y-85636000D01*
X121651318Y-85636000D01*
X121879485Y-85590614D01*
X122094413Y-85501588D01*
X122287843Y-85372342D01*
X122452342Y-85207843D01*
X122581588Y-85014413D01*
X122670614Y-84799485D01*
X122716000Y-84571318D01*
X122716000Y-84338682D01*
X122894000Y-84338682D01*
X122894000Y-84571318D01*
X122939386Y-84799485D01*
X123028412Y-85014413D01*
X123157658Y-85207843D01*
X123322157Y-85372342D01*
X123515587Y-85501588D01*
X123730515Y-85590614D01*
X123958682Y-85636000D01*
X124191318Y-85636000D01*
X124419485Y-85590614D01*
X124634413Y-85501588D01*
X124827843Y-85372342D01*
X124992342Y-85207843D01*
X125121588Y-85014413D01*
X125210614Y-84799485D01*
X125256000Y-84571318D01*
X125256000Y-84338682D01*
X125434000Y-84338682D01*
X125434000Y-84571318D01*
X125479386Y-84799485D01*
X125568412Y-85014413D01*
X125697658Y-85207843D01*
X125862157Y-85372342D01*
X126055587Y-85501588D01*
X126270515Y-85590614D01*
X126498682Y-85636000D01*
X126731318Y-85636000D01*
X126959485Y-85590614D01*
X127174413Y-85501588D01*
X127367843Y-85372342D01*
X127532342Y-85207843D01*
X127661588Y-85014413D01*
X127750614Y-84799485D01*
X127796000Y-84571318D01*
X127796000Y-84338682D01*
X127974000Y-84338682D01*
X127974000Y-84571318D01*
X128019386Y-84799485D01*
X128108412Y-85014413D01*
X128237658Y-85207843D01*
X128402157Y-85372342D01*
X128595587Y-85501588D01*
X128810515Y-85590614D01*
X129038682Y-85636000D01*
X129271318Y-85636000D01*
X129499485Y-85590614D01*
X129714413Y-85501588D01*
X129907843Y-85372342D01*
X130072342Y-85207843D01*
X130201588Y-85014413D01*
X130290614Y-84799485D01*
X130336000Y-84571318D01*
X130336000Y-84338682D01*
X130514000Y-84338682D01*
X130514000Y-84571318D01*
X130559386Y-84799485D01*
X130648412Y-85014413D01*
X130777658Y-85207843D01*
X130942157Y-85372342D01*
X131135587Y-85501588D01*
X131350515Y-85590614D01*
X131578682Y-85636000D01*
X131811318Y-85636000D01*
X132039485Y-85590614D01*
X132254413Y-85501588D01*
X132447843Y-85372342D01*
X132612342Y-85207843D01*
X132741588Y-85014413D01*
X132830614Y-84799485D01*
X132876000Y-84571318D01*
X132876000Y-84338682D01*
X133054000Y-84338682D01*
X133054000Y-84571318D01*
X133099386Y-84799485D01*
X133188412Y-85014413D01*
X133317658Y-85207843D01*
X133482157Y-85372342D01*
X133675587Y-85501588D01*
X133890515Y-85590614D01*
X134118682Y-85636000D01*
X134351318Y-85636000D01*
X134579485Y-85590614D01*
X134794413Y-85501588D01*
X134987843Y-85372342D01*
X135152342Y-85207843D01*
X135281588Y-85014413D01*
X135370614Y-84799485D01*
X135416000Y-84571318D01*
X135416000Y-84338682D01*
X135594000Y-84338682D01*
X135594000Y-84571318D01*
X135639386Y-84799485D01*
X135728412Y-85014413D01*
X135857658Y-85207843D01*
X136022157Y-85372342D01*
X136215587Y-85501588D01*
X136430515Y-85590614D01*
X136658682Y-85636000D01*
X136891318Y-85636000D01*
X137119485Y-85590614D01*
X137334413Y-85501588D01*
X137527843Y-85372342D01*
X137692342Y-85207843D01*
X137821588Y-85014413D01*
X137910614Y-84799485D01*
X137956000Y-84571318D01*
X137956000Y-84338682D01*
X137910614Y-84110515D01*
X137887619Y-84055000D01*
X138132157Y-84055000D01*
X138132157Y-84855000D01*
X138147199Y-85007725D01*
X138191747Y-85154581D01*
X138264090Y-85289924D01*
X138361446Y-85408554D01*
X138480076Y-85505910D01*
X138615419Y-85578253D01*
X138762275Y-85622801D01*
X138915000Y-85637843D01*
X139715000Y-85637843D01*
X139867725Y-85622801D01*
X140014581Y-85578253D01*
X140149924Y-85505910D01*
X140268554Y-85408554D01*
X140365910Y-85289924D01*
X140438253Y-85154581D01*
X140482801Y-85007725D01*
X140497843Y-84855000D01*
X140497843Y-84055000D01*
X140482801Y-83902275D01*
X140438253Y-83755419D01*
X140365910Y-83620076D01*
X140268554Y-83501446D01*
X140149924Y-83404090D01*
X140014581Y-83331747D01*
X139867725Y-83287199D01*
X139715000Y-83272157D01*
X138915000Y-83272157D01*
X138762275Y-83287199D01*
X138615419Y-83331747D01*
X138480076Y-83404090D01*
X138361446Y-83501446D01*
X138264090Y-83620076D01*
X138191747Y-83755419D01*
X138147199Y-83902275D01*
X138132157Y-84055000D01*
X137887619Y-84055000D01*
X137821588Y-83895587D01*
X137692342Y-83702157D01*
X137527843Y-83537658D01*
X137334413Y-83408412D01*
X137119485Y-83319386D01*
X136891318Y-83274000D01*
X136658682Y-83274000D01*
X136430515Y-83319386D01*
X136215587Y-83408412D01*
X136022157Y-83537658D01*
X135857658Y-83702157D01*
X135728412Y-83895587D01*
X135639386Y-84110515D01*
X135594000Y-84338682D01*
X135416000Y-84338682D01*
X135370614Y-84110515D01*
X135281588Y-83895587D01*
X135152342Y-83702157D01*
X134987843Y-83537658D01*
X134794413Y-83408412D01*
X134579485Y-83319386D01*
X134351318Y-83274000D01*
X134118682Y-83274000D01*
X133890515Y-83319386D01*
X133675587Y-83408412D01*
X133482157Y-83537658D01*
X133317658Y-83702157D01*
X133188412Y-83895587D01*
X133099386Y-84110515D01*
X133054000Y-84338682D01*
X132876000Y-84338682D01*
X132830614Y-84110515D01*
X132741588Y-83895587D01*
X132612342Y-83702157D01*
X132447843Y-83537658D01*
X132254413Y-83408412D01*
X132039485Y-83319386D01*
X131811318Y-83274000D01*
X131578682Y-83274000D01*
X131350515Y-83319386D01*
X131135587Y-83408412D01*
X130942157Y-83537658D01*
X130777658Y-83702157D01*
X130648412Y-83895587D01*
X130559386Y-84110515D01*
X130514000Y-84338682D01*
X130336000Y-84338682D01*
X130290614Y-84110515D01*
X130201588Y-83895587D01*
X130072342Y-83702157D01*
X129907843Y-83537658D01*
X129714413Y-83408412D01*
X129499485Y-83319386D01*
X129271318Y-83274000D01*
X129038682Y-83274000D01*
X128810515Y-83319386D01*
X128595587Y-83408412D01*
X128402157Y-83537658D01*
X128237658Y-83702157D01*
X128108412Y-83895587D01*
X128019386Y-84110515D01*
X127974000Y-84338682D01*
X127796000Y-84338682D01*
X127750614Y-84110515D01*
X127661588Y-83895587D01*
X127532342Y-83702157D01*
X127367843Y-83537658D01*
X127174413Y-83408412D01*
X126959485Y-83319386D01*
X126731318Y-83274000D01*
X126498682Y-83274000D01*
X126270515Y-83319386D01*
X126055587Y-83408412D01*
X125862157Y-83537658D01*
X125697658Y-83702157D01*
X125568412Y-83895587D01*
X125479386Y-84110515D01*
X125434000Y-84338682D01*
X125256000Y-84338682D01*
X125210614Y-84110515D01*
X125121588Y-83895587D01*
X124992342Y-83702157D01*
X124827843Y-83537658D01*
X124634413Y-83408412D01*
X124419485Y-83319386D01*
X124191318Y-83274000D01*
X123958682Y-83274000D01*
X123730515Y-83319386D01*
X123515587Y-83408412D01*
X123322157Y-83537658D01*
X123157658Y-83702157D01*
X123028412Y-83895587D01*
X122939386Y-84110515D01*
X122894000Y-84338682D01*
X122716000Y-84338682D01*
X122670614Y-84110515D01*
X122581588Y-83895587D01*
X122452342Y-83702157D01*
X122287843Y-83537658D01*
X122094413Y-83408412D01*
X121879485Y-83319386D01*
X121651318Y-83274000D01*
X121418682Y-83274000D01*
X121190515Y-83319386D01*
X120975587Y-83408412D01*
X120782157Y-83537658D01*
X120617658Y-83702157D01*
X120488412Y-83895587D01*
X120399386Y-84110515D01*
X120354000Y-84338682D01*
X120176000Y-84338682D01*
X120130614Y-84110515D01*
X120041588Y-83895587D01*
X119912342Y-83702157D01*
X119747843Y-83537658D01*
X119554413Y-83408412D01*
X119339485Y-83319386D01*
X119111318Y-83274000D01*
X118878682Y-83274000D01*
X118650515Y-83319386D01*
X118435587Y-83408412D01*
X118242157Y-83537658D01*
X118077658Y-83702157D01*
X117948412Y-83895587D01*
X117859386Y-84110515D01*
X117814000Y-84338682D01*
X117636000Y-84338682D01*
X117590614Y-84110515D01*
X117501588Y-83895587D01*
X117372342Y-83702157D01*
X117207843Y-83537658D01*
X117014413Y-83408412D01*
X116799485Y-83319386D01*
X116571318Y-83274000D01*
X116338682Y-83274000D01*
X116110515Y-83319386D01*
X115895587Y-83408412D01*
X115702157Y-83537658D01*
X115537658Y-83702157D01*
X115408412Y-83895587D01*
X115319386Y-84110515D01*
X115274000Y-84338682D01*
X115096000Y-84338682D01*
X115050614Y-84110515D01*
X114961588Y-83895587D01*
X114832342Y-83702157D01*
X114667843Y-83537658D01*
X114474413Y-83408412D01*
X114259485Y-83319386D01*
X114031318Y-83274000D01*
X113798682Y-83274000D01*
X113570515Y-83319386D01*
X113355587Y-83408412D01*
X113162157Y-83537658D01*
X112997658Y-83702157D01*
X112868412Y-83895587D01*
X112779386Y-84110515D01*
X112734000Y-84338682D01*
X112556000Y-84338682D01*
X112510614Y-84110515D01*
X112421588Y-83895587D01*
X112292342Y-83702157D01*
X112127843Y-83537658D01*
X111934413Y-83408412D01*
X111719485Y-83319386D01*
X111491318Y-83274000D01*
X111258682Y-83274000D01*
X111030515Y-83319386D01*
X110815587Y-83408412D01*
X110622157Y-83537658D01*
X110457658Y-83702157D01*
X110328412Y-83895587D01*
X110239386Y-84110515D01*
X110194000Y-84338682D01*
X110016000Y-84338682D01*
X109970614Y-84110515D01*
X109881588Y-83895587D01*
X109752342Y-83702157D01*
X109587843Y-83537658D01*
X109394413Y-83408412D01*
X109179485Y-83319386D01*
X108951318Y-83274000D01*
X108718682Y-83274000D01*
X108490515Y-83319386D01*
X108275587Y-83408412D01*
X108082157Y-83537658D01*
X107917658Y-83702157D01*
X107788412Y-83895587D01*
X107699386Y-84110515D01*
X107654000Y-84338682D01*
X107476000Y-84338682D01*
X107430614Y-84110515D01*
X107341588Y-83895587D01*
X107212342Y-83702157D01*
X107047843Y-83537658D01*
X106854413Y-83408412D01*
X106639485Y-83319386D01*
X106411318Y-83274000D01*
X106178682Y-83274000D01*
X105950515Y-83319386D01*
X105735587Y-83408412D01*
X105542157Y-83537658D01*
X105377658Y-83702157D01*
X105248412Y-83895587D01*
X105159386Y-84110515D01*
X105114000Y-84338682D01*
X104936000Y-84338682D01*
X104890614Y-84110515D01*
X104801588Y-83895587D01*
X104672342Y-83702157D01*
X104507843Y-83537658D01*
X104314413Y-83408412D01*
X104099485Y-83319386D01*
X103871318Y-83274000D01*
X103638682Y-83274000D01*
X103410515Y-83319386D01*
X103195587Y-83408412D01*
X103002157Y-83537658D01*
X102837658Y-83702157D01*
X102708412Y-83895587D01*
X102619386Y-84110515D01*
X102574000Y-84338682D01*
X102396000Y-84338682D01*
X102350614Y-84110515D01*
X102261588Y-83895587D01*
X102132342Y-83702157D01*
X101967843Y-83537658D01*
X101774413Y-83408412D01*
X101559485Y-83319386D01*
X101331318Y-83274000D01*
X101098682Y-83274000D01*
X100870515Y-83319386D01*
X100655587Y-83408412D01*
X100462157Y-83537658D01*
X100297658Y-83702157D01*
X100168412Y-83895587D01*
X100079386Y-84110515D01*
X100034000Y-84338682D01*
X99856000Y-84338682D01*
X99810614Y-84110515D01*
X99721588Y-83895587D01*
X99592342Y-83702157D01*
X99427843Y-83537658D01*
X99234413Y-83408412D01*
X99019485Y-83319386D01*
X98791318Y-83274000D01*
X98558682Y-83274000D01*
X98330515Y-83319386D01*
X98115587Y-83408412D01*
X97922157Y-83537658D01*
X97757658Y-83702157D01*
X97628412Y-83895587D01*
X97539386Y-84110515D01*
X97494000Y-84338682D01*
X97316000Y-84338682D01*
X97270614Y-84110515D01*
X97181588Y-83895587D01*
X97052342Y-83702157D01*
X96887843Y-83537658D01*
X96694413Y-83408412D01*
X96479485Y-83319386D01*
X96251318Y-83274000D01*
X96018682Y-83274000D01*
X95790515Y-83319386D01*
X95745940Y-83337850D01*
X97452790Y-81631000D01*
X145607272Y-81631000D01*
X145597236Y-81639236D01*
X145582175Y-81657588D01*
X142356589Y-84883175D01*
X142338237Y-84898236D01*
X142299891Y-84944961D01*
X142278129Y-84971478D01*
X142233465Y-85055039D01*
X142205960Y-85145708D01*
X142196673Y-85240000D01*
X142199001Y-85263636D01*
X142199000Y-88531374D01*
X142196673Y-88555000D01*
X142204158Y-88631000D01*
X142205960Y-88649291D01*
X142233464Y-88739960D01*
X142278128Y-88823522D01*
X142338236Y-88896764D01*
X142356594Y-88911830D01*
X144992157Y-91547394D01*
X144992157Y-92569300D01*
X143330936Y-92569300D01*
X143603192Y-92297044D01*
X143623078Y-92301000D01*
X143776922Y-92301000D01*
X143927809Y-92270987D01*
X144069942Y-92212113D01*
X144197859Y-92126642D01*
X144306642Y-92017859D01*
X144392113Y-91889942D01*
X144450987Y-91747809D01*
X144481000Y-91596922D01*
X144481000Y-91443078D01*
X144450987Y-91292191D01*
X144392113Y-91150058D01*
X144306642Y-91022141D01*
X144197859Y-90913358D01*
X144069942Y-90827887D01*
X143927809Y-90769013D01*
X143776922Y-90739000D01*
X143623078Y-90739000D01*
X143472191Y-90769013D01*
X143330058Y-90827887D01*
X143202141Y-90913358D01*
X143093358Y-91022141D01*
X143007887Y-91150058D01*
X142949013Y-91292191D01*
X142919000Y-91443078D01*
X142919000Y-91596922D01*
X142922956Y-91616808D01*
X142380764Y-92159000D01*
X106218313Y-92159000D01*
X106210987Y-92122170D01*
X106152113Y-91980037D01*
X106066642Y-91852120D01*
X105957859Y-91743337D01*
X105829942Y-91657866D01*
X105687809Y-91598992D01*
X105536922Y-91568979D01*
X105383078Y-91568979D01*
X105232191Y-91598992D01*
X105090058Y-91657866D01*
X104962141Y-91743337D01*
X104853358Y-91852120D01*
X104767887Y-91980037D01*
X104709013Y-92122170D01*
X104679000Y-92273057D01*
X104679000Y-92426901D01*
X104707263Y-92568989D01*
X97154299Y-92568989D01*
X97143242Y-92552441D01*
X97034459Y-92443658D01*
X96906542Y-92358187D01*
X96764409Y-92299313D01*
X96613522Y-92269300D01*
X96459678Y-92269300D01*
X96308791Y-92299313D01*
X96166658Y-92358187D01*
X96038741Y-92443658D01*
X95929958Y-92552441D01*
X95844487Y-92680358D01*
X95785613Y-92822491D01*
X95755600Y-92973378D01*
X95755600Y-93127222D01*
X95784020Y-93270100D01*
X95470337Y-93270100D01*
X87078134Y-84877898D01*
X87110614Y-84799485D01*
X87156000Y-84571318D01*
X87156000Y-84338682D01*
X87334000Y-84338682D01*
X87334000Y-84571318D01*
X87379386Y-84799485D01*
X87468412Y-85014413D01*
X87597658Y-85207843D01*
X87762157Y-85372342D01*
X87955587Y-85501588D01*
X88170515Y-85590614D01*
X88398682Y-85636000D01*
X88631318Y-85636000D01*
X88859485Y-85590614D01*
X89074413Y-85501588D01*
X89267843Y-85372342D01*
X89432342Y-85207843D01*
X89561588Y-85014413D01*
X89650614Y-84799485D01*
X89696000Y-84571318D01*
X89696000Y-84338682D01*
X89874000Y-84338682D01*
X89874000Y-84571318D01*
X89919386Y-84799485D01*
X90008412Y-85014413D01*
X90137658Y-85207843D01*
X90302157Y-85372342D01*
X90495587Y-85501588D01*
X90710515Y-85590614D01*
X90938682Y-85636000D01*
X91171318Y-85636000D01*
X91399485Y-85590614D01*
X91614413Y-85501588D01*
X91807843Y-85372342D01*
X91972342Y-85207843D01*
X92101588Y-85014413D01*
X92190614Y-84799485D01*
X92236000Y-84571318D01*
X92236000Y-84338682D01*
X92190614Y-84110515D01*
X92101588Y-83895587D01*
X91972342Y-83702157D01*
X91807843Y-83537658D01*
X91614413Y-83408412D01*
X91399485Y-83319386D01*
X91171318Y-83274000D01*
X90938682Y-83274000D01*
X90710515Y-83319386D01*
X90495587Y-83408412D01*
X90302157Y-83537658D01*
X90137658Y-83702157D01*
X90008412Y-83895587D01*
X89919386Y-84110515D01*
X89874000Y-84338682D01*
X89696000Y-84338682D01*
X89650614Y-84110515D01*
X89561588Y-83895587D01*
X89432342Y-83702157D01*
X89267843Y-83537658D01*
X89074413Y-83408412D01*
X88859485Y-83319386D01*
X88631318Y-83274000D01*
X88398682Y-83274000D01*
X88170515Y-83319386D01*
X87955587Y-83408412D01*
X87762157Y-83537658D01*
X87597658Y-83702157D01*
X87468412Y-83895587D01*
X87379386Y-84110515D01*
X87334000Y-84338682D01*
X87156000Y-84338682D01*
X87110614Y-84110515D01*
X87021588Y-83895587D01*
X86892342Y-83702157D01*
X86727843Y-83537658D01*
X86534413Y-83408412D01*
X86319485Y-83319386D01*
X86091318Y-83274000D01*
X85858682Y-83274000D01*
X85630515Y-83319386D01*
X85415587Y-83408412D01*
X85222157Y-83537658D01*
X85057658Y-83702157D01*
X84928412Y-83895587D01*
X84839386Y-84110515D01*
X84794000Y-84338682D01*
X84794000Y-84571318D01*
X84839386Y-84799485D01*
X84928412Y-85014413D01*
X85057658Y-85207843D01*
X85222157Y-85372342D01*
X85415587Y-85501588D01*
X85630515Y-85590614D01*
X85858682Y-85636000D01*
X86091318Y-85636000D01*
X86319485Y-85590614D01*
X86397898Y-85558134D01*
X94914275Y-94074512D01*
X94929336Y-94092864D01*
X95002578Y-94152972D01*
X95041474Y-94173762D01*
X95086138Y-94197636D01*
X95176807Y-94225140D01*
X95271100Y-94234427D01*
X95294726Y-94232100D01*
X97135274Y-94232100D01*
X97158900Y-94234427D01*
X97182526Y-94232100D01*
X97188842Y-94231478D01*
X97253192Y-94225140D01*
X97253654Y-94225000D01*
X97343861Y-94197636D01*
X97427422Y-94152972D01*
X97500664Y-94092864D01*
X97515730Y-94074506D01*
X97659236Y-93931000D01*
X142450464Y-93931000D01*
X142542870Y-94023406D01*
X142557936Y-94041764D01*
X142631178Y-94101872D01*
X142714739Y-94146536D01*
X142805408Y-94174040D01*
X142822015Y-94175676D01*
X142817157Y-94225000D01*
X142817157Y-94775000D01*
X142821490Y-94819000D01*
X99578835Y-94819000D01*
X99575487Y-94802170D01*
X99516613Y-94660037D01*
X99431142Y-94532120D01*
X99322359Y-94423337D01*
X99194442Y-94337866D01*
X99052309Y-94278992D01*
X98901422Y-94248979D01*
X98747578Y-94248979D01*
X98596691Y-94278992D01*
X98454558Y-94337866D01*
X98326641Y-94423337D01*
X98217858Y-94532120D01*
X98132387Y-94660037D01*
X98073513Y-94802170D01*
X98043500Y-94953057D01*
X98043500Y-95106901D01*
X98071763Y-95248989D01*
X87423634Y-95248989D01*
X87400010Y-95246662D01*
X87376386Y-95248989D01*
X87376385Y-95248989D01*
X87305719Y-95255949D01*
X87215050Y-95283453D01*
X87131489Y-95328117D01*
X87058247Y-95388225D01*
X87043186Y-95406577D01*
X83857898Y-98591866D01*
X83779485Y-98559386D01*
X83551318Y-98514000D01*
X83318682Y-98514000D01*
X83090515Y-98559386D01*
X82875587Y-98648412D01*
X82682157Y-98777658D01*
X82517658Y-98942157D01*
X82388412Y-99135587D01*
X82299386Y-99350515D01*
X82254000Y-99578682D01*
X82254000Y-99811318D01*
X82299386Y-100039485D01*
X82388412Y-100254413D01*
X82451613Y-100349000D01*
X82229237Y-100349000D01*
X81998134Y-100117898D01*
X82030614Y-100039485D01*
X82076000Y-99811318D01*
X82076000Y-99578682D01*
X82030614Y-99350515D01*
X81941588Y-99135587D01*
X81812342Y-98942157D01*
X81647843Y-98777658D01*
X81454413Y-98648412D01*
X81239485Y-98559386D01*
X81011318Y-98514000D01*
X80778682Y-98514000D01*
X80550515Y-98559386D01*
X80335587Y-98648412D01*
X80142157Y-98777658D01*
X79977658Y-98942157D01*
X79848412Y-99135587D01*
X79759386Y-99350515D01*
X79714000Y-99578682D01*
X79714000Y-99811318D01*
X79759386Y-100039485D01*
X79848412Y-100254413D01*
X79977658Y-100447843D01*
X80142157Y-100612342D01*
X80335587Y-100741588D01*
X80550515Y-100830614D01*
X80778682Y-100876000D01*
X81011318Y-100876000D01*
X81239485Y-100830614D01*
X81317898Y-100798134D01*
X81673175Y-101153412D01*
X81688236Y-101171764D01*
X81761478Y-101231872D01*
X81845039Y-101276536D01*
X81935708Y-101304040D01*
X82006374Y-101311000D01*
X82006375Y-101311000D01*
X82029999Y-101313327D01*
X82053623Y-101311000D01*
X86636374Y-101311000D01*
X86660000Y-101313327D01*
X86683626Y-101311000D01*
X86754292Y-101304040D01*
X86844961Y-101276536D01*
X86928522Y-101231872D01*
X87001764Y-101171764D01*
X87016830Y-101153406D01*
X87568411Y-100601826D01*
X87586764Y-100586764D01*
X87646872Y-100513522D01*
X87652607Y-100502792D01*
X87762157Y-100612342D01*
X87955587Y-100741588D01*
X88170515Y-100830614D01*
X88398682Y-100876000D01*
X88631318Y-100876000D01*
X88859485Y-100830614D01*
X88937898Y-100798134D01*
X89280170Y-101140406D01*
X89295236Y-101158764D01*
X89368478Y-101218872D01*
X89398577Y-101234960D01*
X89452038Y-101263536D01*
X89542707Y-101291040D01*
X89637000Y-101300327D01*
X89660626Y-101298000D01*
X142159074Y-101298000D01*
X142182700Y-101300327D01*
X142206326Y-101298000D01*
X142211779Y-101297463D01*
X142276992Y-101291040D01*
X142283697Y-101289006D01*
X142367661Y-101263536D01*
X142451222Y-101218872D01*
X142524464Y-101158764D01*
X142539530Y-101140406D01*
X142817157Y-100862779D01*
X142817157Y-101175000D01*
X142824513Y-101249689D01*
X142839775Y-101300000D01*
X142824513Y-101350311D01*
X142817157Y-101425000D01*
X142817157Y-101975000D01*
X142824513Y-102049689D01*
X142846299Y-102121508D01*
X142881678Y-102187696D01*
X142929289Y-102245711D01*
X142987304Y-102293322D01*
X143053492Y-102328701D01*
X143125311Y-102350487D01*
X143200000Y-102357843D01*
X144050311Y-102357843D01*
X144014213Y-102444991D01*
X143984200Y-102595878D01*
X143984200Y-102749722D01*
X144014213Y-102900609D01*
X144073087Y-103042742D01*
X144158558Y-103170659D01*
X144267341Y-103279442D01*
X144395258Y-103364913D01*
X144537391Y-103423787D01*
X144688278Y-103453800D01*
X144842122Y-103453800D01*
X144862008Y-103449844D01*
X144992157Y-103579994D01*
X144992157Y-104150000D01*
X144999513Y-104224689D01*
X145021299Y-104296508D01*
X145056678Y-104362696D01*
X145104289Y-104420711D01*
X145162304Y-104468322D01*
X145228492Y-104503701D01*
X145300311Y-104525487D01*
X145375000Y-104532843D01*
X145925000Y-104532843D01*
X145999689Y-104525487D01*
X146050000Y-104510225D01*
X146100311Y-104525487D01*
X146175000Y-104532843D01*
X146725000Y-104532843D01*
X146799689Y-104525487D01*
X146850000Y-104510225D01*
X146900311Y-104525487D01*
X146975000Y-104532843D01*
X147267885Y-104532843D01*
X147321549Y-104598908D01*
X147417839Y-104678746D01*
X147527855Y-104738265D01*
X147647369Y-104775177D01*
X147764250Y-104785000D01*
X147923000Y-104626250D01*
X147923000Y-103527000D01*
X147907843Y-103527000D01*
X147907843Y-103273000D01*
X147923000Y-103273000D01*
X147923000Y-102173750D01*
X147764250Y-102015000D01*
X147731000Y-102017794D01*
X147731000Y-101693615D01*
X147733326Y-101669999D01*
X147731000Y-101646383D01*
X147731000Y-101646374D01*
X147724040Y-101575708D01*
X147696536Y-101485039D01*
X147651872Y-101401478D01*
X147591764Y-101328236D01*
X147573411Y-101313174D01*
X147111000Y-100850764D01*
X147111000Y-99097622D01*
X147113327Y-99073996D01*
X147109344Y-99033557D01*
X147230642Y-98983313D01*
X147358559Y-98897842D01*
X147467342Y-98789059D01*
X147478607Y-98772200D01*
X147859474Y-98772200D01*
X147883100Y-98774527D01*
X147906726Y-98772200D01*
X147977392Y-98765240D01*
X148068061Y-98737736D01*
X148151622Y-98693072D01*
X148224864Y-98632964D01*
X148239930Y-98614606D01*
X149253561Y-97600976D01*
X149468787Y-97600976D01*
X148526589Y-98543175D01*
X148508237Y-98558236D01*
X148463241Y-98613064D01*
X148448129Y-98631478D01*
X148403465Y-98715039D01*
X148375960Y-98805708D01*
X148366673Y-98900000D01*
X148369001Y-98923636D01*
X148369000Y-102017794D01*
X148335750Y-102015000D01*
X148177000Y-102173750D01*
X148177000Y-103273000D01*
X148192157Y-103273000D01*
X148192157Y-103527000D01*
X148177000Y-103527000D01*
X148177000Y-104626250D01*
X148335750Y-104785000D01*
X148452631Y-104775177D01*
X148572145Y-104738265D01*
X148682161Y-104678746D01*
X148778451Y-104598908D01*
X148832115Y-104532843D01*
X149125000Y-104532843D01*
X149199689Y-104525487D01*
X149250000Y-104510225D01*
X149300311Y-104525487D01*
X149375000Y-104532843D01*
X149925000Y-104532843D01*
X149999689Y-104525487D01*
X150050000Y-104510225D01*
X150100311Y-104525487D01*
X150175000Y-104532843D01*
X150725000Y-104532843D01*
X150774324Y-104527985D01*
X150775960Y-104544592D01*
X150803374Y-104634962D01*
X150803465Y-104635261D01*
X150848129Y-104718822D01*
X150908237Y-104792064D01*
X150926589Y-104807125D01*
X151083464Y-104964000D01*
X144698170Y-104964000D01*
X141221193Y-101487024D01*
X141208474Y-101471526D01*
X141146653Y-101420790D01*
X141076121Y-101383090D01*
X140999590Y-101359875D01*
X140939941Y-101354000D01*
X140939933Y-101354000D01*
X140920000Y-101352037D01*
X140900067Y-101354000D01*
X79058170Y-101354000D01*
X77476000Y-99771831D01*
X77476000Y-95178169D01*
X78072981Y-94581189D01*
X78088474Y-94568474D01*
X78139210Y-94506653D01*
X78176910Y-94436121D01*
X78200125Y-94359590D01*
X78206000Y-94299941D01*
X78206000Y-94299933D01*
X78207963Y-94280000D01*
X78206000Y-94260067D01*
X78206000Y-87829933D01*
X78207963Y-87810000D01*
X78206000Y-87790067D01*
X78206000Y-87790059D01*
X78200125Y-87730410D01*
X78176910Y-87653879D01*
X78139210Y-87583347D01*
X78088474Y-87521526D01*
X78072982Y-87508812D01*
X77476000Y-86911831D01*
X77476000Y-84338682D01*
X79714000Y-84338682D01*
X79714000Y-84571318D01*
X79759386Y-84799485D01*
X79848412Y-85014413D01*
X79977658Y-85207843D01*
X80142157Y-85372342D01*
X80335587Y-85501588D01*
X80550515Y-85590614D01*
X80778682Y-85636000D01*
X81011318Y-85636000D01*
X81239485Y-85590614D01*
X81454413Y-85501588D01*
X81647843Y-85372342D01*
X81812342Y-85207843D01*
X81941588Y-85014413D01*
X82030614Y-84799485D01*
X82076000Y-84571318D01*
X82076000Y-84338682D01*
X82254000Y-84338682D01*
X82254000Y-84571318D01*
X82299386Y-84799485D01*
X82388412Y-85014413D01*
X82517658Y-85207843D01*
X82682157Y-85372342D01*
X82875587Y-85501588D01*
X83090515Y-85590614D01*
X83318682Y-85636000D01*
X83551318Y-85636000D01*
X83779485Y-85590614D01*
X83994413Y-85501588D01*
X84187843Y-85372342D01*
X84352342Y-85207843D01*
X84481588Y-85014413D01*
X84570614Y-84799485D01*
X84616000Y-84571318D01*
X84616000Y-84338682D01*
X84570614Y-84110515D01*
X84481588Y-83895587D01*
X84352342Y-83702157D01*
X84187843Y-83537658D01*
X83994413Y-83408412D01*
X83779485Y-83319386D01*
X83551318Y-83274000D01*
X83318682Y-83274000D01*
X83090515Y-83319386D01*
X82875587Y-83408412D01*
X82682157Y-83537658D01*
X82517658Y-83702157D01*
X82388412Y-83895587D01*
X82299386Y-84110515D01*
X82254000Y-84338682D01*
X82076000Y-84338682D01*
X82030614Y-84110515D01*
X81941588Y-83895587D01*
X81812342Y-83702157D01*
X81647843Y-83537658D01*
X81454413Y-83408412D01*
X81239485Y-83319386D01*
X81011318Y-83274000D01*
X80778682Y-83274000D01*
X80550515Y-83319386D01*
X80335587Y-83408412D01*
X80142157Y-83537658D01*
X79977658Y-83702157D01*
X79848412Y-83895587D01*
X79759386Y-84110515D01*
X79714000Y-84338682D01*
X77476000Y-84338682D01*
X77476000Y-82318169D01*
X79078170Y-80716000D01*
X96300210Y-80716000D01*
X93737085Y-83279126D01*
G37*
%TD.AperFunction*%
D22*
X149774022Y-98701908D02*
X149804035Y-98852795D01*
X149862909Y-98994928D01*
X149948380Y-99122845D01*
X150057163Y-99231628D01*
X150074465Y-99243189D01*
X150080245Y-99301871D01*
X150080982Y-99309356D01*
X150108486Y-99400025D01*
X150153150Y-99483587D01*
X150213258Y-99556829D01*
X150231616Y-99571895D01*
X151478721Y-100819000D01*
X150153627Y-100819000D01*
X150130000Y-100816673D01*
X150035707Y-100825960D01*
X149945038Y-100853464D01*
X149910291Y-100872037D01*
X149861478Y-100898128D01*
X149788236Y-100958236D01*
X149773170Y-100976594D01*
X149331000Y-101418764D01*
X149331000Y-99099236D01*
X149774022Y-98656215D01*
X149774022Y-98701908D01*
%TA.AperFunction,Conductor*%
D23*
G36*
X149774022Y-98701908D02*
G01*
X149804035Y-98852795D01*
X149862909Y-98994928D01*
X149948380Y-99122845D01*
X150057163Y-99231628D01*
X150074465Y-99243189D01*
X150080245Y-99301871D01*
X150080982Y-99309356D01*
X150108486Y-99400025D01*
X150153150Y-99483587D01*
X150213258Y-99556829D01*
X150231616Y-99571895D01*
X151478721Y-100819000D01*
X150153627Y-100819000D01*
X150130000Y-100816673D01*
X150035707Y-100825960D01*
X149945038Y-100853464D01*
X149910291Y-100872037D01*
X149861478Y-100898128D01*
X149788236Y-100958236D01*
X149773170Y-100976594D01*
X149331000Y-101418764D01*
X149331000Y-99099236D01*
X149774022Y-98656215D01*
X149774022Y-98701908D01*
G37*
%TD.AperFunction*%
D22*
X153965000Y-97414250D02*
X154123750Y-97573000D01*
X155223000Y-97573000D01*
X155223000Y-97557843D01*
X155477000Y-97557843D01*
X155477000Y-97573000D01*
X155497000Y-97573000D01*
X155497000Y-97827000D01*
X155477000Y-97827000D01*
X155477000Y-97842157D01*
X155223000Y-97842157D01*
X155223000Y-97827000D01*
X154123750Y-97827000D01*
X153965000Y-97985750D01*
X153974823Y-98102631D01*
X153996716Y-98173516D01*
X153984571Y-98171100D01*
X153811029Y-98171100D01*
X153640822Y-98204956D01*
X153480490Y-98271368D01*
X153336195Y-98367782D01*
X153213482Y-98490495D01*
X153117068Y-98634790D01*
X153050656Y-98795122D01*
X153016800Y-98965329D01*
X153016800Y-99138871D01*
X153050656Y-99309078D01*
X153117068Y-99469410D01*
X153213482Y-99613705D01*
X153336195Y-99736418D01*
X153480490Y-99832832D01*
X153640822Y-99899244D01*
X153811029Y-99933100D01*
X153984571Y-99933100D01*
X154034728Y-99923123D01*
X154145700Y-99934053D01*
X154176698Y-99931000D01*
X154217157Y-99931000D01*
X154217157Y-100375000D01*
X154224513Y-100449689D01*
X154239775Y-100500000D01*
X154224513Y-100550311D01*
X154217157Y-100625000D01*
X154217157Y-101175000D01*
X154218170Y-101185287D01*
X154203406Y-101173170D01*
X151741000Y-98710764D01*
X151741000Y-98363627D01*
X151743327Y-98340000D01*
X151734040Y-98245707D01*
X151706536Y-98155038D01*
X151679768Y-98104959D01*
X151661872Y-98071478D01*
X151601764Y-97998236D01*
X151583406Y-97983170D01*
X151201212Y-97600976D01*
X152140698Y-97600976D01*
X152164324Y-97603303D01*
X152187950Y-97600976D01*
X152207130Y-97599087D01*
X152258616Y-97594016D01*
X152260887Y-97593327D01*
X152349285Y-97566512D01*
X152432846Y-97521848D01*
X152506088Y-97461740D01*
X152521154Y-97443382D01*
X152662036Y-97302500D01*
X153974392Y-97302500D01*
X153965000Y-97414250D01*
%TA.AperFunction,Conductor*%
D23*
G36*
X153965000Y-97414250D02*
G01*
X154123750Y-97573000D01*
X155223000Y-97573000D01*
X155223000Y-97557843D01*
X155477000Y-97557843D01*
X155477000Y-97573000D01*
X155497000Y-97573000D01*
X155497000Y-97827000D01*
X155477000Y-97827000D01*
X155477000Y-97842157D01*
X155223000Y-97842157D01*
X155223000Y-97827000D01*
X154123750Y-97827000D01*
X153965000Y-97985750D01*
X153974823Y-98102631D01*
X153996716Y-98173516D01*
X153984571Y-98171100D01*
X153811029Y-98171100D01*
X153640822Y-98204956D01*
X153480490Y-98271368D01*
X153336195Y-98367782D01*
X153213482Y-98490495D01*
X153117068Y-98634790D01*
X153050656Y-98795122D01*
X153016800Y-98965329D01*
X153016800Y-99138871D01*
X153050656Y-99309078D01*
X153117068Y-99469410D01*
X153213482Y-99613705D01*
X153336195Y-99736418D01*
X153480490Y-99832832D01*
X153640822Y-99899244D01*
X153811029Y-99933100D01*
X153984571Y-99933100D01*
X154034728Y-99923123D01*
X154145700Y-99934053D01*
X154176698Y-99931000D01*
X154217157Y-99931000D01*
X154217157Y-100375000D01*
X154224513Y-100449689D01*
X154239775Y-100500000D01*
X154224513Y-100550311D01*
X154217157Y-100625000D01*
X154217157Y-101175000D01*
X154218170Y-101185287D01*
X154203406Y-101173170D01*
X151741000Y-98710764D01*
X151741000Y-98363627D01*
X151743327Y-98340000D01*
X151734040Y-98245707D01*
X151706536Y-98155038D01*
X151679768Y-98104959D01*
X151661872Y-98071478D01*
X151601764Y-97998236D01*
X151583406Y-97983170D01*
X151201212Y-97600976D01*
X152140698Y-97600976D01*
X152164324Y-97603303D01*
X152187950Y-97600976D01*
X152207130Y-97599087D01*
X152258616Y-97594016D01*
X152260887Y-97593327D01*
X152349285Y-97566512D01*
X152432846Y-97521848D01*
X152506088Y-97461740D01*
X152521154Y-97443382D01*
X152662036Y-97302500D01*
X153974392Y-97302500D01*
X153965000Y-97414250D01*
G37*
%TD.AperFunction*%
D22*
X86921594Y-98858170D02*
X86903236Y-98873236D01*
X86867259Y-98917074D01*
X86727843Y-98777658D01*
X86534413Y-98648412D01*
X86319485Y-98559386D01*
X86091318Y-98514000D01*
X85858682Y-98514000D01*
X85630515Y-98559386D01*
X85415587Y-98648412D01*
X85222157Y-98777658D01*
X85057658Y-98942157D01*
X84928412Y-99135587D01*
X84839386Y-99350515D01*
X84794000Y-99578682D01*
X84794000Y-99811318D01*
X84839386Y-100039485D01*
X84928412Y-100254413D01*
X84991613Y-100349000D01*
X84418387Y-100349000D01*
X84481588Y-100254413D01*
X84570614Y-100039485D01*
X84616000Y-99811318D01*
X84616000Y-99578682D01*
X84570614Y-99350515D01*
X84538134Y-99272102D01*
X87599248Y-96210989D01*
X89568774Y-96210989D01*
X86921594Y-98858170D01*
%TA.AperFunction,Conductor*%
D23*
G36*
X86921594Y-98858170D02*
G01*
X86903236Y-98873236D01*
X86867259Y-98917074D01*
X86727843Y-98777658D01*
X86534413Y-98648412D01*
X86319485Y-98559386D01*
X86091318Y-98514000D01*
X85858682Y-98514000D01*
X85630515Y-98559386D01*
X85415587Y-98648412D01*
X85222157Y-98777658D01*
X85057658Y-98942157D01*
X84928412Y-99135587D01*
X84839386Y-99350515D01*
X84794000Y-99578682D01*
X84794000Y-99811318D01*
X84839386Y-100039485D01*
X84928412Y-100254413D01*
X84991613Y-100349000D01*
X84418387Y-100349000D01*
X84481588Y-100254413D01*
X84570614Y-100039485D01*
X84616000Y-99811318D01*
X84616000Y-99578682D01*
X84570614Y-99350515D01*
X84538134Y-99272102D01*
X87599248Y-96210989D01*
X89568774Y-96210989D01*
X86921594Y-98858170D01*
G37*
%TD.AperFunction*%
D22*
X141113175Y-98823412D02*
X141128236Y-98841764D01*
X141201478Y-98901872D01*
X141285039Y-98946536D01*
X141375708Y-98974040D01*
X141446374Y-98981000D01*
X141446375Y-98981000D01*
X141469999Y-98983327D01*
X141493623Y-98981000D01*
X142821490Y-98981000D01*
X142817157Y-99025000D01*
X142817157Y-99575000D01*
X142822015Y-99624324D01*
X142805407Y-99625960D01*
X142777903Y-99634304D01*
X142714739Y-99653464D01*
X142631178Y-99698128D01*
X142557936Y-99758236D01*
X142542875Y-99776588D01*
X141983464Y-100336000D01*
X140307073Y-100336000D01*
X140361588Y-100254413D01*
X140450614Y-100039485D01*
X140496000Y-99811318D01*
X140496000Y-99578682D01*
X140450614Y-99350515D01*
X140361588Y-99135587D01*
X140232342Y-98942157D01*
X140067843Y-98777658D01*
X139874413Y-98648412D01*
X139659485Y-98559386D01*
X139431318Y-98514000D01*
X139198682Y-98514000D01*
X138970515Y-98559386D01*
X138755587Y-98648412D01*
X138562157Y-98777658D01*
X138397658Y-98942157D01*
X138268412Y-99135587D01*
X138179386Y-99350515D01*
X138134000Y-99578682D01*
X138134000Y-99811318D01*
X138179386Y-100039485D01*
X138268412Y-100254413D01*
X138322927Y-100336000D01*
X137767073Y-100336000D01*
X137821588Y-100254413D01*
X137910614Y-100039485D01*
X137956000Y-99811318D01*
X137956000Y-99578682D01*
X137910614Y-99350515D01*
X137821588Y-99135587D01*
X137692342Y-98942157D01*
X137527843Y-98777658D01*
X137334413Y-98648412D01*
X137119485Y-98559386D01*
X136891318Y-98514000D01*
X136658682Y-98514000D01*
X136430515Y-98559386D01*
X136215587Y-98648412D01*
X136022157Y-98777658D01*
X135857658Y-98942157D01*
X135728412Y-99135587D01*
X135639386Y-99350515D01*
X135594000Y-99578682D01*
X135594000Y-99811318D01*
X135639386Y-100039485D01*
X135728412Y-100254413D01*
X135782927Y-100336000D01*
X135227073Y-100336000D01*
X135281588Y-100254413D01*
X135370614Y-100039485D01*
X135416000Y-99811318D01*
X135416000Y-99578682D01*
X135370614Y-99350515D01*
X135281588Y-99135587D01*
X135152342Y-98942157D01*
X134987843Y-98777658D01*
X134794413Y-98648412D01*
X134579485Y-98559386D01*
X134351318Y-98514000D01*
X134118682Y-98514000D01*
X133890515Y-98559386D01*
X133675587Y-98648412D01*
X133482157Y-98777658D01*
X133317658Y-98942157D01*
X133188412Y-99135587D01*
X133099386Y-99350515D01*
X133054000Y-99578682D01*
X133054000Y-99811318D01*
X133099386Y-100039485D01*
X133188412Y-100254413D01*
X133242927Y-100336000D01*
X132687073Y-100336000D01*
X132741588Y-100254413D01*
X132830614Y-100039485D01*
X132876000Y-99811318D01*
X132876000Y-99578682D01*
X132830614Y-99350515D01*
X132741588Y-99135587D01*
X132612342Y-98942157D01*
X132447843Y-98777658D01*
X132254413Y-98648412D01*
X132039485Y-98559386D01*
X131811318Y-98514000D01*
X131578682Y-98514000D01*
X131350515Y-98559386D01*
X131135587Y-98648412D01*
X130942157Y-98777658D01*
X130777658Y-98942157D01*
X130648412Y-99135587D01*
X130559386Y-99350515D01*
X130514000Y-99578682D01*
X130514000Y-99811318D01*
X130559386Y-100039485D01*
X130648412Y-100254413D01*
X130702927Y-100336000D01*
X130147073Y-100336000D01*
X130201588Y-100254413D01*
X130290614Y-100039485D01*
X130336000Y-99811318D01*
X130336000Y-99578682D01*
X130290614Y-99350515D01*
X130201588Y-99135587D01*
X130072342Y-98942157D01*
X129907843Y-98777658D01*
X129714413Y-98648412D01*
X129499485Y-98559386D01*
X129271318Y-98514000D01*
X129038682Y-98514000D01*
X128810515Y-98559386D01*
X128595587Y-98648412D01*
X128402157Y-98777658D01*
X128237658Y-98942157D01*
X128108412Y-99135587D01*
X128019386Y-99350515D01*
X127974000Y-99578682D01*
X127974000Y-99811318D01*
X128019386Y-100039485D01*
X128108412Y-100254413D01*
X128162927Y-100336000D01*
X127607073Y-100336000D01*
X127661588Y-100254413D01*
X127750614Y-100039485D01*
X127796000Y-99811318D01*
X127796000Y-99578682D01*
X127750614Y-99350515D01*
X127661588Y-99135587D01*
X127532342Y-98942157D01*
X127367843Y-98777658D01*
X127174413Y-98648412D01*
X126959485Y-98559386D01*
X126731318Y-98514000D01*
X126498682Y-98514000D01*
X126270515Y-98559386D01*
X126055587Y-98648412D01*
X125862157Y-98777658D01*
X125697658Y-98942157D01*
X125568412Y-99135587D01*
X125479386Y-99350515D01*
X125434000Y-99578682D01*
X125434000Y-99811318D01*
X125479386Y-100039485D01*
X125568412Y-100254413D01*
X125622927Y-100336000D01*
X125067073Y-100336000D01*
X125121588Y-100254413D01*
X125210614Y-100039485D01*
X125256000Y-99811318D01*
X125256000Y-99578682D01*
X125210614Y-99350515D01*
X125121588Y-99135587D01*
X124992342Y-98942157D01*
X124827843Y-98777658D01*
X124634413Y-98648412D01*
X124419485Y-98559386D01*
X124191318Y-98514000D01*
X123958682Y-98514000D01*
X123730515Y-98559386D01*
X123515587Y-98648412D01*
X123322157Y-98777658D01*
X123157658Y-98942157D01*
X123028412Y-99135587D01*
X122939386Y-99350515D01*
X122894000Y-99578682D01*
X122894000Y-99811318D01*
X122939386Y-100039485D01*
X123028412Y-100254413D01*
X123082927Y-100336000D01*
X122527073Y-100336000D01*
X122581588Y-100254413D01*
X122670614Y-100039485D01*
X122716000Y-99811318D01*
X122716000Y-99578682D01*
X122670614Y-99350515D01*
X122581588Y-99135587D01*
X122452342Y-98942157D01*
X122287843Y-98777658D01*
X122094413Y-98648412D01*
X121879485Y-98559386D01*
X121651318Y-98514000D01*
X121418682Y-98514000D01*
X121190515Y-98559386D01*
X120975587Y-98648412D01*
X120782157Y-98777658D01*
X120617658Y-98942157D01*
X120488412Y-99135587D01*
X120399386Y-99350515D01*
X120354000Y-99578682D01*
X120354000Y-99811318D01*
X120399386Y-100039485D01*
X120488412Y-100254413D01*
X120542927Y-100336000D01*
X119987073Y-100336000D01*
X120041588Y-100254413D01*
X120130614Y-100039485D01*
X120176000Y-99811318D01*
X120176000Y-99578682D01*
X120130614Y-99350515D01*
X120041588Y-99135587D01*
X119912342Y-98942157D01*
X119747843Y-98777658D01*
X119554413Y-98648412D01*
X119339485Y-98559386D01*
X119111318Y-98514000D01*
X118878682Y-98514000D01*
X118650515Y-98559386D01*
X118435587Y-98648412D01*
X118242157Y-98777658D01*
X118077658Y-98942157D01*
X117948412Y-99135587D01*
X117859386Y-99350515D01*
X117814000Y-99578682D01*
X117814000Y-99811318D01*
X117859386Y-100039485D01*
X117948412Y-100254413D01*
X118002927Y-100336000D01*
X117447073Y-100336000D01*
X117501588Y-100254413D01*
X117590614Y-100039485D01*
X117636000Y-99811318D01*
X117636000Y-99578682D01*
X117590614Y-99350515D01*
X117501588Y-99135587D01*
X117372342Y-98942157D01*
X117207843Y-98777658D01*
X117014413Y-98648412D01*
X116799485Y-98559386D01*
X116571318Y-98514000D01*
X116338682Y-98514000D01*
X116110515Y-98559386D01*
X115895587Y-98648412D01*
X115702157Y-98777658D01*
X115537658Y-98942157D01*
X115408412Y-99135587D01*
X115319386Y-99350515D01*
X115274000Y-99578682D01*
X115274000Y-99811318D01*
X115319386Y-100039485D01*
X115408412Y-100254413D01*
X115462927Y-100336000D01*
X114907073Y-100336000D01*
X114961588Y-100254413D01*
X115050614Y-100039485D01*
X115096000Y-99811318D01*
X115096000Y-99578682D01*
X115050614Y-99350515D01*
X114961588Y-99135587D01*
X114832342Y-98942157D01*
X114667843Y-98777658D01*
X114474413Y-98648412D01*
X114259485Y-98559386D01*
X114031318Y-98514000D01*
X113798682Y-98514000D01*
X113570515Y-98559386D01*
X113355587Y-98648412D01*
X113162157Y-98777658D01*
X112997658Y-98942157D01*
X112868412Y-99135587D01*
X112779386Y-99350515D01*
X112736125Y-99567998D01*
X112645625Y-99567998D01*
X112766909Y-99345960D01*
X112672070Y-99081119D01*
X112527385Y-98839869D01*
X112338414Y-98631481D01*
X112112420Y-98463963D01*
X111858087Y-98343754D01*
X111724039Y-98303096D01*
X111502000Y-98425085D01*
X111502000Y-99568000D01*
X111522000Y-99568000D01*
X111522000Y-99822000D01*
X111502000Y-99822000D01*
X111502000Y-99842000D01*
X111248000Y-99842000D01*
X111248000Y-99822000D01*
X111228000Y-99822000D01*
X111228000Y-99568000D01*
X111248000Y-99568000D01*
X111248000Y-98425085D01*
X111025961Y-98303096D01*
X110891913Y-98343754D01*
X110637580Y-98463963D01*
X110411586Y-98631481D01*
X110222615Y-98839869D01*
X110077930Y-99081119D01*
X109983091Y-99345960D01*
X110104375Y-99567998D01*
X110013875Y-99567998D01*
X109970614Y-99350515D01*
X109881588Y-99135587D01*
X109752342Y-98942157D01*
X109587843Y-98777658D01*
X109394413Y-98648412D01*
X109179485Y-98559386D01*
X108951318Y-98514000D01*
X108718682Y-98514000D01*
X108490515Y-98559386D01*
X108275587Y-98648412D01*
X108082157Y-98777658D01*
X107917658Y-98942157D01*
X107788412Y-99135587D01*
X107699386Y-99350515D01*
X107654000Y-99578682D01*
X107654000Y-99811318D01*
X107699386Y-100039485D01*
X107788412Y-100254413D01*
X107842927Y-100336000D01*
X107287073Y-100336000D01*
X107341588Y-100254413D01*
X107430614Y-100039485D01*
X107476000Y-99811318D01*
X107476000Y-99578682D01*
X107430614Y-99350515D01*
X107341588Y-99135587D01*
X107212342Y-98942157D01*
X107047843Y-98777658D01*
X106854413Y-98648412D01*
X106639485Y-98559386D01*
X106411318Y-98514000D01*
X106178682Y-98514000D01*
X105950515Y-98559386D01*
X105735587Y-98648412D01*
X105542157Y-98777658D01*
X105377658Y-98942157D01*
X105248412Y-99135587D01*
X105159386Y-99350515D01*
X105114000Y-99578682D01*
X105114000Y-99811318D01*
X105159386Y-100039485D01*
X105248412Y-100254413D01*
X105302927Y-100336000D01*
X104747073Y-100336000D01*
X104801588Y-100254413D01*
X104890614Y-100039485D01*
X104936000Y-99811318D01*
X104936000Y-99578682D01*
X104890614Y-99350515D01*
X104801588Y-99135587D01*
X104672342Y-98942157D01*
X104507843Y-98777658D01*
X104314413Y-98648412D01*
X104099485Y-98559386D01*
X103871318Y-98514000D01*
X103638682Y-98514000D01*
X103410515Y-98559386D01*
X103195587Y-98648412D01*
X103002157Y-98777658D01*
X102837658Y-98942157D01*
X102708412Y-99135587D01*
X102619386Y-99350515D01*
X102574000Y-99578682D01*
X102574000Y-99811318D01*
X102619386Y-100039485D01*
X102708412Y-100254413D01*
X102762927Y-100336000D01*
X102207073Y-100336000D01*
X102261588Y-100254413D01*
X102350614Y-100039485D01*
X102396000Y-99811318D01*
X102396000Y-99578682D01*
X102350614Y-99350515D01*
X102261588Y-99135587D01*
X102132342Y-98942157D01*
X101967843Y-98777658D01*
X101774413Y-98648412D01*
X101559485Y-98559386D01*
X101331318Y-98514000D01*
X101098682Y-98514000D01*
X100870515Y-98559386D01*
X100655587Y-98648412D01*
X100462157Y-98777658D01*
X100297658Y-98942157D01*
X100168412Y-99135587D01*
X100079386Y-99350515D01*
X100034000Y-99578682D01*
X100034000Y-99811318D01*
X100079386Y-100039485D01*
X100168412Y-100254413D01*
X100222927Y-100336000D01*
X99667073Y-100336000D01*
X99721588Y-100254413D01*
X99810614Y-100039485D01*
X99856000Y-99811318D01*
X99856000Y-99578682D01*
X99810614Y-99350515D01*
X99721588Y-99135587D01*
X99592342Y-98942157D01*
X99427843Y-98777658D01*
X99234413Y-98648412D01*
X99019485Y-98559386D01*
X98791318Y-98514000D01*
X98558682Y-98514000D01*
X98330515Y-98559386D01*
X98115587Y-98648412D01*
X97922157Y-98777658D01*
X97757658Y-98942157D01*
X97628412Y-99135587D01*
X97539386Y-99350515D01*
X97494000Y-99578682D01*
X97494000Y-99811318D01*
X97539386Y-100039485D01*
X97628412Y-100254413D01*
X97682927Y-100336000D01*
X97127073Y-100336000D01*
X97181588Y-100254413D01*
X97270614Y-100039485D01*
X97316000Y-99811318D01*
X97316000Y-99578682D01*
X97270614Y-99350515D01*
X97181588Y-99135587D01*
X97052342Y-98942157D01*
X96887843Y-98777658D01*
X96694413Y-98648412D01*
X96479485Y-98559386D01*
X96251318Y-98514000D01*
X96018682Y-98514000D01*
X95790515Y-98559386D01*
X95575587Y-98648412D01*
X95382157Y-98777658D01*
X95217658Y-98942157D01*
X95088412Y-99135587D01*
X94999386Y-99350515D01*
X94954000Y-99578682D01*
X94954000Y-99811318D01*
X94999386Y-100039485D01*
X95088412Y-100254413D01*
X95142927Y-100336000D01*
X94587073Y-100336000D01*
X94641588Y-100254413D01*
X94730614Y-100039485D01*
X94776000Y-99811318D01*
X94776000Y-99578682D01*
X94730614Y-99350515D01*
X94641588Y-99135587D01*
X94512342Y-98942157D01*
X94347843Y-98777658D01*
X94154413Y-98648412D01*
X93939485Y-98559386D01*
X93711318Y-98514000D01*
X93478682Y-98514000D01*
X93250515Y-98559386D01*
X93035587Y-98648412D01*
X92842157Y-98777658D01*
X92677658Y-98942157D01*
X92548412Y-99135587D01*
X92459386Y-99350515D01*
X92414000Y-99578682D01*
X92414000Y-99811318D01*
X92459386Y-100039485D01*
X92548412Y-100254413D01*
X92602927Y-100336000D01*
X92047073Y-100336000D01*
X92101588Y-100254413D01*
X92190614Y-100039485D01*
X92236000Y-99811318D01*
X92236000Y-99578682D01*
X92190614Y-99350515D01*
X92158134Y-99272102D01*
X94319236Y-97111000D01*
X139400764Y-97111000D01*
X141113175Y-98823412D01*
%TA.AperFunction,Conductor*%
D23*
G36*
X141113175Y-98823412D02*
G01*
X141128236Y-98841764D01*
X141201478Y-98901872D01*
X141285039Y-98946536D01*
X141375708Y-98974040D01*
X141446374Y-98981000D01*
X141446375Y-98981000D01*
X141469999Y-98983327D01*
X141493623Y-98981000D01*
X142821490Y-98981000D01*
X142817157Y-99025000D01*
X142817157Y-99575000D01*
X142822015Y-99624324D01*
X142805407Y-99625960D01*
X142777903Y-99634304D01*
X142714739Y-99653464D01*
X142631178Y-99698128D01*
X142557936Y-99758236D01*
X142542875Y-99776588D01*
X141983464Y-100336000D01*
X140307073Y-100336000D01*
X140361588Y-100254413D01*
X140450614Y-100039485D01*
X140496000Y-99811318D01*
X140496000Y-99578682D01*
X140450614Y-99350515D01*
X140361588Y-99135587D01*
X140232342Y-98942157D01*
X140067843Y-98777658D01*
X139874413Y-98648412D01*
X139659485Y-98559386D01*
X139431318Y-98514000D01*
X139198682Y-98514000D01*
X138970515Y-98559386D01*
X138755587Y-98648412D01*
X138562157Y-98777658D01*
X138397658Y-98942157D01*
X138268412Y-99135587D01*
X138179386Y-99350515D01*
X138134000Y-99578682D01*
X138134000Y-99811318D01*
X138179386Y-100039485D01*
X138268412Y-100254413D01*
X138322927Y-100336000D01*
X137767073Y-100336000D01*
X137821588Y-100254413D01*
X137910614Y-100039485D01*
X137956000Y-99811318D01*
X137956000Y-99578682D01*
X137910614Y-99350515D01*
X137821588Y-99135587D01*
X137692342Y-98942157D01*
X137527843Y-98777658D01*
X137334413Y-98648412D01*
X137119485Y-98559386D01*
X136891318Y-98514000D01*
X136658682Y-98514000D01*
X136430515Y-98559386D01*
X136215587Y-98648412D01*
X136022157Y-98777658D01*
X135857658Y-98942157D01*
X135728412Y-99135587D01*
X135639386Y-99350515D01*
X135594000Y-99578682D01*
X135594000Y-99811318D01*
X135639386Y-100039485D01*
X135728412Y-100254413D01*
X135782927Y-100336000D01*
X135227073Y-100336000D01*
X135281588Y-100254413D01*
X135370614Y-100039485D01*
X135416000Y-99811318D01*
X135416000Y-99578682D01*
X135370614Y-99350515D01*
X135281588Y-99135587D01*
X135152342Y-98942157D01*
X134987843Y-98777658D01*
X134794413Y-98648412D01*
X134579485Y-98559386D01*
X134351318Y-98514000D01*
X134118682Y-98514000D01*
X133890515Y-98559386D01*
X133675587Y-98648412D01*
X133482157Y-98777658D01*
X133317658Y-98942157D01*
X133188412Y-99135587D01*
X133099386Y-99350515D01*
X133054000Y-99578682D01*
X133054000Y-99811318D01*
X133099386Y-100039485D01*
X133188412Y-100254413D01*
X133242927Y-100336000D01*
X132687073Y-100336000D01*
X132741588Y-100254413D01*
X132830614Y-100039485D01*
X132876000Y-99811318D01*
X132876000Y-99578682D01*
X132830614Y-99350515D01*
X132741588Y-99135587D01*
X132612342Y-98942157D01*
X132447843Y-98777658D01*
X132254413Y-98648412D01*
X132039485Y-98559386D01*
X131811318Y-98514000D01*
X131578682Y-98514000D01*
X131350515Y-98559386D01*
X131135587Y-98648412D01*
X130942157Y-98777658D01*
X130777658Y-98942157D01*
X130648412Y-99135587D01*
X130559386Y-99350515D01*
X130514000Y-99578682D01*
X130514000Y-99811318D01*
X130559386Y-100039485D01*
X130648412Y-100254413D01*
X130702927Y-100336000D01*
X130147073Y-100336000D01*
X130201588Y-100254413D01*
X130290614Y-100039485D01*
X130336000Y-99811318D01*
X130336000Y-99578682D01*
X130290614Y-99350515D01*
X130201588Y-99135587D01*
X130072342Y-98942157D01*
X129907843Y-98777658D01*
X129714413Y-98648412D01*
X129499485Y-98559386D01*
X129271318Y-98514000D01*
X129038682Y-98514000D01*
X128810515Y-98559386D01*
X128595587Y-98648412D01*
X128402157Y-98777658D01*
X128237658Y-98942157D01*
X128108412Y-99135587D01*
X128019386Y-99350515D01*
X127974000Y-99578682D01*
X127974000Y-99811318D01*
X128019386Y-100039485D01*
X128108412Y-100254413D01*
X128162927Y-100336000D01*
X127607073Y-100336000D01*
X127661588Y-100254413D01*
X127750614Y-100039485D01*
X127796000Y-99811318D01*
X127796000Y-99578682D01*
X127750614Y-99350515D01*
X127661588Y-99135587D01*
X127532342Y-98942157D01*
X127367843Y-98777658D01*
X127174413Y-98648412D01*
X126959485Y-98559386D01*
X126731318Y-98514000D01*
X126498682Y-98514000D01*
X126270515Y-98559386D01*
X126055587Y-98648412D01*
X125862157Y-98777658D01*
X125697658Y-98942157D01*
X125568412Y-99135587D01*
X125479386Y-99350515D01*
X125434000Y-99578682D01*
X125434000Y-99811318D01*
X125479386Y-100039485D01*
X125568412Y-100254413D01*
X125622927Y-100336000D01*
X125067073Y-100336000D01*
X125121588Y-100254413D01*
X125210614Y-100039485D01*
X125256000Y-99811318D01*
X125256000Y-99578682D01*
X125210614Y-99350515D01*
X125121588Y-99135587D01*
X124992342Y-98942157D01*
X124827843Y-98777658D01*
X124634413Y-98648412D01*
X124419485Y-98559386D01*
X124191318Y-98514000D01*
X123958682Y-98514000D01*
X123730515Y-98559386D01*
X123515587Y-98648412D01*
X123322157Y-98777658D01*
X123157658Y-98942157D01*
X123028412Y-99135587D01*
X122939386Y-99350515D01*
X122894000Y-99578682D01*
X122894000Y-99811318D01*
X122939386Y-100039485D01*
X123028412Y-100254413D01*
X123082927Y-100336000D01*
X122527073Y-100336000D01*
X122581588Y-100254413D01*
X122670614Y-100039485D01*
X122716000Y-99811318D01*
X122716000Y-99578682D01*
X122670614Y-99350515D01*
X122581588Y-99135587D01*
X122452342Y-98942157D01*
X122287843Y-98777658D01*
X122094413Y-98648412D01*
X121879485Y-98559386D01*
X121651318Y-98514000D01*
X121418682Y-98514000D01*
X121190515Y-98559386D01*
X120975587Y-98648412D01*
X120782157Y-98777658D01*
X120617658Y-98942157D01*
X120488412Y-99135587D01*
X120399386Y-99350515D01*
X120354000Y-99578682D01*
X120354000Y-99811318D01*
X120399386Y-100039485D01*
X120488412Y-100254413D01*
X120542927Y-100336000D01*
X119987073Y-100336000D01*
X120041588Y-100254413D01*
X120130614Y-100039485D01*
X120176000Y-99811318D01*
X120176000Y-99578682D01*
X120130614Y-99350515D01*
X120041588Y-99135587D01*
X119912342Y-98942157D01*
X119747843Y-98777658D01*
X119554413Y-98648412D01*
X119339485Y-98559386D01*
X119111318Y-98514000D01*
X118878682Y-98514000D01*
X118650515Y-98559386D01*
X118435587Y-98648412D01*
X118242157Y-98777658D01*
X118077658Y-98942157D01*
X117948412Y-99135587D01*
X117859386Y-99350515D01*
X117814000Y-99578682D01*
X117814000Y-99811318D01*
X117859386Y-100039485D01*
X117948412Y-100254413D01*
X118002927Y-100336000D01*
X117447073Y-100336000D01*
X117501588Y-100254413D01*
X117590614Y-100039485D01*
X117636000Y-99811318D01*
X117636000Y-99578682D01*
X117590614Y-99350515D01*
X117501588Y-99135587D01*
X117372342Y-98942157D01*
X117207843Y-98777658D01*
X117014413Y-98648412D01*
X116799485Y-98559386D01*
X116571318Y-98514000D01*
X116338682Y-98514000D01*
X116110515Y-98559386D01*
X115895587Y-98648412D01*
X115702157Y-98777658D01*
X115537658Y-98942157D01*
X115408412Y-99135587D01*
X115319386Y-99350515D01*
X115274000Y-99578682D01*
X115274000Y-99811318D01*
X115319386Y-100039485D01*
X115408412Y-100254413D01*
X115462927Y-100336000D01*
X114907073Y-100336000D01*
X114961588Y-100254413D01*
X115050614Y-100039485D01*
X115096000Y-99811318D01*
X115096000Y-99578682D01*
X115050614Y-99350515D01*
X114961588Y-99135587D01*
X114832342Y-98942157D01*
X114667843Y-98777658D01*
X114474413Y-98648412D01*
X114259485Y-98559386D01*
X114031318Y-98514000D01*
X113798682Y-98514000D01*
X113570515Y-98559386D01*
X113355587Y-98648412D01*
X113162157Y-98777658D01*
X112997658Y-98942157D01*
X112868412Y-99135587D01*
X112779386Y-99350515D01*
X112736125Y-99567998D01*
X112645625Y-99567998D01*
X112766909Y-99345960D01*
X112672070Y-99081119D01*
X112527385Y-98839869D01*
X112338414Y-98631481D01*
X112112420Y-98463963D01*
X111858087Y-98343754D01*
X111724039Y-98303096D01*
X111502000Y-98425085D01*
X111502000Y-99568000D01*
X111522000Y-99568000D01*
X111522000Y-99822000D01*
X111502000Y-99822000D01*
X111502000Y-99842000D01*
X111248000Y-99842000D01*
X111248000Y-99822000D01*
X111228000Y-99822000D01*
X111228000Y-99568000D01*
X111248000Y-99568000D01*
X111248000Y-98425085D01*
X111025961Y-98303096D01*
X110891913Y-98343754D01*
X110637580Y-98463963D01*
X110411586Y-98631481D01*
X110222615Y-98839869D01*
X110077930Y-99081119D01*
X109983091Y-99345960D01*
X110104375Y-99567998D01*
X110013875Y-99567998D01*
X109970614Y-99350515D01*
X109881588Y-99135587D01*
X109752342Y-98942157D01*
X109587843Y-98777658D01*
X109394413Y-98648412D01*
X109179485Y-98559386D01*
X108951318Y-98514000D01*
X108718682Y-98514000D01*
X108490515Y-98559386D01*
X108275587Y-98648412D01*
X108082157Y-98777658D01*
X107917658Y-98942157D01*
X107788412Y-99135587D01*
X107699386Y-99350515D01*
X107654000Y-99578682D01*
X107654000Y-99811318D01*
X107699386Y-100039485D01*
X107788412Y-100254413D01*
X107842927Y-100336000D01*
X107287073Y-100336000D01*
X107341588Y-100254413D01*
X107430614Y-100039485D01*
X107476000Y-99811318D01*
X107476000Y-99578682D01*
X107430614Y-99350515D01*
X107341588Y-99135587D01*
X107212342Y-98942157D01*
X107047843Y-98777658D01*
X106854413Y-98648412D01*
X106639485Y-98559386D01*
X106411318Y-98514000D01*
X106178682Y-98514000D01*
X105950515Y-98559386D01*
X105735587Y-98648412D01*
X105542157Y-98777658D01*
X105377658Y-98942157D01*
X105248412Y-99135587D01*
X105159386Y-99350515D01*
X105114000Y-99578682D01*
X105114000Y-99811318D01*
X105159386Y-100039485D01*
X105248412Y-100254413D01*
X105302927Y-100336000D01*
X104747073Y-100336000D01*
X104801588Y-100254413D01*
X104890614Y-100039485D01*
X104936000Y-99811318D01*
X104936000Y-99578682D01*
X104890614Y-99350515D01*
X104801588Y-99135587D01*
X104672342Y-98942157D01*
X104507843Y-98777658D01*
X104314413Y-98648412D01*
X104099485Y-98559386D01*
X103871318Y-98514000D01*
X103638682Y-98514000D01*
X103410515Y-98559386D01*
X103195587Y-98648412D01*
X103002157Y-98777658D01*
X102837658Y-98942157D01*
X102708412Y-99135587D01*
X102619386Y-99350515D01*
X102574000Y-99578682D01*
X102574000Y-99811318D01*
X102619386Y-100039485D01*
X102708412Y-100254413D01*
X102762927Y-100336000D01*
X102207073Y-100336000D01*
X102261588Y-100254413D01*
X102350614Y-100039485D01*
X102396000Y-99811318D01*
X102396000Y-99578682D01*
X102350614Y-99350515D01*
X102261588Y-99135587D01*
X102132342Y-98942157D01*
X101967843Y-98777658D01*
X101774413Y-98648412D01*
X101559485Y-98559386D01*
X101331318Y-98514000D01*
X101098682Y-98514000D01*
X100870515Y-98559386D01*
X100655587Y-98648412D01*
X100462157Y-98777658D01*
X100297658Y-98942157D01*
X100168412Y-99135587D01*
X100079386Y-99350515D01*
X100034000Y-99578682D01*
X100034000Y-99811318D01*
X100079386Y-100039485D01*
X100168412Y-100254413D01*
X100222927Y-100336000D01*
X99667073Y-100336000D01*
X99721588Y-100254413D01*
X99810614Y-100039485D01*
X99856000Y-99811318D01*
X99856000Y-99578682D01*
X99810614Y-99350515D01*
X99721588Y-99135587D01*
X99592342Y-98942157D01*
X99427843Y-98777658D01*
X99234413Y-98648412D01*
X99019485Y-98559386D01*
X98791318Y-98514000D01*
X98558682Y-98514000D01*
X98330515Y-98559386D01*
X98115587Y-98648412D01*
X97922157Y-98777658D01*
X97757658Y-98942157D01*
X97628412Y-99135587D01*
X97539386Y-99350515D01*
X97494000Y-99578682D01*
X97494000Y-99811318D01*
X97539386Y-100039485D01*
X97628412Y-100254413D01*
X97682927Y-100336000D01*
X97127073Y-100336000D01*
X97181588Y-100254413D01*
X97270614Y-100039485D01*
X97316000Y-99811318D01*
X97316000Y-99578682D01*
X97270614Y-99350515D01*
X97181588Y-99135587D01*
X97052342Y-98942157D01*
X96887843Y-98777658D01*
X96694413Y-98648412D01*
X96479485Y-98559386D01*
X96251318Y-98514000D01*
X96018682Y-98514000D01*
X95790515Y-98559386D01*
X95575587Y-98648412D01*
X95382157Y-98777658D01*
X95217658Y-98942157D01*
X95088412Y-99135587D01*
X94999386Y-99350515D01*
X94954000Y-99578682D01*
X94954000Y-99811318D01*
X94999386Y-100039485D01*
X95088412Y-100254413D01*
X95142927Y-100336000D01*
X94587073Y-100336000D01*
X94641588Y-100254413D01*
X94730614Y-100039485D01*
X94776000Y-99811318D01*
X94776000Y-99578682D01*
X94730614Y-99350515D01*
X94641588Y-99135587D01*
X94512342Y-98942157D01*
X94347843Y-98777658D01*
X94154413Y-98648412D01*
X93939485Y-98559386D01*
X93711318Y-98514000D01*
X93478682Y-98514000D01*
X93250515Y-98559386D01*
X93035587Y-98648412D01*
X92842157Y-98777658D01*
X92677658Y-98942157D01*
X92548412Y-99135587D01*
X92459386Y-99350515D01*
X92414000Y-99578682D01*
X92414000Y-99811318D01*
X92459386Y-100039485D01*
X92548412Y-100254413D01*
X92602927Y-100336000D01*
X92047073Y-100336000D01*
X92101588Y-100254413D01*
X92190614Y-100039485D01*
X92236000Y-99811318D01*
X92236000Y-99578682D01*
X92190614Y-99350515D01*
X92158134Y-99272102D01*
X94319236Y-97111000D01*
X139400764Y-97111000D01*
X141113175Y-98823412D01*
G37*
%TD.AperFunction*%
D22*
X91477898Y-98591866D02*
X91399485Y-98559386D01*
X91171318Y-98514000D01*
X90938682Y-98514000D01*
X90710515Y-98559386D01*
X90495587Y-98648412D01*
X90302157Y-98777658D01*
X90137658Y-98942157D01*
X90008412Y-99135587D01*
X89919386Y-99350515D01*
X89874000Y-99578682D01*
X89874000Y-99811318D01*
X89919386Y-100039485D01*
X90008412Y-100254413D01*
X90062927Y-100336000D01*
X89836236Y-100336000D01*
X89618134Y-100117898D01*
X89650614Y-100039485D01*
X89696000Y-99811318D01*
X89696000Y-99578682D01*
X89650614Y-99350515D01*
X89561588Y-99135587D01*
X89432342Y-98942157D01*
X89267843Y-98777658D01*
X89074413Y-98648412D01*
X88859485Y-98559386D01*
X88631318Y-98514000D01*
X88626236Y-98514000D01*
X90529237Y-96611000D01*
X93458764Y-96611000D01*
X91477898Y-98591866D01*
%TA.AperFunction,Conductor*%
D23*
G36*
X91477898Y-98591866D02*
G01*
X91399485Y-98559386D01*
X91171318Y-98514000D01*
X90938682Y-98514000D01*
X90710515Y-98559386D01*
X90495587Y-98648412D01*
X90302157Y-98777658D01*
X90137658Y-98942157D01*
X90008412Y-99135587D01*
X89919386Y-99350515D01*
X89874000Y-99578682D01*
X89874000Y-99811318D01*
X89919386Y-100039485D01*
X90008412Y-100254413D01*
X90062927Y-100336000D01*
X89836236Y-100336000D01*
X89618134Y-100117898D01*
X89650614Y-100039485D01*
X89696000Y-99811318D01*
X89696000Y-99578682D01*
X89650614Y-99350515D01*
X89561588Y-99135587D01*
X89432342Y-98942157D01*
X89267843Y-98777658D01*
X89074413Y-98648412D01*
X88859485Y-98559386D01*
X88631318Y-98514000D01*
X88626236Y-98514000D01*
X90529237Y-96611000D01*
X93458764Y-96611000D01*
X91477898Y-98591866D01*
G37*
%TD.AperFunction*%
D22*
X148038395Y-94364318D02*
X148182690Y-94460732D01*
X148343022Y-94527144D01*
X148513229Y-94561000D01*
X148686771Y-94561000D01*
X148856978Y-94527144D01*
X149017310Y-94460732D01*
X149044258Y-94442726D01*
X149504000Y-94902469D01*
X149523757Y-94926543D01*
X149547831Y-94946300D01*
X149547834Y-94946303D01*
X149547840Y-94946308D01*
X150258707Y-95657175D01*
X150282526Y-95776922D01*
X150308221Y-95838954D01*
X147643672Y-95838954D01*
X147620045Y-95836627D01*
X147525753Y-95845914D01*
X147498249Y-95854258D01*
X147435085Y-95873418D01*
X147393619Y-95895582D01*
X147366887Y-95761191D01*
X147308013Y-95619058D01*
X147222542Y-95491141D01*
X147113759Y-95382358D01*
X146985842Y-95296887D01*
X146843709Y-95238013D01*
X146692822Y-95208000D01*
X146538978Y-95208000D01*
X146388091Y-95238013D01*
X146245958Y-95296887D01*
X146118041Y-95382358D01*
X146009258Y-95491141D01*
X145923787Y-95619058D01*
X145864913Y-95761191D01*
X145834900Y-95912078D01*
X145834900Y-96065922D01*
X145838855Y-96085808D01*
X145082843Y-96841821D01*
X145082843Y-96625000D01*
X145075487Y-96550311D01*
X145060225Y-96500000D01*
X145075487Y-96449689D01*
X145082843Y-96375000D01*
X145082843Y-95825000D01*
X145075487Y-95750311D01*
X145060225Y-95700000D01*
X145075487Y-95649689D01*
X145082843Y-95575000D01*
X145082843Y-95133772D01*
X145110990Y-95131000D01*
X145110998Y-95131000D01*
X145203698Y-95121870D01*
X145322642Y-95085789D01*
X145432261Y-95027196D01*
X145528343Y-94948343D01*
X145548105Y-94924263D01*
X146161369Y-94311000D01*
X147985077Y-94311000D01*
X148038395Y-94364318D01*
%TA.AperFunction,Conductor*%
D23*
G36*
X148038395Y-94364318D02*
G01*
X148182690Y-94460732D01*
X148343022Y-94527144D01*
X148513229Y-94561000D01*
X148686771Y-94561000D01*
X148856978Y-94527144D01*
X149017310Y-94460732D01*
X149044258Y-94442726D01*
X149504000Y-94902469D01*
X149523757Y-94926543D01*
X149547831Y-94946300D01*
X149547834Y-94946303D01*
X149547840Y-94946308D01*
X150258707Y-95657175D01*
X150282526Y-95776922D01*
X150308221Y-95838954D01*
X147643672Y-95838954D01*
X147620045Y-95836627D01*
X147525753Y-95845914D01*
X147498249Y-95854258D01*
X147435085Y-95873418D01*
X147393619Y-95895582D01*
X147366887Y-95761191D01*
X147308013Y-95619058D01*
X147222542Y-95491141D01*
X147113759Y-95382358D01*
X146985842Y-95296887D01*
X146843709Y-95238013D01*
X146692822Y-95208000D01*
X146538978Y-95208000D01*
X146388091Y-95238013D01*
X146245958Y-95296887D01*
X146118041Y-95382358D01*
X146009258Y-95491141D01*
X145923787Y-95619058D01*
X145864913Y-95761191D01*
X145834900Y-95912078D01*
X145834900Y-96065922D01*
X145838855Y-96085808D01*
X145082843Y-96841821D01*
X145082843Y-96625000D01*
X145075487Y-96550311D01*
X145060225Y-96500000D01*
X145075487Y-96449689D01*
X145082843Y-96375000D01*
X145082843Y-95825000D01*
X145075487Y-95750311D01*
X145060225Y-95700000D01*
X145075487Y-95649689D01*
X145082843Y-95575000D01*
X145082843Y-95133772D01*
X145110990Y-95131000D01*
X145110998Y-95131000D01*
X145203698Y-95121870D01*
X145322642Y-95085789D01*
X145432261Y-95027196D01*
X145528343Y-94948343D01*
X145548105Y-94924263D01*
X146161369Y-94311000D01*
X147985077Y-94311000D01*
X148038395Y-94364318D01*
G37*
%TD.AperFunction*%
D22*
X153359001Y-93728536D02*
X153359000Y-95439165D01*
X152256361Y-95439165D01*
X152232734Y-95436838D01*
X152138442Y-95446125D01*
X152127274Y-95449513D01*
X152047774Y-95473629D01*
X152010670Y-95493461D01*
X152010670Y-95433173D01*
X151976814Y-95262966D01*
X151910402Y-95102634D01*
X151813988Y-94958339D01*
X151691275Y-94835626D01*
X151602220Y-94776122D01*
X151669478Y-94789500D01*
X151823322Y-94789500D01*
X151974209Y-94759487D01*
X152116342Y-94700613D01*
X152244259Y-94615142D01*
X152353042Y-94506359D01*
X152438513Y-94378442D01*
X152497387Y-94236309D01*
X152527400Y-94085422D01*
X152527400Y-93931578D01*
X152523444Y-93911692D01*
X152714137Y-93721000D01*
X153358259Y-93721000D01*
X153359001Y-93728536D01*
%TA.AperFunction,Conductor*%
D23*
G36*
X153359001Y-93728536D02*
G01*
X153359000Y-95439165D01*
X152256361Y-95439165D01*
X152232734Y-95436838D01*
X152138442Y-95446125D01*
X152127274Y-95449513D01*
X152047774Y-95473629D01*
X152010670Y-95493461D01*
X152010670Y-95433173D01*
X151976814Y-95262966D01*
X151910402Y-95102634D01*
X151813988Y-94958339D01*
X151691275Y-94835626D01*
X151602220Y-94776122D01*
X151669478Y-94789500D01*
X151823322Y-94789500D01*
X151974209Y-94759487D01*
X152116342Y-94700613D01*
X152244259Y-94615142D01*
X152353042Y-94506359D01*
X152438513Y-94378442D01*
X152497387Y-94236309D01*
X152527400Y-94085422D01*
X152527400Y-93931578D01*
X152523444Y-93911692D01*
X152714137Y-93721000D01*
X153358259Y-93721000D01*
X153359001Y-93728536D01*
G37*
%TD.AperFunction*%
D22*
X157677877Y-91609942D02*
X157763348Y-91737859D01*
X157872131Y-91846642D01*
X158000048Y-91932113D01*
X158142181Y-91990987D01*
X158293068Y-92021000D01*
X158446912Y-92021000D01*
X158597799Y-91990987D01*
X158739932Y-91932113D01*
X158867849Y-91846642D01*
X158976632Y-91737859D01*
X159048077Y-91630934D01*
X159288829Y-91630934D01*
X156482843Y-94436921D01*
X156482843Y-94225000D01*
X156475487Y-94150311D01*
X156460225Y-94100000D01*
X156475487Y-94049689D01*
X156482843Y-93975000D01*
X156482843Y-93425000D01*
X156475487Y-93350311D01*
X156453701Y-93278492D01*
X156418322Y-93212304D01*
X156370711Y-93154289D01*
X156312696Y-93106678D01*
X156246508Y-93071299D01*
X156217682Y-93062555D01*
X157675656Y-91604580D01*
X157677877Y-91609942D01*
%TA.AperFunction,Conductor*%
D23*
G36*
X157677877Y-91609942D02*
G01*
X157763348Y-91737859D01*
X157872131Y-91846642D01*
X158000048Y-91932113D01*
X158142181Y-91990987D01*
X158293068Y-92021000D01*
X158446912Y-92021000D01*
X158597799Y-91990987D01*
X158739932Y-91932113D01*
X158867849Y-91846642D01*
X158976632Y-91737859D01*
X159048077Y-91630934D01*
X159288829Y-91630934D01*
X156482843Y-94436921D01*
X156482843Y-94225000D01*
X156475487Y-94150311D01*
X156460225Y-94100000D01*
X156475487Y-94049689D01*
X156482843Y-93975000D01*
X156482843Y-93425000D01*
X156475487Y-93350311D01*
X156453701Y-93278492D01*
X156418322Y-93212304D01*
X156370711Y-93154289D01*
X156312696Y-93106678D01*
X156246508Y-93071299D01*
X156217682Y-93062555D01*
X157675656Y-91604580D01*
X157677877Y-91609942D01*
G37*
%TD.AperFunction*%
D22*
X180310931Y-89083693D02*
X180548757Y-89131000D01*
X180628763Y-89131000D01*
X176690764Y-93069000D01*
X170294084Y-93069000D01*
X170833411Y-92529673D01*
X170851764Y-92514612D01*
X170911872Y-92441370D01*
X170956536Y-92357809D01*
X170981371Y-92275938D01*
X170984040Y-92267141D01*
X170993327Y-92172849D01*
X170991000Y-92149222D01*
X170991000Y-90927897D01*
X171007859Y-90916632D01*
X171116642Y-90807849D01*
X171202113Y-90679932D01*
X171260987Y-90537799D01*
X171291000Y-90386912D01*
X171291000Y-90233068D01*
X171272682Y-90140977D01*
X178886397Y-90140977D01*
X178910023Y-90143304D01*
X178933649Y-90140977D01*
X178945143Y-90139845D01*
X179004315Y-90134017D01*
X179094984Y-90106513D01*
X179178545Y-90061849D01*
X179251787Y-90001741D01*
X179266853Y-89983383D01*
X180176825Y-89073412D01*
X180176829Y-89073407D01*
X180208833Y-89041403D01*
X180310931Y-89083693D01*
%TA.AperFunction,Conductor*%
D23*
G36*
X180310931Y-89083693D02*
G01*
X180548757Y-89131000D01*
X180628763Y-89131000D01*
X176690764Y-93069000D01*
X170294084Y-93069000D01*
X170833411Y-92529673D01*
X170851764Y-92514612D01*
X170911872Y-92441370D01*
X170956536Y-92357809D01*
X170981371Y-92275938D01*
X170984040Y-92267141D01*
X170993327Y-92172849D01*
X170991000Y-92149222D01*
X170991000Y-90927897D01*
X171007859Y-90916632D01*
X171116642Y-90807849D01*
X171202113Y-90679932D01*
X171260987Y-90537799D01*
X171291000Y-90386912D01*
X171291000Y-90233068D01*
X171272682Y-90140977D01*
X178886397Y-90140977D01*
X178910023Y-90143304D01*
X178933649Y-90140977D01*
X178945143Y-90139845D01*
X179004315Y-90134017D01*
X179094984Y-90106513D01*
X179178545Y-90061849D01*
X179251787Y-90001741D01*
X179266853Y-89983383D01*
X180176825Y-89073412D01*
X180176829Y-89073407D01*
X180208833Y-89041403D01*
X180310931Y-89083693D01*
G37*
%TD.AperFunction*%
D22*
X157937000Y-87773000D02*
X157957000Y-87773000D01*
X157957000Y-88027000D01*
X157937000Y-88027000D01*
X157937000Y-89220155D01*
X158063074Y-89286689D01*
X154913314Y-92436450D01*
X154651065Y-92436450D01*
X154627449Y-92434124D01*
X154603833Y-92436450D01*
X154603824Y-92436450D01*
X154533158Y-92443410D01*
X154442489Y-92470914D01*
X154358928Y-92515578D01*
X154307843Y-92557502D01*
X154307843Y-91421000D01*
X154472093Y-91421000D01*
X154483358Y-91437859D01*
X154592141Y-91546642D01*
X154720058Y-91632113D01*
X154862191Y-91690987D01*
X155013078Y-91721000D01*
X155166922Y-91721000D01*
X155317809Y-91690987D01*
X155459942Y-91632113D01*
X155587859Y-91546642D01*
X155696642Y-91437859D01*
X155782113Y-91309942D01*
X155840987Y-91167809D01*
X155871000Y-91016922D01*
X155871000Y-90863078D01*
X155840987Y-90712191D01*
X155782113Y-90570058D01*
X155696642Y-90442141D01*
X155587859Y-90333358D01*
X155459942Y-90247887D01*
X155317809Y-90189013D01*
X155166922Y-90159000D01*
X155013078Y-90159000D01*
X154862191Y-90189013D01*
X154720058Y-90247887D01*
X154592141Y-90333358D01*
X154483358Y-90442141D01*
X154472093Y-90459000D01*
X152983615Y-90459000D01*
X152959999Y-90456674D01*
X152936383Y-90459000D01*
X152936374Y-90459000D01*
X152865708Y-90465960D01*
X152775039Y-90493464D01*
X152691478Y-90538128D01*
X152618236Y-90598236D01*
X152603170Y-90616594D01*
X152561360Y-90658404D01*
X152452631Y-90624823D01*
X152335750Y-90615000D01*
X152177000Y-90773750D01*
X152177000Y-91873000D01*
X152192157Y-91873000D01*
X152192157Y-92127000D01*
X152177000Y-92127000D01*
X152177000Y-92147000D01*
X151923000Y-92147000D01*
X151923000Y-92127000D01*
X151907843Y-92127000D01*
X151907843Y-91873000D01*
X151923000Y-91873000D01*
X151923000Y-90773750D01*
X151764250Y-90615000D01*
X151647369Y-90624823D01*
X151527855Y-90661735D01*
X151417839Y-90721254D01*
X151321549Y-90801092D01*
X151267885Y-90867157D01*
X151212779Y-90867157D01*
X152008937Y-90071000D01*
X155190274Y-90071000D01*
X155213900Y-90073327D01*
X155237526Y-90071000D01*
X155308192Y-90064040D01*
X155398861Y-90036536D01*
X155482422Y-89991872D01*
X155555664Y-89931764D01*
X155570730Y-89913406D01*
X156656520Y-88827616D01*
X156809731Y-88997588D01*
X157043080Y-89171641D01*
X157305901Y-89296825D01*
X157453110Y-89341476D01*
X157683000Y-89220155D01*
X157683000Y-88027000D01*
X157663000Y-88027000D01*
X157663000Y-87773000D01*
X157683000Y-87773000D01*
X157683000Y-87753000D01*
X157937000Y-87753000D01*
X157937000Y-87773000D01*
%TA.AperFunction,Conductor*%
D23*
G36*
X157937000Y-87773000D02*
G01*
X157957000Y-87773000D01*
X157957000Y-88027000D01*
X157937000Y-88027000D01*
X157937000Y-89220155D01*
X158063074Y-89286689D01*
X154913314Y-92436450D01*
X154651065Y-92436450D01*
X154627449Y-92434124D01*
X154603833Y-92436450D01*
X154603824Y-92436450D01*
X154533158Y-92443410D01*
X154442489Y-92470914D01*
X154358928Y-92515578D01*
X154307843Y-92557502D01*
X154307843Y-91421000D01*
X154472093Y-91421000D01*
X154483358Y-91437859D01*
X154592141Y-91546642D01*
X154720058Y-91632113D01*
X154862191Y-91690987D01*
X155013078Y-91721000D01*
X155166922Y-91721000D01*
X155317809Y-91690987D01*
X155459942Y-91632113D01*
X155587859Y-91546642D01*
X155696642Y-91437859D01*
X155782113Y-91309942D01*
X155840987Y-91167809D01*
X155871000Y-91016922D01*
X155871000Y-90863078D01*
X155840987Y-90712191D01*
X155782113Y-90570058D01*
X155696642Y-90442141D01*
X155587859Y-90333358D01*
X155459942Y-90247887D01*
X155317809Y-90189013D01*
X155166922Y-90159000D01*
X155013078Y-90159000D01*
X154862191Y-90189013D01*
X154720058Y-90247887D01*
X154592141Y-90333358D01*
X154483358Y-90442141D01*
X154472093Y-90459000D01*
X152983615Y-90459000D01*
X152959999Y-90456674D01*
X152936383Y-90459000D01*
X152936374Y-90459000D01*
X152865708Y-90465960D01*
X152775039Y-90493464D01*
X152691478Y-90538128D01*
X152618236Y-90598236D01*
X152603170Y-90616594D01*
X152561360Y-90658404D01*
X152452631Y-90624823D01*
X152335750Y-90615000D01*
X152177000Y-90773750D01*
X152177000Y-91873000D01*
X152192157Y-91873000D01*
X152192157Y-92127000D01*
X152177000Y-92127000D01*
X152177000Y-92147000D01*
X151923000Y-92147000D01*
X151923000Y-92127000D01*
X151907843Y-92127000D01*
X151907843Y-91873000D01*
X151923000Y-91873000D01*
X151923000Y-90773750D01*
X151764250Y-90615000D01*
X151647369Y-90624823D01*
X151527855Y-90661735D01*
X151417839Y-90721254D01*
X151321549Y-90801092D01*
X151267885Y-90867157D01*
X151212779Y-90867157D01*
X152008937Y-90071000D01*
X155190274Y-90071000D01*
X155213900Y-90073327D01*
X155237526Y-90071000D01*
X155308192Y-90064040D01*
X155398861Y-90036536D01*
X155482422Y-89991872D01*
X155555664Y-89931764D01*
X155570730Y-89913406D01*
X156656520Y-88827616D01*
X156809731Y-88997588D01*
X157043080Y-89171641D01*
X157305901Y-89296825D01*
X157453110Y-89341476D01*
X157683000Y-89220155D01*
X157683000Y-88027000D01*
X157663000Y-88027000D01*
X157663000Y-87773000D01*
X157683000Y-87773000D01*
X157683000Y-87753000D01*
X157937000Y-87753000D01*
X157937000Y-87773000D01*
G37*
%TD.AperFunction*%
D22*
X151784908Y-83508156D02*
X151765022Y-83504200D01*
X151611178Y-83504200D01*
X151460291Y-83534213D01*
X151318158Y-83593087D01*
X151190241Y-83678558D01*
X151081458Y-83787341D01*
X150995987Y-83915258D01*
X150937113Y-84057391D01*
X150933200Y-84077061D01*
X150694099Y-83963175D01*
X150546890Y-83918524D01*
X150317000Y-84039845D01*
X150317000Y-85233000D01*
X150337000Y-85233000D01*
X150337000Y-85487000D01*
X150317000Y-85487000D01*
X150317000Y-85507000D01*
X150063000Y-85507000D01*
X150063000Y-85487000D01*
X148869186Y-85487000D01*
X148748519Y-85716891D01*
X148845843Y-85991252D01*
X148994822Y-86241355D01*
X149189731Y-86457588D01*
X149423080Y-86631641D01*
X149685901Y-86756825D01*
X149713154Y-86765091D01*
X149606903Y-86809102D01*
X149405283Y-86943820D01*
X149233820Y-87115283D01*
X149099102Y-87316903D01*
X149006307Y-87540931D01*
X148959000Y-87778757D01*
X148959000Y-88021243D01*
X149006307Y-88259069D01*
X149099102Y-88483097D01*
X149233820Y-88684717D01*
X149405283Y-88856180D01*
X149606903Y-88990898D01*
X149830931Y-89083693D01*
X150068757Y-89131000D01*
X150088764Y-89131000D01*
X148526594Y-90693170D01*
X148508236Y-90708236D01*
X148448128Y-90781478D01*
X148403464Y-90865040D01*
X148400514Y-90874763D01*
X148399689Y-90874513D01*
X148325000Y-90867157D01*
X148145549Y-90867157D01*
X148174100Y-90723622D01*
X148174100Y-90569778D01*
X148144087Y-90418891D01*
X148085213Y-90276758D01*
X147999742Y-90148841D01*
X147890959Y-90040058D01*
X147763042Y-89954587D01*
X147620909Y-89895713D01*
X147470022Y-89865700D01*
X147316178Y-89865700D01*
X147165291Y-89895713D01*
X147023158Y-89954587D01*
X146895241Y-90040058D01*
X146885200Y-90050099D01*
X146876059Y-90040958D01*
X146748142Y-89955487D01*
X146606009Y-89896613D01*
X146455122Y-89866600D01*
X146301278Y-89866600D01*
X146150391Y-89896613D01*
X146008258Y-89955487D01*
X145880341Y-90040958D01*
X145771558Y-90149741D01*
X145686087Y-90277658D01*
X145627213Y-90419791D01*
X145597200Y-90570678D01*
X145597200Y-90724522D01*
X145613946Y-90808709D01*
X143161000Y-88355764D01*
X143161000Y-86424889D01*
X143349000Y-86424889D01*
X143349000Y-86815111D01*
X143425129Y-87197836D01*
X143574461Y-87558355D01*
X143791257Y-87882814D01*
X144067186Y-88158743D01*
X144391645Y-88375539D01*
X144752164Y-88524871D01*
X145134889Y-88601000D01*
X145525111Y-88601000D01*
X145907836Y-88524871D01*
X146268355Y-88375539D01*
X146592814Y-88158743D01*
X146868743Y-87882814D01*
X147085539Y-87558355D01*
X147234871Y-87197836D01*
X147311000Y-86815111D01*
X147311000Y-86424889D01*
X147234871Y-86042164D01*
X147085539Y-85681645D01*
X146868743Y-85357186D01*
X146592814Y-85081257D01*
X146475857Y-85003109D01*
X148748519Y-85003109D01*
X148869186Y-85233000D01*
X150063000Y-85233000D01*
X150063000Y-84039845D01*
X149833110Y-83918524D01*
X149685901Y-83963175D01*
X149423080Y-84088359D01*
X149189731Y-84262412D01*
X148994822Y-84478645D01*
X148845843Y-84728748D01*
X148748519Y-85003109D01*
X146475857Y-85003109D01*
X146268355Y-84864461D01*
X145907836Y-84715129D01*
X145525111Y-84639000D01*
X145134889Y-84639000D01*
X144752164Y-84715129D01*
X144391645Y-84864461D01*
X144067186Y-85081257D01*
X143791257Y-85357186D01*
X143574461Y-85681645D01*
X143425129Y-86042164D01*
X143349000Y-86424889D01*
X143161000Y-86424889D01*
X143161000Y-85439236D01*
X146138237Y-82462000D01*
X152831063Y-82462000D01*
X151784908Y-83508156D01*
%TA.AperFunction,Conductor*%
D23*
G36*
X151784908Y-83508156D02*
G01*
X151765022Y-83504200D01*
X151611178Y-83504200D01*
X151460291Y-83534213D01*
X151318158Y-83593087D01*
X151190241Y-83678558D01*
X151081458Y-83787341D01*
X150995987Y-83915258D01*
X150937113Y-84057391D01*
X150933200Y-84077061D01*
X150694099Y-83963175D01*
X150546890Y-83918524D01*
X150317000Y-84039845D01*
X150317000Y-85233000D01*
X150337000Y-85233000D01*
X150337000Y-85487000D01*
X150317000Y-85487000D01*
X150317000Y-85507000D01*
X150063000Y-85507000D01*
X150063000Y-85487000D01*
X148869186Y-85487000D01*
X148748519Y-85716891D01*
X148845843Y-85991252D01*
X148994822Y-86241355D01*
X149189731Y-86457588D01*
X149423080Y-86631641D01*
X149685901Y-86756825D01*
X149713154Y-86765091D01*
X149606903Y-86809102D01*
X149405283Y-86943820D01*
X149233820Y-87115283D01*
X149099102Y-87316903D01*
X149006307Y-87540931D01*
X148959000Y-87778757D01*
X148959000Y-88021243D01*
X149006307Y-88259069D01*
X149099102Y-88483097D01*
X149233820Y-88684717D01*
X149405283Y-88856180D01*
X149606903Y-88990898D01*
X149830931Y-89083693D01*
X150068757Y-89131000D01*
X150088764Y-89131000D01*
X148526594Y-90693170D01*
X148508236Y-90708236D01*
X148448128Y-90781478D01*
X148403464Y-90865040D01*
X148400514Y-90874763D01*
X148399689Y-90874513D01*
X148325000Y-90867157D01*
X148145549Y-90867157D01*
X148174100Y-90723622D01*
X148174100Y-90569778D01*
X148144087Y-90418891D01*
X148085213Y-90276758D01*
X147999742Y-90148841D01*
X147890959Y-90040058D01*
X147763042Y-89954587D01*
X147620909Y-89895713D01*
X147470022Y-89865700D01*
X147316178Y-89865700D01*
X147165291Y-89895713D01*
X147023158Y-89954587D01*
X146895241Y-90040058D01*
X146885200Y-90050099D01*
X146876059Y-90040958D01*
X146748142Y-89955487D01*
X146606009Y-89896613D01*
X146455122Y-89866600D01*
X146301278Y-89866600D01*
X146150391Y-89896613D01*
X146008258Y-89955487D01*
X145880341Y-90040958D01*
X145771558Y-90149741D01*
X145686087Y-90277658D01*
X145627213Y-90419791D01*
X145597200Y-90570678D01*
X145597200Y-90724522D01*
X145613946Y-90808709D01*
X143161000Y-88355764D01*
X143161000Y-86424889D01*
X143349000Y-86424889D01*
X143349000Y-86815111D01*
X143425129Y-87197836D01*
X143574461Y-87558355D01*
X143791257Y-87882814D01*
X144067186Y-88158743D01*
X144391645Y-88375539D01*
X144752164Y-88524871D01*
X145134889Y-88601000D01*
X145525111Y-88601000D01*
X145907836Y-88524871D01*
X146268355Y-88375539D01*
X146592814Y-88158743D01*
X146868743Y-87882814D01*
X147085539Y-87558355D01*
X147234871Y-87197836D01*
X147311000Y-86815111D01*
X147311000Y-86424889D01*
X147234871Y-86042164D01*
X147085539Y-85681645D01*
X146868743Y-85357186D01*
X146592814Y-85081257D01*
X146475857Y-85003109D01*
X148748519Y-85003109D01*
X148869186Y-85233000D01*
X150063000Y-85233000D01*
X150063000Y-84039845D01*
X149833110Y-83918524D01*
X149685901Y-83963175D01*
X149423080Y-84088359D01*
X149189731Y-84262412D01*
X148994822Y-84478645D01*
X148845843Y-84728748D01*
X148748519Y-85003109D01*
X146475857Y-85003109D01*
X146268355Y-84864461D01*
X145907836Y-84715129D01*
X145525111Y-84639000D01*
X145134889Y-84639000D01*
X144752164Y-84715129D01*
X144391645Y-84864461D01*
X144067186Y-85081257D01*
X143791257Y-85357186D01*
X143574461Y-85681645D01*
X143425129Y-86042164D01*
X143349000Y-86424889D01*
X143161000Y-86424889D01*
X143161000Y-85439236D01*
X146138237Y-82462000D01*
X152831063Y-82462000D01*
X151784908Y-83508156D01*
G37*
%TD.AperFunction*%
D22*
X161805037Y-89897208D02*
X161746163Y-90039341D01*
X161716150Y-90190228D01*
X161716150Y-90344072D01*
X161746163Y-90494959D01*
X161805037Y-90637092D01*
X161826313Y-90668934D01*
X158903425Y-90668934D01*
X158867849Y-90633358D01*
X158739932Y-90547887D01*
X158734571Y-90545666D01*
X159479237Y-89801000D01*
X161869321Y-89801000D01*
X161805037Y-89897208D01*
%TA.AperFunction,Conductor*%
D23*
G36*
X161805037Y-89897208D02*
G01*
X161746163Y-90039341D01*
X161716150Y-90190228D01*
X161716150Y-90344072D01*
X161746163Y-90494959D01*
X161805037Y-90637092D01*
X161826313Y-90668934D01*
X158903425Y-90668934D01*
X158867849Y-90633358D01*
X158739932Y-90547887D01*
X158734571Y-90545666D01*
X159479237Y-89801000D01*
X161869321Y-89801000D01*
X161805037Y-89897208D01*
G37*
%TD.AperFunction*%
D22*
X177039102Y-84776903D02*
X176946307Y-85000931D01*
X176899000Y-85238757D01*
X176899000Y-85481243D01*
X176946307Y-85719069D01*
X177039102Y-85943097D01*
X177173820Y-86144717D01*
X177345283Y-86316180D01*
X177546903Y-86450898D01*
X177770931Y-86543693D01*
X178008757Y-86591000D01*
X178251243Y-86591000D01*
X178489069Y-86543693D01*
X178713097Y-86450898D01*
X178914717Y-86316180D01*
X179086180Y-86144717D01*
X179220898Y-85943097D01*
X179313693Y-85719069D01*
X179361000Y-85481243D01*
X179361000Y-85238757D01*
X179313693Y-85000931D01*
X179220898Y-84776903D01*
X179146261Y-84665200D01*
X179653739Y-84665200D01*
X179579102Y-84776903D01*
X179486307Y-85000931D01*
X179439000Y-85238757D01*
X179439000Y-85481243D01*
X179486307Y-85719069D01*
X179579102Y-85943097D01*
X179713820Y-86144717D01*
X179885283Y-86316180D01*
X180086903Y-86450898D01*
X180310931Y-86543693D01*
X180548757Y-86591000D01*
X180791243Y-86591000D01*
X181029069Y-86543693D01*
X181253097Y-86450898D01*
X181454717Y-86316180D01*
X181626180Y-86144717D01*
X181760898Y-85943097D01*
X181853693Y-85719069D01*
X181901000Y-85481243D01*
X181901000Y-85238757D01*
X181853693Y-85000931D01*
X181760898Y-84776903D01*
X181686261Y-84665200D01*
X182193739Y-84665200D01*
X182119102Y-84776903D01*
X182026307Y-85000931D01*
X181979000Y-85238757D01*
X181979000Y-85481243D01*
X182026307Y-85719069D01*
X182119102Y-85943097D01*
X182253820Y-86144717D01*
X182400374Y-86291271D01*
X182391886Y-86298236D01*
X182376820Y-86316594D01*
X181616589Y-87076825D01*
X181600734Y-87089837D01*
X181454717Y-86943820D01*
X181253097Y-86809102D01*
X181029069Y-86716307D01*
X180791243Y-86669000D01*
X180548757Y-86669000D01*
X180310931Y-86716307D01*
X180086903Y-86809102D01*
X179885283Y-86943820D01*
X179713820Y-87115283D01*
X179579102Y-87316903D01*
X179486307Y-87540931D01*
X179439000Y-87778757D01*
X179439000Y-88021243D01*
X179486307Y-88259069D01*
X179528597Y-88361167D01*
X179496593Y-88393171D01*
X179496588Y-88393175D01*
X178710787Y-89178977D01*
X177531260Y-89178977D01*
X177636825Y-89073412D01*
X177636829Y-89073407D01*
X177668833Y-89041403D01*
X177770931Y-89083693D01*
X178008757Y-89131000D01*
X178251243Y-89131000D01*
X178489069Y-89083693D01*
X178713097Y-88990898D01*
X178914717Y-88856180D01*
X179086180Y-88684717D01*
X179220898Y-88483097D01*
X179313693Y-88259069D01*
X179361000Y-88021243D01*
X179361000Y-87778757D01*
X179313693Y-87540931D01*
X179220898Y-87316903D01*
X179086180Y-87115283D01*
X178914717Y-86943820D01*
X178713097Y-86809102D01*
X178489069Y-86716307D01*
X178251243Y-86669000D01*
X178008757Y-86669000D01*
X177770931Y-86716307D01*
X177546903Y-86809102D01*
X177345283Y-86943820D01*
X177173820Y-87115283D01*
X177039102Y-87316903D01*
X176991772Y-87431168D01*
X176934157Y-87268748D01*
X176785178Y-87018645D01*
X176590269Y-86802412D01*
X176356920Y-86628359D01*
X176094099Y-86503175D01*
X176066846Y-86494909D01*
X176173097Y-86450898D01*
X176374717Y-86316180D01*
X176546180Y-86144717D01*
X176680898Y-85943097D01*
X176773693Y-85719069D01*
X176821000Y-85481243D01*
X176821000Y-85238757D01*
X176773693Y-85000931D01*
X176680898Y-84776903D01*
X176606261Y-84665200D01*
X177113739Y-84665200D01*
X177039102Y-84776903D01*
%TA.AperFunction,Conductor*%
D23*
G36*
X177039102Y-84776903D02*
G01*
X176946307Y-85000931D01*
X176899000Y-85238757D01*
X176899000Y-85481243D01*
X176946307Y-85719069D01*
X177039102Y-85943097D01*
X177173820Y-86144717D01*
X177345283Y-86316180D01*
X177546903Y-86450898D01*
X177770931Y-86543693D01*
X178008757Y-86591000D01*
X178251243Y-86591000D01*
X178489069Y-86543693D01*
X178713097Y-86450898D01*
X178914717Y-86316180D01*
X179086180Y-86144717D01*
X179220898Y-85943097D01*
X179313693Y-85719069D01*
X179361000Y-85481243D01*
X179361000Y-85238757D01*
X179313693Y-85000931D01*
X179220898Y-84776903D01*
X179146261Y-84665200D01*
X179653739Y-84665200D01*
X179579102Y-84776903D01*
X179486307Y-85000931D01*
X179439000Y-85238757D01*
X179439000Y-85481243D01*
X179486307Y-85719069D01*
X179579102Y-85943097D01*
X179713820Y-86144717D01*
X179885283Y-86316180D01*
X180086903Y-86450898D01*
X180310931Y-86543693D01*
X180548757Y-86591000D01*
X180791243Y-86591000D01*
X181029069Y-86543693D01*
X181253097Y-86450898D01*
X181454717Y-86316180D01*
X181626180Y-86144717D01*
X181760898Y-85943097D01*
X181853693Y-85719069D01*
X181901000Y-85481243D01*
X181901000Y-85238757D01*
X181853693Y-85000931D01*
X181760898Y-84776903D01*
X181686261Y-84665200D01*
X182193739Y-84665200D01*
X182119102Y-84776903D01*
X182026307Y-85000931D01*
X181979000Y-85238757D01*
X181979000Y-85481243D01*
X182026307Y-85719069D01*
X182119102Y-85943097D01*
X182253820Y-86144717D01*
X182400374Y-86291271D01*
X182391886Y-86298236D01*
X182376820Y-86316594D01*
X181616589Y-87076825D01*
X181600734Y-87089837D01*
X181454717Y-86943820D01*
X181253097Y-86809102D01*
X181029069Y-86716307D01*
X180791243Y-86669000D01*
X180548757Y-86669000D01*
X180310931Y-86716307D01*
X180086903Y-86809102D01*
X179885283Y-86943820D01*
X179713820Y-87115283D01*
X179579102Y-87316903D01*
X179486307Y-87540931D01*
X179439000Y-87778757D01*
X179439000Y-88021243D01*
X179486307Y-88259069D01*
X179528597Y-88361167D01*
X179496593Y-88393171D01*
X179496588Y-88393175D01*
X178710787Y-89178977D01*
X177531260Y-89178977D01*
X177636825Y-89073412D01*
X177636829Y-89073407D01*
X177668833Y-89041403D01*
X177770931Y-89083693D01*
X178008757Y-89131000D01*
X178251243Y-89131000D01*
X178489069Y-89083693D01*
X178713097Y-88990898D01*
X178914717Y-88856180D01*
X179086180Y-88684717D01*
X179220898Y-88483097D01*
X179313693Y-88259069D01*
X179361000Y-88021243D01*
X179361000Y-87778757D01*
X179313693Y-87540931D01*
X179220898Y-87316903D01*
X179086180Y-87115283D01*
X178914717Y-86943820D01*
X178713097Y-86809102D01*
X178489069Y-86716307D01*
X178251243Y-86669000D01*
X178008757Y-86669000D01*
X177770931Y-86716307D01*
X177546903Y-86809102D01*
X177345283Y-86943820D01*
X177173820Y-87115283D01*
X177039102Y-87316903D01*
X176991772Y-87431168D01*
X176934157Y-87268748D01*
X176785178Y-87018645D01*
X176590269Y-86802412D01*
X176356920Y-86628359D01*
X176094099Y-86503175D01*
X176066846Y-86494909D01*
X176173097Y-86450898D01*
X176374717Y-86316180D01*
X176546180Y-86144717D01*
X176680898Y-85943097D01*
X176773693Y-85719069D01*
X176821000Y-85481243D01*
X176821000Y-85238757D01*
X176773693Y-85000931D01*
X176680898Y-84776903D01*
X176606261Y-84665200D01*
X177113739Y-84665200D01*
X177039102Y-84776903D01*
G37*
%TD.AperFunction*%
D22*
X171959102Y-84776903D02*
X171866307Y-85000931D01*
X171819000Y-85238757D01*
X171819000Y-85481243D01*
X171866307Y-85719069D01*
X171959102Y-85943097D01*
X172093820Y-86144717D01*
X172265283Y-86316180D01*
X172466903Y-86450898D01*
X172690931Y-86543693D01*
X172928757Y-86591000D01*
X173171243Y-86591000D01*
X173409069Y-86543693D01*
X173633097Y-86450898D01*
X173834717Y-86316180D01*
X174006180Y-86144717D01*
X174140898Y-85943097D01*
X174233693Y-85719069D01*
X174281000Y-85481243D01*
X174281000Y-85238757D01*
X174233693Y-85000931D01*
X174140898Y-84776903D01*
X174066261Y-84665200D01*
X174573739Y-84665200D01*
X174499102Y-84776903D01*
X174406307Y-85000931D01*
X174359000Y-85238757D01*
X174359000Y-85481243D01*
X174406307Y-85719069D01*
X174499102Y-85943097D01*
X174633820Y-86144717D01*
X174805283Y-86316180D01*
X175006903Y-86450898D01*
X175113154Y-86494909D01*
X175085901Y-86503175D01*
X174823080Y-86628359D01*
X174589731Y-86802412D01*
X174394822Y-87018645D01*
X174245843Y-87268748D01*
X174188228Y-87431168D01*
X174140898Y-87316903D01*
X174006180Y-87115283D01*
X173834717Y-86943820D01*
X173633097Y-86809102D01*
X173409069Y-86716307D01*
X173171243Y-86669000D01*
X172928757Y-86669000D01*
X172690931Y-86716307D01*
X172466903Y-86809102D01*
X172265283Y-86943820D01*
X172093820Y-87115283D01*
X171959102Y-87316903D01*
X171866307Y-87540931D01*
X171819000Y-87778757D01*
X171819000Y-88021243D01*
X171866307Y-88259069D01*
X171959102Y-88483097D01*
X172093820Y-88684717D01*
X172188069Y-88778966D01*
X171371931Y-88778966D01*
X171466180Y-88684717D01*
X171600898Y-88483097D01*
X171693693Y-88259069D01*
X171741000Y-88021243D01*
X171741000Y-87778757D01*
X171693693Y-87540931D01*
X171600898Y-87316903D01*
X171466180Y-87115283D01*
X171294717Y-86943820D01*
X171093097Y-86809102D01*
X170869069Y-86716307D01*
X170631243Y-86669000D01*
X170388757Y-86669000D01*
X170150931Y-86716307D01*
X169926903Y-86809102D01*
X169725283Y-86943820D01*
X169553820Y-87115283D01*
X169419102Y-87316903D01*
X169326307Y-87540931D01*
X169279000Y-87778757D01*
X169279000Y-88021243D01*
X169326307Y-88259069D01*
X169419102Y-88483097D01*
X169553820Y-88684717D01*
X169598080Y-88728977D01*
X168881920Y-88728977D01*
X168926180Y-88684717D01*
X169060898Y-88483097D01*
X169153693Y-88259069D01*
X169201000Y-88021243D01*
X169201000Y-87778757D01*
X169153693Y-87540931D01*
X169060898Y-87316903D01*
X168926180Y-87115283D01*
X168811183Y-87000286D01*
X168816830Y-86993406D01*
X169563406Y-86246830D01*
X169581764Y-86231764D01*
X169608405Y-86199302D01*
X169725283Y-86316180D01*
X169926903Y-86450898D01*
X170150931Y-86543693D01*
X170388757Y-86591000D01*
X170631243Y-86591000D01*
X170869069Y-86543693D01*
X171093097Y-86450898D01*
X171294717Y-86316180D01*
X171466180Y-86144717D01*
X171600898Y-85943097D01*
X171693693Y-85719069D01*
X171741000Y-85481243D01*
X171741000Y-85238757D01*
X171693693Y-85000931D01*
X171600898Y-84776903D01*
X171526261Y-84665200D01*
X172033739Y-84665200D01*
X171959102Y-84776903D01*
%TA.AperFunction,Conductor*%
D23*
G36*
X171959102Y-84776903D02*
G01*
X171866307Y-85000931D01*
X171819000Y-85238757D01*
X171819000Y-85481243D01*
X171866307Y-85719069D01*
X171959102Y-85943097D01*
X172093820Y-86144717D01*
X172265283Y-86316180D01*
X172466903Y-86450898D01*
X172690931Y-86543693D01*
X172928757Y-86591000D01*
X173171243Y-86591000D01*
X173409069Y-86543693D01*
X173633097Y-86450898D01*
X173834717Y-86316180D01*
X174006180Y-86144717D01*
X174140898Y-85943097D01*
X174233693Y-85719069D01*
X174281000Y-85481243D01*
X174281000Y-85238757D01*
X174233693Y-85000931D01*
X174140898Y-84776903D01*
X174066261Y-84665200D01*
X174573739Y-84665200D01*
X174499102Y-84776903D01*
X174406307Y-85000931D01*
X174359000Y-85238757D01*
X174359000Y-85481243D01*
X174406307Y-85719069D01*
X174499102Y-85943097D01*
X174633820Y-86144717D01*
X174805283Y-86316180D01*
X175006903Y-86450898D01*
X175113154Y-86494909D01*
X175085901Y-86503175D01*
X174823080Y-86628359D01*
X174589731Y-86802412D01*
X174394822Y-87018645D01*
X174245843Y-87268748D01*
X174188228Y-87431168D01*
X174140898Y-87316903D01*
X174006180Y-87115283D01*
X173834717Y-86943820D01*
X173633097Y-86809102D01*
X173409069Y-86716307D01*
X173171243Y-86669000D01*
X172928757Y-86669000D01*
X172690931Y-86716307D01*
X172466903Y-86809102D01*
X172265283Y-86943820D01*
X172093820Y-87115283D01*
X171959102Y-87316903D01*
X171866307Y-87540931D01*
X171819000Y-87778757D01*
X171819000Y-88021243D01*
X171866307Y-88259069D01*
X171959102Y-88483097D01*
X172093820Y-88684717D01*
X172188069Y-88778966D01*
X171371931Y-88778966D01*
X171466180Y-88684717D01*
X171600898Y-88483097D01*
X171693693Y-88259069D01*
X171741000Y-88021243D01*
X171741000Y-87778757D01*
X171693693Y-87540931D01*
X171600898Y-87316903D01*
X171466180Y-87115283D01*
X171294717Y-86943820D01*
X171093097Y-86809102D01*
X170869069Y-86716307D01*
X170631243Y-86669000D01*
X170388757Y-86669000D01*
X170150931Y-86716307D01*
X169926903Y-86809102D01*
X169725283Y-86943820D01*
X169553820Y-87115283D01*
X169419102Y-87316903D01*
X169326307Y-87540931D01*
X169279000Y-87778757D01*
X169279000Y-88021243D01*
X169326307Y-88259069D01*
X169419102Y-88483097D01*
X169553820Y-88684717D01*
X169598080Y-88728977D01*
X168881920Y-88728977D01*
X168926180Y-88684717D01*
X169060898Y-88483097D01*
X169153693Y-88259069D01*
X169201000Y-88021243D01*
X169201000Y-87778757D01*
X169153693Y-87540931D01*
X169060898Y-87316903D01*
X168926180Y-87115283D01*
X168811183Y-87000286D01*
X168816830Y-86993406D01*
X169563406Y-86246830D01*
X169581764Y-86231764D01*
X169608405Y-86199302D01*
X169725283Y-86316180D01*
X169926903Y-86450898D01*
X170150931Y-86543693D01*
X170388757Y-86591000D01*
X170631243Y-86591000D01*
X170869069Y-86543693D01*
X171093097Y-86450898D01*
X171294717Y-86316180D01*
X171466180Y-86144717D01*
X171600898Y-85943097D01*
X171693693Y-85719069D01*
X171741000Y-85481243D01*
X171741000Y-85238757D01*
X171693693Y-85000931D01*
X171600898Y-84776903D01*
X171526261Y-84665200D01*
X172033739Y-84665200D01*
X171959102Y-84776903D01*
G37*
%TD.AperFunction*%
D22*
X163017000Y-87773000D02*
X163037000Y-87773000D01*
X163037000Y-88027000D01*
X163017000Y-88027000D01*
X163017000Y-88047000D01*
X162763000Y-88047000D01*
X162763000Y-88027000D01*
X162743000Y-88027000D01*
X162743000Y-87773000D01*
X162763000Y-87773000D01*
X162763000Y-87753000D01*
X163017000Y-87753000D01*
X163017000Y-87773000D01*
%TA.AperFunction,Conductor*%
D23*
G36*
X163017000Y-87773000D02*
G01*
X163037000Y-87773000D01*
X163037000Y-88027000D01*
X163017000Y-88027000D01*
X163017000Y-88047000D01*
X162763000Y-88047000D01*
X162763000Y-88027000D01*
X162743000Y-88027000D01*
X162743000Y-87773000D01*
X162763000Y-87773000D01*
X162763000Y-87753000D01*
X163017000Y-87753000D01*
X163017000Y-87773000D01*
G37*
%TD.AperFunction*%
D22*
X175717000Y-87773000D02*
X175737000Y-87773000D01*
X175737000Y-88027000D01*
X175717000Y-88027000D01*
X175717000Y-88047000D01*
X175463000Y-88047000D01*
X175463000Y-88027000D01*
X175443000Y-88027000D01*
X175443000Y-87773000D01*
X175463000Y-87773000D01*
X175463000Y-87753000D01*
X175717000Y-87753000D01*
X175717000Y-87773000D01*
%TA.AperFunction,Conductor*%
D23*
G36*
X175717000Y-87773000D02*
G01*
X175737000Y-87773000D01*
X175737000Y-88027000D01*
X175717000Y-88027000D01*
X175717000Y-88047000D01*
X175463000Y-88047000D01*
X175463000Y-88027000D01*
X175443000Y-88027000D01*
X175443000Y-87773000D01*
X175463000Y-87773000D01*
X175463000Y-87753000D01*
X175717000Y-87753000D01*
X175717000Y-87773000D01*
G37*
%TD.AperFunction*%
D22*
X164846903Y-84269102D02*
X164645283Y-84403820D01*
X164473820Y-84575283D01*
X164339102Y-84776903D01*
X164246307Y-85000931D01*
X164199000Y-85238757D01*
X164199000Y-85481243D01*
X164246307Y-85719069D01*
X164339102Y-85943097D01*
X164473820Y-86144717D01*
X164645283Y-86316180D01*
X164846903Y-86450898D01*
X165070931Y-86543693D01*
X165308757Y-86591000D01*
X165551243Y-86591000D01*
X165789069Y-86543693D01*
X166013097Y-86450898D01*
X166214717Y-86316180D01*
X166386180Y-86144717D01*
X166520898Y-85943097D01*
X166568228Y-85828832D01*
X166625843Y-85991252D01*
X166774822Y-86241355D01*
X166947186Y-86432577D01*
X166376589Y-87003175D01*
X166358237Y-87018236D01*
X166335013Y-87046535D01*
X166327088Y-87056191D01*
X166214717Y-86943820D01*
X166013097Y-86809102D01*
X165789069Y-86716307D01*
X165551243Y-86669000D01*
X165308757Y-86669000D01*
X165070931Y-86716307D01*
X164846903Y-86809102D01*
X164645283Y-86943820D01*
X164473820Y-87115283D01*
X164339102Y-87316903D01*
X164291772Y-87431168D01*
X164234157Y-87268748D01*
X164085178Y-87018645D01*
X163890269Y-86802412D01*
X163656920Y-86628359D01*
X163394099Y-86503175D01*
X163366846Y-86494909D01*
X163473097Y-86450898D01*
X163674717Y-86316180D01*
X163846180Y-86144717D01*
X163980898Y-85943097D01*
X164073693Y-85719069D01*
X164121000Y-85481243D01*
X164121000Y-85238757D01*
X164073693Y-85000931D01*
X164031403Y-84898833D01*
X164665437Y-84264800D01*
X164857289Y-84264800D01*
X164846903Y-84269102D01*
%TA.AperFunction,Conductor*%
D23*
G36*
X164846903Y-84269102D02*
G01*
X164645283Y-84403820D01*
X164473820Y-84575283D01*
X164339102Y-84776903D01*
X164246307Y-85000931D01*
X164199000Y-85238757D01*
X164199000Y-85481243D01*
X164246307Y-85719069D01*
X164339102Y-85943097D01*
X164473820Y-86144717D01*
X164645283Y-86316180D01*
X164846903Y-86450898D01*
X165070931Y-86543693D01*
X165308757Y-86591000D01*
X165551243Y-86591000D01*
X165789069Y-86543693D01*
X166013097Y-86450898D01*
X166214717Y-86316180D01*
X166386180Y-86144717D01*
X166520898Y-85943097D01*
X166568228Y-85828832D01*
X166625843Y-85991252D01*
X166774822Y-86241355D01*
X166947186Y-86432577D01*
X166376589Y-87003175D01*
X166358237Y-87018236D01*
X166335013Y-87046535D01*
X166327088Y-87056191D01*
X166214717Y-86943820D01*
X166013097Y-86809102D01*
X165789069Y-86716307D01*
X165551243Y-86669000D01*
X165308757Y-86669000D01*
X165070931Y-86716307D01*
X164846903Y-86809102D01*
X164645283Y-86943820D01*
X164473820Y-87115283D01*
X164339102Y-87316903D01*
X164291772Y-87431168D01*
X164234157Y-87268748D01*
X164085178Y-87018645D01*
X163890269Y-86802412D01*
X163656920Y-86628359D01*
X163394099Y-86503175D01*
X163366846Y-86494909D01*
X163473097Y-86450898D01*
X163674717Y-86316180D01*
X163846180Y-86144717D01*
X163980898Y-85943097D01*
X164073693Y-85719069D01*
X164121000Y-85481243D01*
X164121000Y-85238757D01*
X164073693Y-85000931D01*
X164031403Y-84898833D01*
X164665437Y-84264800D01*
X164857289Y-84264800D01*
X164846903Y-84269102D01*
G37*
%TD.AperFunction*%
D22*
X163351167Y-84218597D02*
X163249069Y-84176307D01*
X163011243Y-84129000D01*
X162768757Y-84129000D01*
X162530931Y-84176307D01*
X162306903Y-84269102D01*
X162105283Y-84403820D01*
X161933820Y-84575283D01*
X161799102Y-84776903D01*
X161706307Y-85000931D01*
X161659000Y-85238757D01*
X161659000Y-85481243D01*
X161706307Y-85719069D01*
X161799102Y-85943097D01*
X161933820Y-86144717D01*
X162105283Y-86316180D01*
X162306903Y-86450898D01*
X162413154Y-86494909D01*
X162385901Y-86503175D01*
X162123080Y-86628359D01*
X161889731Y-86802412D01*
X161694822Y-87018645D01*
X161545843Y-87268748D01*
X161488228Y-87431168D01*
X161440898Y-87316903D01*
X161306180Y-87115283D01*
X161134717Y-86943820D01*
X160933097Y-86809102D01*
X160709069Y-86716307D01*
X160471243Y-86669000D01*
X160228757Y-86669000D01*
X159990931Y-86716307D01*
X159766903Y-86809102D01*
X159565283Y-86943820D01*
X159393820Y-87115283D01*
X159259102Y-87316903D01*
X159211772Y-87431168D01*
X159154157Y-87268748D01*
X159005178Y-87018645D01*
X158837554Y-86832682D01*
X159403411Y-86266826D01*
X159421764Y-86251764D01*
X159457420Y-86208317D01*
X159565283Y-86316180D01*
X159766903Y-86450898D01*
X159990931Y-86543693D01*
X160228757Y-86591000D01*
X160471243Y-86591000D01*
X160709069Y-86543693D01*
X160933097Y-86450898D01*
X161134717Y-86316180D01*
X161306180Y-86144717D01*
X161440898Y-85943097D01*
X161533693Y-85719069D01*
X161581000Y-85481243D01*
X161581000Y-85238757D01*
X161533693Y-85000931D01*
X161440898Y-84776903D01*
X161306180Y-84575283D01*
X161134717Y-84403820D01*
X160933097Y-84269102D01*
X160709069Y-84176307D01*
X160471243Y-84129000D01*
X160331237Y-84129000D01*
X160595737Y-83864500D01*
X163705263Y-83864500D01*
X163351167Y-84218597D01*
%TA.AperFunction,Conductor*%
D23*
G36*
X163351167Y-84218597D02*
G01*
X163249069Y-84176307D01*
X163011243Y-84129000D01*
X162768757Y-84129000D01*
X162530931Y-84176307D01*
X162306903Y-84269102D01*
X162105283Y-84403820D01*
X161933820Y-84575283D01*
X161799102Y-84776903D01*
X161706307Y-85000931D01*
X161659000Y-85238757D01*
X161659000Y-85481243D01*
X161706307Y-85719069D01*
X161799102Y-85943097D01*
X161933820Y-86144717D01*
X162105283Y-86316180D01*
X162306903Y-86450898D01*
X162413154Y-86494909D01*
X162385901Y-86503175D01*
X162123080Y-86628359D01*
X161889731Y-86802412D01*
X161694822Y-87018645D01*
X161545843Y-87268748D01*
X161488228Y-87431168D01*
X161440898Y-87316903D01*
X161306180Y-87115283D01*
X161134717Y-86943820D01*
X160933097Y-86809102D01*
X160709069Y-86716307D01*
X160471243Y-86669000D01*
X160228757Y-86669000D01*
X159990931Y-86716307D01*
X159766903Y-86809102D01*
X159565283Y-86943820D01*
X159393820Y-87115283D01*
X159259102Y-87316903D01*
X159211772Y-87431168D01*
X159154157Y-87268748D01*
X159005178Y-87018645D01*
X158837554Y-86832682D01*
X159403411Y-86266826D01*
X159421764Y-86251764D01*
X159457420Y-86208317D01*
X159565283Y-86316180D01*
X159766903Y-86450898D01*
X159990931Y-86543693D01*
X160228757Y-86591000D01*
X160471243Y-86591000D01*
X160709069Y-86543693D01*
X160933097Y-86450898D01*
X161134717Y-86316180D01*
X161306180Y-86144717D01*
X161440898Y-85943097D01*
X161533693Y-85719069D01*
X161581000Y-85481243D01*
X161581000Y-85238757D01*
X161533693Y-85000931D01*
X161440898Y-84776903D01*
X161306180Y-84575283D01*
X161134717Y-84403820D01*
X160933097Y-84269102D01*
X160709069Y-84176307D01*
X160471243Y-84129000D01*
X160331237Y-84129000D01*
X160595737Y-83864500D01*
X163705263Y-83864500D01*
X163351167Y-84218597D01*
G37*
%TD.AperFunction*%
D22*
X194768597Y-84898834D02*
X194726307Y-85000931D01*
X194679000Y-85238757D01*
X194679000Y-85481243D01*
X194726307Y-85719069D01*
X194819102Y-85943097D01*
X194953820Y-86144717D01*
X194958103Y-86149000D01*
X194321897Y-86149000D01*
X194326180Y-86144717D01*
X194460898Y-85943097D01*
X194553693Y-85719069D01*
X194601000Y-85481243D01*
X194601000Y-85238757D01*
X194553693Y-85000931D01*
X194460898Y-84776903D01*
X194326180Y-84575283D01*
X194154717Y-84403820D01*
X193953097Y-84269102D01*
X193729069Y-84176307D01*
X193491243Y-84129000D01*
X193248757Y-84129000D01*
X193010931Y-84176307D01*
X192908833Y-84218597D01*
X192876831Y-84186595D01*
X192861765Y-84168237D01*
X192788523Y-84108129D01*
X192704962Y-84063465D01*
X192614293Y-84035961D01*
X192545416Y-84029177D01*
X191527227Y-83010989D01*
X192880753Y-83010989D01*
X194768597Y-84898834D01*
%TA.AperFunction,Conductor*%
D23*
G36*
X194768597Y-84898834D02*
G01*
X194726307Y-85000931D01*
X194679000Y-85238757D01*
X194679000Y-85481243D01*
X194726307Y-85719069D01*
X194819102Y-85943097D01*
X194953820Y-86144717D01*
X194958103Y-86149000D01*
X194321897Y-86149000D01*
X194326180Y-86144717D01*
X194460898Y-85943097D01*
X194553693Y-85719069D01*
X194601000Y-85481243D01*
X194601000Y-85238757D01*
X194553693Y-85000931D01*
X194460898Y-84776903D01*
X194326180Y-84575283D01*
X194154717Y-84403820D01*
X193953097Y-84269102D01*
X193729069Y-84176307D01*
X193491243Y-84129000D01*
X193248757Y-84129000D01*
X193010931Y-84176307D01*
X192908833Y-84218597D01*
X192876831Y-84186595D01*
X192861765Y-84168237D01*
X192788523Y-84108129D01*
X192704962Y-84063465D01*
X192614293Y-84035961D01*
X192545416Y-84029177D01*
X191527227Y-83010989D01*
X192880753Y-83010989D01*
X194768597Y-84898834D01*
G37*
%TD.AperFunction*%
D22*
X188735019Y-83945255D02*
X188646890Y-83918524D01*
X188417000Y-84039845D01*
X188417000Y-85233000D01*
X188437000Y-85233000D01*
X188437000Y-85487000D01*
X188417000Y-85487000D01*
X188417000Y-85507000D01*
X188163000Y-85507000D01*
X188163000Y-85487000D01*
X188143000Y-85487000D01*
X188143000Y-85233000D01*
X188163000Y-85233000D01*
X188163000Y-84039845D01*
X187933110Y-83918524D01*
X187785901Y-83963175D01*
X187523080Y-84088359D01*
X187289731Y-84262412D01*
X187243708Y-84313471D01*
X186794736Y-83864500D01*
X188654264Y-83864500D01*
X188735019Y-83945255D01*
%TA.AperFunction,Conductor*%
D23*
G36*
X188735019Y-83945255D02*
G01*
X188646890Y-83918524D01*
X188417000Y-84039845D01*
X188417000Y-85233000D01*
X188437000Y-85233000D01*
X188437000Y-85487000D01*
X188417000Y-85487000D01*
X188417000Y-85507000D01*
X188163000Y-85507000D01*
X188163000Y-85487000D01*
X188143000Y-85487000D01*
X188143000Y-85233000D01*
X188163000Y-85233000D01*
X188163000Y-84039845D01*
X187933110Y-83918524D01*
X187785901Y-83963175D01*
X187523080Y-84088359D01*
X187289731Y-84262412D01*
X187243708Y-84313471D01*
X186794736Y-83864500D01*
X188654264Y-83864500D01*
X188735019Y-83945255D01*
G37*
%TD.AperFunction*%
D22*
X168097000Y-85233000D02*
X168117000Y-85233000D01*
X168117000Y-85487000D01*
X168097000Y-85487000D01*
X168097000Y-85507000D01*
X167843000Y-85507000D01*
X167843000Y-85487000D01*
X167823000Y-85487000D01*
X167823000Y-85233000D01*
X167843000Y-85233000D01*
X167843000Y-85213000D01*
X168097000Y-85213000D01*
X168097000Y-85233000D01*
%TA.AperFunction,Conductor*%
D23*
G36*
X168097000Y-85233000D02*
G01*
X168117000Y-85233000D01*
X168117000Y-85487000D01*
X168097000Y-85487000D01*
X168097000Y-85507000D01*
X167843000Y-85507000D01*
X167843000Y-85487000D01*
X167823000Y-85487000D01*
X167823000Y-85233000D01*
X167843000Y-85233000D01*
X167843000Y-85213000D01*
X168097000Y-85213000D01*
X168097000Y-85233000D01*
G37*
%TD.AperFunction*%
D22*
X191448569Y-84292804D02*
X191413097Y-84269102D01*
X191189069Y-84176307D01*
X190951243Y-84129000D01*
X190708757Y-84129000D01*
X190470931Y-84176307D01*
X190368834Y-84218597D01*
X189571235Y-83420999D01*
X190576765Y-83420999D01*
X191448569Y-84292804D01*
%TA.AperFunction,Conductor*%
D23*
G36*
X191448569Y-84292804D02*
G01*
X191413097Y-84269102D01*
X191189069Y-84176307D01*
X190951243Y-84129000D01*
X190708757Y-84129000D01*
X190470931Y-84176307D01*
X190368834Y-84218597D01*
X189571235Y-83420999D01*
X190576765Y-83420999D01*
X191448569Y-84292804D01*
G37*
%TD.AperFunction*%
D22*
X196098055Y-84142290D02*
X196031243Y-84129000D01*
X195788757Y-84129000D01*
X195550931Y-84176307D01*
X195448834Y-84218597D01*
X193841214Y-82610978D01*
X194566744Y-82610978D01*
X196098055Y-84142290D01*
%TA.AperFunction,Conductor*%
D23*
G36*
X196098055Y-84142290D02*
G01*
X196031243Y-84129000D01*
X195788757Y-84129000D01*
X195550931Y-84176307D01*
X195448834Y-84218597D01*
X193841214Y-82610978D01*
X194566744Y-82610978D01*
X196098055Y-84142290D01*
G37*
%TD.AperFunction*%
D22*
X199489001Y-83592791D02*
X199489001Y-84179012D01*
X199446508Y-84156299D01*
X199374689Y-84134513D01*
X199300000Y-84127157D01*
X197600000Y-84127157D01*
X197525311Y-84134513D01*
X197468105Y-84151866D01*
X195122810Y-81806572D01*
X195107744Y-81788214D01*
X195034502Y-81728106D01*
X194950941Y-81683442D01*
X194860272Y-81655938D01*
X194789606Y-81648978D01*
X194765980Y-81646651D01*
X194742354Y-81648978D01*
X156798759Y-81648978D01*
X156790764Y-81639236D01*
X156780728Y-81631000D01*
X197527211Y-81631000D01*
X199489001Y-83592791D01*
%TA.AperFunction,Conductor*%
D23*
G36*
X199489001Y-83592791D02*
G01*
X199489001Y-84179012D01*
X199446508Y-84156299D01*
X199374689Y-84134513D01*
X199300000Y-84127157D01*
X197600000Y-84127157D01*
X197525311Y-84134513D01*
X197468105Y-84151866D01*
X195122810Y-81806572D01*
X195107744Y-81788214D01*
X195034502Y-81728106D01*
X194950941Y-81683442D01*
X194860272Y-81655938D01*
X194789606Y-81648978D01*
X194765980Y-81646651D01*
X194742354Y-81648978D01*
X156798759Y-81648978D01*
X156790764Y-81639236D01*
X156780728Y-81631000D01*
X197527211Y-81631000D01*
X199489001Y-83592791D01*
G37*
%TD.AperFunction*%
%TD*%
M02*
